<?xml version="1.0" standalone="no"?>
<!DOCTYPE svg PUBLIC "-//W3C//DTD SVG 1.1//EN" "http://www.w3.org/Graphics/SVG/1.1/DTD/svg11.dtd" >
<svg>
<metadata>
Created by FontForge 20090914 at Wed Aug  3 17:08:05 2022
 By www-data
George Douros; 2010
Andrey V. Panov (C) 2005
MihailJP (c) 2011
</metadata>
<defs>
<font id="Russkopis-Normalny" horiz-adv-x="431" >
  <font-face 
    font-family="Russkopis"
    font-weight="400"
    font-style="italic"
    font-stretch="normal"
    units-per-em="1000"
    panose-1="2 0 5 3 0 0 0 0 0 0"
    ascent="800"
    descent="-200"
    x-height="346.996"
    cap-height="699.999"
    bbox="-213 -250 1500 1016"
    underline-thickness="23"
    underline-position="-47"
    slope="-17"
    unicode-range="U+0020-U+F6D4"
  />
<missing-glyph horiz-adv-x="364" 
d="M33 0v666h265v-666h-265zM66 33h199v600h-199v-600z" />
    <glyph glyph-name="Izhitsa" unicode="&#x474;&#x301;" horiz-adv-x="673" 
d="M82 454c30 39.333 62.9941 76.002 98.9941 110.002c50.667 46.667 91 70 121 70c14.667 0 26.834 -4.83301 36.501 -14.5s14.5 -21.834 14.5 -36.501c0 -20.667 -9.33301 -44.667 -28 -72c-19.333 -28.667 -29 -43.334 -29 -44.001c0 -3.33301 3 -5 9 -5
c21.333 0 72.333 31.333 153 94c52 40.667 102.333 82.667 151 126l10 -9l-45 -65c-3.33301 -4.66699 -13.666 -18.334 -30.999 -41.001s-32.666 -45.834 -45.999 -69.501s-23 -48.167 -29 -73.5c-14 -56 -24.333 -94 -31 -114c-3.33301 -10 -10.166 -31.667 -20.499 -65
s-17.833 -56.166 -22.5 -68.499s-12.167 -30.333 -22.5 -54s-21.333 -43.834 -33 -60.501s-25.5 -33 -41.5 -49c86.667 46.667 176 125.667 268 237l124 166c74 98.667 138 169.667 192 213c35.333 28 77 49 125 63l3 -14c-60 -17.333 -118 -54.333 -174 -111
c-30 -30 -73.333 -84.667 -130 -164l-33 -45l-30.5 -42c-5.66699 -8 -14.167 -19.333 -25.5 -34l-28 -35.5l-26.5 -31.5l-32.5 -36c-68.667 -74 -139.667 -131.667 -213 -173c-28 -16 -45 -24 -51 -24c-6.66699 0 -10 3 -10 9c0 0.666992 7.66699 13.667 23 39
s29 74.333 41 147l6.5 41c3 19.333 5 31.833 6 37.5s2.83301 14.834 5.5 27.501s5.33398 23.5 8.00098 32.5s6 18.833 10 29.5c26.667 73.333 79.334 152 158.001 236l-133 -99c-35.333 -23.333 -63.333 -35 -84 -35c-14.667 0 -27.167 4.33301 -37.5 13
s-15.5 19.667 -15.5 33c0 18.667 10.333 42.334 31 71.001c21.333 29.333 32 45 32 47c0 4.66699 -3.66699 7 -11 7c-38.667 0 -105.667 -57.667 -201 -173z" />
    <glyph glyph-name="izhitsa" unicode="&#x475;&#x301;" horiz-adv-x="419" 
d="M0 156l29.998 39.501l28.5 37.5c5.66699 7.33301 13.5 16.666 23.5 27.999s19.333 21.333 28 30s18.334 17.334 29.001 26.001c24 20 46.333 30 67 30c16 0 24 -10 24 -30c0 -20.667 -5.66699 -50.5 -17 -89.5s-25 -72.5 -41 -100.5
c-34.667 -59.333 -52 -93.333 -52 -102c0 -10.667 8.33301 -16 25 -16c37.333 0 85.333 28.333 144 85c-23.333 15.333 -35 39.666 -35 72.999c0 50 19 97 57 141c22 26 42.667 39 62 39c24.667 0 37 -15.667 37 -47c0 -33.333 -10.667 -69.333 -32 -108
c-12 -22.667 -33.333 -54 -64 -94c4.66699 -1.33301 10.667 -2 18 -2c18.667 0 36.334 7.33301 53.001 22c7.33301 6 20.333 20.667 39 44l13 -8c-20 -24.667 -35 -41.334 -45 -50.001c-18 -15.333 -38 -23 -60 -23c-12 0 -22 1.66699 -30 5c-62 -62 -115.667 -93 -161 -93
c-35.333 0 -53 32.333 -53 97c0 28.667 9.33301 61.334 28 98.001c13.333 24.667 31 52.667 53 84c19.333 28.667 29 45.667 29 51c0 2 -2.66699 3 -8 3c-27.333 0 -86 -59.333 -176 -178zM271.998 156.001c0 -22 8.66699 -39.001 26 -51.001c26 31.333 46.5 62.333 61.5 93
s22.5 54 22.5 70c0 11.333 -5.66699 17 -17 17c-20 0 -40.5 -15.667 -61.5 -47s-31.5 -58.666 -31.5 -81.999z" />
    <glyph glyph-name="Acyril_Acute" unicode="&#x410;&#x301;" horiz-adv-x="859" 
d="M921 760c0 6.66699 4.66797 12.667 14.001 18l146 78c13.333 6.66699 23 10 29 10c8 0 14.333 -2.5 19 -7.5s7 -11.167 7 -18.5v-2c-0.666992 -12.667 -8.83398 -23 -24.501 -31s-49.167 -20.333 -100.5 -37c-25.333 -8 -45.666 -14.667 -60.999 -20
c-6.66699 -2.66699 -12.334 -4 -17.001 -4c-8 0 -12 4.66699 -12 14zM-29.999 117c0 25.333 8.33301 46.834 25 64.501s37.667 26.5 63 26.5c15.333 0 29 -5.16699 41 -15.5s18 -22.833 18 -37.5c0 -20.667 -9 -35.334 -27 -44.001c-11.333 -4 -28.333 -9.33301 -51 -16
c-18 -7.33301 -27 -18 -27 -32c0 -17.333 10.833 -31.166 32.5 -41.499s44.167 -15.5 67.5 -15.5c83.333 0 170 50.667 260 152c-35.333 50.667 -53 97.667 -53 141c0 31.333 8.5 56.833 25.5 76.5s40.167 29.5 69.5 29.5c46.667 0 85.667 -21.667 117 -65
c82.667 94 153.667 166.333 213 217c89.333 74.667 176.666 123.334 261.999 146.001c-31.333 -42.667 -55.666 -78.334 -72.999 -107.001c-33.333 -54 -76 -142 -128 -264c-53.333 -123.333 -101 -221.333 -143 -294c84 8 151.333 49.667 202 125l12 -8
c-59.333 -82.667 -134 -127.334 -224 -134.001l-12 -21c-5.33301 -0 -36 -1.66699 -92 -5c14 24 22.667 40.333 26 49c-100.667 34 -164.667 68 -192 102c-92.667 -102.667 -182.667 -154 -270 -154c-39.333 0 -72.833 11.833 -100.5 35.5s-41.5 53.5 -41.5 89.5z
M356.001 245.001c0 -22 9.00098 -47 27.001 -75l137 158c-18 20 -39.667 30 -65 30c-26.667 0 -49.834 -11.667 -69.501 -35s-29.5 -49.333 -29.5 -78zM392.002 158.001c23.333 -28.667 85.333 -62 186 -100c14.667 46 22 89.333 22 130c0 15.333 -4 30.5 -12 45.5
s-18.833 30.667 -32.5 47s-22.167 27.5 -25.5 33.5zM541.002 327.001c3.33301 -5.33301 12.5 -17.834 27.5 -37.501s26.667 -37.667 35 -54s12.5 -32.833 12.5 -49.5c0 -24.667 -2.33301 -50 -7 -76l118 188l78 130c3.33301 5.33301 21 37.833 53 97.5
s65 108.834 99 147.501c-76 -32 -152 -82 -228 -150c-41.333 -36.667 -104 -102 -188 -196z" />
    <glyph glyph-name="Ie_Acute" unicode="&#x415;&#x301;" horiz-adv-x="586" 
d="M511 760c0 6.66699 4.66797 12.667 14.001 18l146 78c13.333 6.66699 23 10 29 10c8 0 14.333 -2.5 19 -7.5s7 -11.167 7 -18.5v-2c-0.666992 -12.667 -8.83398 -23 -24.501 -31s-49.167 -20.333 -100.5 -37c-25.333 -8 -45.666 -14.667 -60.999 -20
c-6.66699 -2.66699 -12.334 -4 -17.001 -4c-8 0 -12 4.66699 -12 14zM86.001 192c0 42 14.1729 79.666 42.5059 112.999s62.166 58.833 101.499 76.5s82.666 30.5 129.999 38.5c-39.333 35.333 -59 74.333 -59 117c0 51.333 23.5 92 70.5 122s101.5 45 163.5 45
c49.333 0 88.833 -11.167 118.5 -33.5s44.5 -55.166 44.5 -98.499c0 -33.333 -10.667 -63.333 -32 -90s-47.333 -40 -78 -40c-20.667 0 -37.334 7.33301 -50.001 22s-19 32.667 -19 54c0 38.667 25.667 73.667 77 105l9 -11c-39.333 -33.333 -59 -69.333 -59 -108
c0 -13.333 4.16699 -24.666 12.5 -33.999s18.833 -14 31.5 -14c25.333 0 47 12.167 65 36.5s27 51.166 27 80.499c0 31.333 -10 57.666 -30 78.999s-45.333 32 -76 32c-26 0 -55.5 -5.66699 -88.5 -17s-58.167 -26.333 -75.5 -45c-32.667 -36 -49 -76 -49 -120
c0 -6.66699 1.16699 -13.167 3.5 -19.5s5.66602 -12.5 9.99902 -18.5l11 -15c3 -4 7.16699 -8.5 12.5 -13.5s8.66602 -8.16699 9.99902 -9.5h26c22.667 0 45.5 -3.5 68.5 -10.5s34.5 -16.833 34.5 -29.5c0 -16 -13 -24 -39 -24c-32 0 -69.667 12.667 -113 38
c-90 -29.333 -148.667 -64.666 -176 -105.999c-34 -50.667 -51 -105.667 -51 -165c0 -38.667 16.5 -68.834 49.5 -90.501s72.5 -32.5 118.5 -32.5c54 0 100.167 14 138.5 42s64.5 64.667 78.5 110c5.33301 18 8 32 8 42c0 20.667 -5.83301 37.834 -17.5 51.501
s-27.167 20.5 -46.5 20.5c-26 0 -50.333 -12 -73 -36c-38.667 -39.333 -58.334 -90.333 -59.001 -153h-15c-8 20 -12 40 -12 60c0 41.333 14.167 76.333 42.5 105s62.833 43 103.5 43c26.667 0 49 -8.33301 67 -25s27 -38 27 -64c0 -49.333 -19.333 -94.333 -58 -135
c-48 -50.667 -110 -76 -186 -76c-64 0 -118.333 17.333 -163 52c-51.333 40 -77 89.667 -77 149zM426.007 408.999c22.667 -21.333 45 -32 67 -32c12.667 0 19 4 19 12c0 6 -7.33301 11.167 -22 15.5s-27.667 6.5 -39 6.5c-4.66699 0 -13 -0.666992 -25 -2z" />
    <glyph glyph-name="Ii_Acute" unicode="&#x418;&#x301;" horiz-adv-x="870" 
d="M706 694c0 6.66699 4.66797 12.667 14.001 18l146 78c13.333 6.66699 23 10 29 10c8 0 14.333 -2.5 19 -7.5s7 -11.167 7 -18.5v-2c-0.666992 -12.667 -8.83398 -23 -24.501 -31s-49.167 -20.333 -100.5 -37c-25.333 -8 -45.666 -14.667 -60.999 -20
c-6.66699 -2.66699 -12.334 -4 -17.001 -4c-8 0 -12 4.66699 -12 14zM80.001 343c0 56.667 22.5 113.332 67.5 169.999s93.833 101 146.5 133c55.333 33.333 111.333 50 168 50c54.667 0 94.834 -11.833 120.501 -35.5s38.5 -61.834 38.5 -114.501
c0 -20.667 -3.83301 -45.167 -11.5 -73.5s-17.834 -53.5 -30.501 -75.5l-38 -57l-68 -98c-44 -64 -66 -129.333 -66 -196v-16c0 -16.667 9 -25 27 -25c12 0 27.667 5 47 15c33.333 17.333 69.833 42.333 109.5 75s74.167 71.667 103.5 117l132 217
c36.667 61.333 77.334 123.333 122.001 186c42.667 4.66699 69 7.33398 79 8.00098c-52 -75.333 -104 -159 -156 -251l-107 -191l-56 -100c-14 -30 -21 -50.667 -21 -62c0 -6 3.33301 -9 10 -9c14.667 0 36 10 64 30c40.667 30 78.667 71 114 123l14 -8
c-78.667 -108.667 -145.667 -163 -201 -163c-13.333 0 -23.333 4.16699 -30 12.5s-10.5 17 -11.5 26s-1.5 22.833 -1.5 41.5c0 14.667 5 33.667 15 57c-12 -15.333 -21.833 -27.333 -29.5 -36s-15.667 -16.667 -24 -24s-13.833 -12.333 -16.5 -15
c-20 -19.333 -45.833 -34.833 -77.5 -46.5s-57.834 -17.5 -78.501 -17.5c-28.667 0 -51.167 12.667 -67.5 38s-24.5 55 -24.5 89c0 40.667 12.667 84 38 130c8 15.333 33 52 75 110c40 56.667 69 100.667 87 132c27.333 48 41 86.667 41 116c0 25.333 -11.333 44.333 -34 57
s-50.667 19 -84 19c-86 0 -169.333 -38.667 -250 -116c-79.333 -76.667 -119 -150.667 -119 -222c0 -24 7.33301 -44 22 -60s33.667 -24 57 -24c46 0 92 38.667 138 116c42 71.333 63 131 63 179c0 10.667 -1.33301 25.334 -4 44.001l15 2
c14.667 -44.667 22 -86.667 22 -126c0 -68 -24.667 -125 -74 -171c-42.667 -40.667 -91 -61 -145 -61c-33.333 0 -60 9 -80 27s-30 42.667 -30 74z" />
    <glyph glyph-name="Ocyril_Acute" unicode="&#x41e;&#x301;" horiz-adv-x="581" 
d="M511 760c0 6.66699 4.66797 12.667 14.001 18l146 78c13.333 6.66699 23 10 29 10c8 0 14.333 -2.5 19 -7.5s7 -11.167 7 -18.5v-2c-0.666992 -12.667 -8.83398 -23 -24.501 -31s-49.167 -20.333 -100.5 -37c-25.333 -8 -45.666 -14.667 -60.999 -20
c-6.66699 -2.66699 -12.334 -4 -17.001 -4c-8 0 -12 4.66699 -12 14zM92.001 189c0 102 44.001 201.332 132.001 297.999c52.667 57.333 114.167 108 184.5 152s139.833 66 208.5 66c29.333 0 55.166 -8.16699 77.499 -24.5s33.5 -37.166 33.5 -62.499
c0 -16 -5 -35.333 -15 -58l-16 5c8.66699 19.333 13 36.666 13 51.999c0 22 -9.33301 39.833 -28 53.5s-40.667 20.5 -66 20.5c-32.667 0 -70.834 -8.33301 -114.501 -25s-80.834 -39.667 -111.501 -69c-68 -65.333 -120 -133 -156 -203c-40 -77.333 -68 -145.333 -84 -204
c-5.33301 -19.333 -8 -37.333 -8 -54c0 -5.33301 0.333008 -12 1 -20s1 -14 1 -18c0 -21.333 11.833 -42.333 35.5 -63s46.834 -31 69.501 -31c111.333 0 215.333 94 312 282c51.333 100.667 77 178 77 232c0 34.667 -16 52 -48 52s-70 -23.333 -114 -70
c-36 -39.333 -70.333 -92 -103 -158c-32.667 -65.333 -54 -124.666 -64 -177.999c-4 -22 -7.33301 -44 -10 -66h-15c6.66699 94 40.334 194 101.001 300c70.667 124.667 139 187 205 187c24.667 0 43.667 -9.5 57 -28.5s20 -42.833 20 -71.5c0 -80 -41 -174.667 -123 -284
c-106 -141.333 -204 -212 -294 -212c-49.333 0 -88 19.167 -116 57.5s-42 85.833 -42 142.5z" />
    <glyph glyph-name="Ucyril_Acute" unicode="&#x423;&#x301;" horiz-adv-x="706" 
d="M579 694c0 6.66699 4.66797 12.667 14.001 18l146 78c13.333 6.66699 23 10 29 10c8 0 14.333 -2.5 19 -7.5s7 -11.167 7 -18.5v-2c-0.666992 -12.667 -8.83398 -23 -24.501 -31s-49.167 -20.333 -100.5 -37c-25.333 -8 -45.666 -14.667 -60.999 -20
c-6.66699 -2.66699 -12.334 -4 -17.001 -4c-8 0 -12 4.66699 -12 14zM105.001 411c0 48 19.668 96.1689 59.001 144.502s81.666 85.166 126.999 110.499c40.667 22.667 83.667 34 129 34c78.667 0 118 -44.333 118 -133c0 -27.333 -6.66699 -54.333 -20 -81
c-73.333 -116.667 -110 -184 -110 -202c0 -8.66699 5.66699 -16.167 17 -22.5s21.333 -9.5 30 -9.5c46.667 0 111.334 54.333 194.001 163l77 100.5c14 17.667 34 40.667 60 69s54 54.833 84 79.5l11 -10c-29.333 -34 -52.666 -67.833 -69.999 -101.5
s-33.333 -77.167 -48 -130.5l-42 -153c-34.667 -105.333 -94.334 -182.666 -179.001 -231.999c-54.667 -32.667 -115.334 -49 -182.001 -49c-50.667 0 -93.667 11.5 -129 34.5s-53 55.5 -53 97.5c0 26 8.5 47.833 25.5 65.5s38.5 26.5 64.5 26.5
c17.333 0 32.166 -5.16699 44.499 -15.5s18.5 -23.833 18.5 -40.5c0 -21.333 -9.33301 -36.333 -28 -45l-53 -16c-18 -6.66699 -27 -17.334 -27 -32.001c0 -11.333 9 -22.666 27 -33.999c25.333 -16 56.333 -24 93 -24c30.667 0 63.5 5.66699 98.5 17
s60.833 26.666 77.5 45.999c26.667 29.333 52.667 74 78 134l109 258c-19.333 -25.333 -44.833 -57 -76.5 -95s-52.834 -62 -63.501 -72c-41.333 -37.333 -79.666 -56 -114.999 -56c-22.667 0 -42.167 9.16699 -58.5 27.5s-24.5 39.5 -24.5 63.5c0 32.667 12 72 36 118
c0.666992 1.33301 23.667 38 69 110c24 38 36 65 36 81c0 32 -29.333 48 -88 48c-72.667 0 -141 -31.333 -205 -94c-24.667 -24.667 -46.667 -53.334 -66 -86.001s-29 -64 -29 -94c0 -39.333 17 -59 51 -59c27.333 0 54.333 15.5 81 46.5s48.667 64.5 66 100.5
c16.667 34 26.334 68.667 29.001 104h13c2 -20 3 -33.333 3 -40c0 -53.333 -16.667 -103.333 -50 -150c-36 -51.333 -79.667 -77 -131 -77c-52 0 -78 25 -78 75z" />
    <glyph glyph-name="Yeri_Acute" unicode="&#x42b;&#x301;" horiz-adv-x="812" 
d="M711 760c0 6.66699 4.66797 12.667 14.001 18l146 78c13.333 6.66699 23 10 29 10c8 0 14.333 -2.5 19 -7.5s7 -11.167 7 -18.5v-2c-0.666992 -12.667 -8.83398 -23 -24.501 -31s-49.167 -20.333 -100.5 -37c-25.333 -8 -45.666 -14.667 -60.999 -20
c-6.66699 -2.66699 -12.334 -4 -17.001 -4c-8 0 -12 4.66699 -12 14zM92.001 189c0 102 44.0049 201.331 132.005 297.998c52.667 57.333 114.167 108 184.5 152s139.833 66 208.5 66c23.333 0 43.666 -6.16699 60.999 -18.5s26 -28.5 26 -48.5
c0 -15.333 -5.5 -28.5 -16.5 -39.5s-24.167 -16.5 -39.5 -16.5c-12 0 -23 4.16699 -33 12.5s-15 18.5 -15 30.5c0 15.333 5.66699 27.666 17 36.999s17 15.333 17 18c0 7.33301 -6 11 -18 11c-32.667 0 -70.834 -8.33301 -114.501 -25s-80.834 -39.667 -111.501 -69
c-46.667 -44.667 -92.667 -111.334 -138 -200.001c-40 -78.667 -70.333 -154.667 -91 -228c-4 -16 -6 -31 -6 -45c0 -37.333 7.83301 -66.666 23.5 -87.999s39.167 -32 70.5 -32c103.333 0 188.666 73.333 255.999 220c12 26.667 18 57.667 18 93c0 34.667 -16 52 -48 52
c-16.667 0 -35.667 -6.5 -57 -19.5s-40.333 -29.833 -57 -50.5c-11.333 -14 -20.5 -29 -27.5 -45s-11.667 -29 -14 -39s-5.83301 -27 -10.5 -51c-4 -22 -7.33301 -44 -10 -66h-15c3.33301 46.667 9.16602 85.334 17.499 116.001s23.5 62.334 45.5 95.001
c15.333 23.333 35.166 41.666 59.499 54.999s47.166 20 68.499 20h6c2.66699 0 11.167 0.666992 25.5 2s26 2.5 35 3.5s20 2.83301 33 5.5s24.167 5.66699 33.5 9c8 3.33301 22.5 8.66602 43.5 15.999s37.333 13.333 49 18s25.5 11.334 41.5 20.001s29.333 17.667 40 27
c21.333 18.667 45.833 43.334 73.5 74.001s49.834 56.667 66.501 78l26 32l73 8l-140 -226c-48.667 -77.333 -119 -200 -211 -368c-16.667 -33.333 -25 -54 -25 -62c0 -6 3.33301 -9 10 -9c24.667 0 56.334 23.333 95.001 70l66 81l14 -9c-46 -58 -73 -91 -81 -99
c-39.333 -41.333 -74.333 -62 -105 -62c-11.333 0 -19.833 2 -25.5 6s-9.16699 8.5 -10.5 13.5s-2 12.167 -2 21.5v7c0 28.667 12.667 68.334 38 119.001c4.66699 10 20.667 37.667 48 83l108 178.5l97 160.5c-38.667 -45.333 -75 -83.333 -109 -114
c-31.333 -27.333 -71 -49.5 -119 -66.5s-98.667 -27.167 -152 -30.5c23.333 -17.333 35 -46.333 35 -87c0 -42.667 -16.333 -86.667 -49 -132c-36 -50 -76.833 -89.667 -122.5 -119s-89.167 -44 -130.5 -44c-49.333 0 -88 19.167 -116 57.5s-42 85.833 -42 142.5z" />
    <glyph glyph-name="Ecyrilrev_Acute" unicode="&#x42d;&#x301;" horiz-adv-x="598" 
d="M511 760c0 6.66699 4.66797 12.667 14.001 18l146 78c13.333 6.66699 23 10 29 10c8 0 14.333 -2.5 19 -7.5s7 -11.167 7 -18.5v-2c-0.666992 -12.667 -8.83398 -23 -24.501 -31s-49.167 -20.333 -100.5 -37c-25.333 -8 -45.666 -14.667 -60.999 -20
c-6.66699 -2.66699 -12.334 -4 -17.001 -4c-8 0 -12 4.66699 -12 14zM47.001 95c0 25.333 8.5 46.5029 25.5 63.5029s37.833 25.5 62.5 25.5c16.667 0 31.334 -5 44.001 -15s19 -22.667 19 -38s-5 -27.5 -15 -36.5s-23 -13.5 -39 -13.5s-30.333 6.33301 -43 19
s-20.334 19 -23.001 19c-10 0 -15 -9 -15 -27c0 -26 11.833 -46.833 35.5 -62.5s51.5 -23.5 83.5 -23.5c26.667 0 54.334 6.66699 83.001 20c4 2 13 5.83301 27 11.5l35 14.5c9.33301 4 19.666 9.5 30.999 16.5s20.333 13.833 27 20.5c60.667 64 115.667 141 165 231l7 12
c-6.66699 -4.66699 -15 -9.5 -25 -14.5s-21.5 -10 -34.5 -15s-21.5 -8.5 -25.5 -10.5c-27.333 -12 -52 -18 -74 -18c-12 0 -22.667 4.33301 -32 13s-14 19 -14 31c0 8.66699 3 20.667 9 36c1.33301 2.66699 3.16602 6 5.49902 10s4.5 7.33301 6.5 10l3 4
c0 6 -4.33301 9 -13 9c-24 0 -58.333 -21.667 -103 -65l-11 9c50 48 91.333 72 124 72c14 0 25.833 -4.5 35.5 -13.5s14.5 -20.5 14.5 -34.5c0 -10 -2 -21.333 -6 -34c-0.666992 -2.66699 -2.16699 -6 -4.5 -10l-6.5 -11l-2 -4c0 -3.33301 2.33301 -5 7 -5
c12 0 34.833 6.66699 68.5 20s64.5 30.666 92.5 51.999c42 86 63 160 63 222c0 31.333 -14.5 55.833 -43.5 73.5s-62.5 26.5 -100.5 26.5c-27.333 0 -50.666 -3.33301 -69.999 -10c-30.667 -10.667 -59.5 -28.334 -86.5 -53.001s-44.167 -51.667 -51.5 -81
c-1.33301 -6.66699 -2 -11.667 -2 -15c0 -12.667 3.66699 -22.667 11 -30s17.333 -11 30 -11c10 0 18.667 1.66699 26 5c23.333 8.66699 42.5 24.5 57.5 47.5s22.5 47.167 22.5 72.5c0 7.33301 -0.333008 12.666 -1 15.999l18 7c6 -14 9 -28 9 -42
c0 -25.333 -10.667 -49.333 -32 -72c-31.333 -32.667 -64.333 -49 -99 -49c-17.333 0 -31.5 4.66699 -42.5 14s-16.5 21.333 -16.5 36c0 6 0.333008 10.667 1 14c6 36.667 27.5 70.5 64.5 101.5s74.833 50.5 113.5 58.5c18 4 33.667 6 47 6c65.333 0 116.333 -23 153 -69
c30 -36.667 45 -78 45 -124c0 -19.333 -3 -42.666 -9 -69.999c-26 -84.667 -56.333 -148.334 -91 -191.001c-49.333 -61.333 -97.5 -110.5 -144.5 -147.5s-97.5 -65.167 -151.5 -84.5c-42.667 -15.333 -80.667 -23 -114 -23c-36 0 -66.833 9.5 -92.5 28.5
s-38.5 44.167 -38.5 75.5z" />
    <glyph glyph-name="Iu_Acute" unicode="&#x42e;&#x301;" horiz-adv-x="1091" 
d="M711 760c0 6.66699 4.66797 12.667 14.001 18l146 78c13.333 6.66699 23 10 29 10c8 0 14.333 -2.5 19 -7.5s7 -11.167 7 -18.5v-2c-0.666992 -12.667 -8.83398 -23 -24.501 -31s-49.167 -20.333 -100.5 -37c-25.333 -8 -45.666 -14.667 -60.999 -20
c-6.66699 -2.66699 -12.334 -4 -17.001 -4c-8 0 -12 4.66699 -12 14zM-30.999 118c0 27.333 8.16309 50.001 24.4961 68.001s37.833 27 64.5 27c16 0 29.833 -5.16699 41.5 -15.5s17.5 -23.5 17.5 -39.5c0 -20.667 -9.33301 -35.334 -28 -44.001l-52 -15
c-18.667 -6 -28 -16.667 -28 -32c0 -20.667 16.333 -36.334 49 -47.001c26 -8.66699 51 -13 75 -13c47.333 0 87.333 16.333 120 49c28.667 28.667 63 87.334 103 176.001c56.667 124 120 229 190 315c-58 -49.333 -108.667 -86.333 -152 -111
c-23.333 -12.667 -42.666 -19 -57.999 -19c-12 0 -22.667 4.33301 -32 13s-14 19 -14 31c0 20 10.333 44.333 31 73c21.333 29.333 32 44.333 32 45c0 6 -4.33301 9 -13 9c-41.333 0 -107 -57 -197 -171l-13 9c96.667 118.667 170 178 220 178c14 0 25.833 -4.5 35.5 -13.5
s14.5 -20.5 14.5 -34.5c0 -22.667 -9.66699 -47.667 -29 -75s-29 -41.333 -29 -42c0 -3.33301 2.33301 -5 7 -5c18 0 60.667 25.667 128 77c74 56 134 110 180 162l12 -9c-2 -2.66699 -14 -15.834 -36 -39.501s-37.667 -41.334 -47 -53.001s-21 -28.667 -35 -51
s-24 -43.833 -30 -64.5l-15 -48c14.667 6.66699 34.334 10 59.001 10c14.667 0 23.667 -1.66699 27 -5s5 -11.333 5 -24v-10c0 -5.33301 -0.166992 -10.166 -0.5 -14.499s-0.5 -7.83301 -0.5 -10.5l-1 -4c0 -7.33301 5.33301 -11 16 -11c13.333 0 21.333 0.333008 24 1
c25.333 56 63.166 110.167 113.499 162.5s104.5 96.166 162.5 131.499c76.667 47.333 148.667 71 216 71c29.333 0 55.166 -8.16699 77.499 -24.5s33.5 -37.166 33.5 -62.499c0 -16 -5 -35.333 -15 -58l-16 5c8.66699 19.333 13 36.666 13 51.999
c0 22 -9.33301 39.833 -28 53.5s-40.667 20.5 -66 20.5c-32.667 0 -70.834 -8.33301 -114.501 -25s-80.834 -39.667 -111.501 -69c-46.667 -44.667 -92.667 -111.334 -138 -200.001l-19 -37c-10 -19.333 -16.333 -31.833 -19 -37.5l-15 -31
c-7.33301 -15 -12.666 -26.667 -15.999 -35s-7.16602 -18.666 -11.499 -30.999s-8.16602 -24.166 -11.499 -35.499c-10.667 -39.333 -16 -72.666 -16 -99.999c0 -20.667 11.833 -40.167 35.5 -58.5s46.834 -27.5 69.501 -27.5c111.333 0 215.333 94 312 282
c51.333 100.667 77 178 77 232c0 34.667 -16 52 -48 52s-70 -23.333 -114 -70c-36 -39.333 -70.333 -92 -103 -158c-32.667 -65.333 -54 -124.666 -64 -177.999c-4 -22 -7.33301 -44 -10 -66h-15c6.66699 94 40.334 194 101.001 300c70.667 124.667 139 187 205 187
c24.667 0 43.667 -9.5 57 -28.5s20 -42.833 20 -71.5c0 -80 -41 -174.667 -123 -284c-106 -141.333 -204 -212 -294 -212c-49.333 0 -88 19.167 -116 57.5s-42 85.833 -42 142.5c0 46 9 91.667 27 137c-13.333 -3.33301 -29.666 -5 -48.999 -5c-7.33301 0 -14 2 -20 6
c-8 5.33301 -12.833 10.166 -14.5 14.499s-2.5 12.166 -2.5 23.499c0 4.66699 0.166992 9.33398 0.5 14.001s0.5 8.33398 0.5 11.001l1 4c0 2 -1 3 -3 3c-19.333 0 -33 -2 -41 -6l-47 -152c-15.333 -37.333 -31.333 -69.5 -48 -96.5s-37 -52.5 -61 -76.5
s-53 -42.333 -87 -55s-72.333 -19 -115 -19c-50 0 -91.5 10.667 -124.5 32s-49.5 52.666 -49.5 93.999z" />
    <glyph glyph-name="Ia_Acute" unicode="&#x42f;&#x301;" horiz-adv-x="699" 
d="M511 760c0 6.66699 4.66797 12.667 14.001 18l146 78c13.333 6.66699 23 10 29 10c8 0 14.333 -2.5 19 -7.5s7 -11.167 7 -18.5v-2c-0.666992 -12.667 -8.83398 -23 -24.501 -31s-49.167 -20.333 -100.5 -37c-25.333 -8 -45.666 -14.667 -60.999 -20
c-6.66699 -2.66699 -12.334 -4 -17.001 -4c-8 0 -12 4.66699 -12 14zM-37.999 110c0 27.333 8.49902 50.8281 25.499 70.4951s38.167 29.5 63.5 29.5c16 0 30 -5.16699 42 -15.5s18 -23.166 18 -38.499c0 -20.667 -11.333 -37 -34 -49l-49 -12
c-19.333 -4.66699 -29 -15 -29 -31c0 -18.667 11.333 -33 34 -43s47.334 -15 74.001 -15c54 0 104.333 20 151 60c24.667 21.333 58 57.333 100 108l80 100c-26 2.66699 -53.833 11.667 -83.5 27s-51.167 32.333 -64.5 51c-20 30 -30 64 -30 102v16
c0.666992 28 15 60.333 43 97s61.667 67.667 101 93c20.667 13.333 43.834 23.666 69.501 30.999s47 11.5 64 12.5s39.167 1.5 66.5 1.5h13c29.333 0 55.166 -8.16699 77.499 -24.5s33.5 -37.166 33.5 -62.499v-2c25.333 25.333 52 48.333 80 69c10.667 8 18.667 12 24 12
c9.33301 0 14 -3.66699 14 -11c0 -5.33301 -6 -16.666 -18 -33.999c-24 -34 -45.333 -67.667 -64 -101c-26 -45.333 -47.667 -86.333 -65 -123c-113.333 -236.667 -170 -371.667 -170 -405c0 -10 4.66699 -15 14 -15c18.667 0 44.334 17.667 77.001 53s60.667 69.333 84 102
l14 -8c-82 -110 -144.333 -165 -187 -165c-18.667 0 -30.5 3.16699 -35.5 9.5s-7.5 18.166 -7.5 35.499v27c0 37.333 13.333 87.333 40 150s60 127.334 100 194.001l26.5 47.5c13 23.667 24.333 43.334 34 59.001s24.667 37.334 45 65.001s42.833 55.167 67.5 82.5
c-90.667 -77.333 -198.334 -199.666 -323.001 -366.999l-68 -91c-24 -32 -48.333 -61 -73 -87c-76.667 -82.667 -154 -124 -232 -124c-41.333 0 -75.5 10.667 -102.5 32s-40.5 50.333 -40.5 87zM312 375.995c0 -20 16.8311 -39.667 50.498 -59s62.834 -29 87.501 -29
l193 238l64 69c2 8 3 15.333 3 22c0 22 -9.33301 39.833 -28 53.5s-40.667 20.5 -66 20.5c-101.333 0 -175.666 -22.667 -222.999 -68c-22 -20.667 -38.5 -41.667 -49.5 -63s-19.5 -48 -25.5 -80c-4 -21.333 -6 -56 -6 -104z" />
    <glyph glyph-name="acyril_acute" unicode="&#x430;&#x301;" horiz-adv-x="428" 
d="M231 415c0 6 7 14.332 21 24.999c90.667 71.333 139.334 108.333 146.001 111c2.66699 1.33301 6.33398 2 11.001 2c7.33301 0 13.666 -2.66699 18.999 -8s8 -11.666 8 -18.999v-1c-0.666992 -14 -11.334 -26.333 -32.001 -37c-102 -58 -155.333 -87 -160 -87
c-8.66699 0 -13 4.66699 -13 14zM0 155.999c51.333 72 92.6699 121.834 124.003 149.501s68.666 41.5 111.999 41.5c55.333 0 84 -19.667 86 -59l26 42l83 17c-116 -194 -174 -302.667 -174 -326c0 -6 3.66699 -9 11 -9c25.333 0 56 19.667 92 59
c15.333 17.333 39.666 47.666 72.999 90.999l14 -8l-58 -74c-21.333 -26 -40.333 -45.333 -57 -58c-25.333 -19.333 -51 -29 -77 -29c-18 0 -29.5 3.16699 -34.5 9.5s-7.5 19.5 -7.5 39.5c0 5.33301 3.66699 17.666 11 36.999s11.666 32 12.999 38
c-54.667 -82.667 -109 -124 -163 -124c-12.667 0 -23 2.5 -31 7.5s-13.667 13 -17 24s-5.5 21.333 -6.5 31s-1.5 22.834 -1.5 39.501c0 23.333 5.66699 50 17 80l-21 -27zM57.0039 31c0 -12.667 9 -19 27 -19c24.667 0 52.5 15.833 83.5 47.5s55.5 62.834 73.5 93.501
c42.667 70.667 64 114.334 64 131.001c0 11.333 -4.16699 21.166 -12.5 29.499s-18.5 12.5 -30.5 12.5c-15.333 0 -34 -8.16699 -56 -24.5s-44.333 -41.5 -67 -75.5c-28 -42 -48.667 -80.333 -62 -115s-20 -61.334 -20 -80.001z" />
    <glyph glyph-name="ie_acute" unicode="&#x435;&#x301;" horiz-adv-x="322" 
d="M181 415c0 6 7 14.332 21 24.999c90.667 71.333 139.334 108.333 146.001 111c2.66699 1.33301 6.33398 2 11.001 2c7.33301 0 13.666 -2.66699 18.999 -8s8 -11.666 8 -18.999v-1c-0.666992 -14 -11.334 -26.333 -32.001 -37c-102 -58 -155.333 -87 -160 -87
c-8.66699 0 -13 4.66699 -13 14zM0 155.999c5.33301 9.33301 13.666 14.998 24.999 16.998c13.333 28 25.833 50.833 37.5 68.5s28.834 36.834 51.501 57.501c12 10.667 30 21.334 54 32.001s46.667 16 68 16c64.667 0 97 -23.667 97 -71
c0 -20.667 -13.667 -41.334 -41 -62.001c-45.333 -34.667 -107.666 -52 -186.999 -52c-22 -47.333 -33 -81.666 -33 -102.999c0 -32 9.66699 -48 29 -48c46 0 89.333 16 130 48c29.333 22.667 61.333 57 96 103l13 -8c-40.667 -52 -74.334 -89 -101.001 -111
c-41.333 -33.333 -87 -50 -137 -50c-34.667 0 -58.167 9.66699 -70.5 29s-18.5 48.666 -18.5 87.999c0 14.667 2 29.334 6 44.001l-5 -6zM111 175.997c39.333 1.33301 76.999 13.666 112.999 36.999c22.667 15.333 37.834 29.833 45.501 43.5s11.5 29.834 11.5 48.501
c0 18 -9.66699 27 -29 27c-45.333 0 -92.333 -52 -141 -156z" />
    <glyph glyph-name="ii_acute" unicode="&#x438;&#x301;" horiz-adv-x="455" 
d="M267 414c0 6 7 14.332 21 24.999c90.667 71.333 139.334 108.333 146.001 111c2.66699 1.33301 6.33398 2 11.001 2c7.33301 0 13.666 -2.66699 18.999 -8s8 -11.666 8 -18.999v-1c-0.666992 -14 -11.334 -26.333 -32.001 -37c-102 -58 -155.333 -87 -160 -87
c-8.66699 0 -13 4.66699 -13 14zM0 155.999l85.001 106.999c9.33301 10.667 35 36.334 77 77.001l88 8c-32 -52 -76.333 -129 -133 -231c-28 -56 -42 -87.667 -42 -95c0 -6.66699 3.66699 -10 11 -10c17.333 0 49 24.667 95 74c52 56.667 114 141.667 186 255l92 7l-80 -137
c-29.333 -51.333 -53.666 -98.333 -72.999 -141c-12.667 -27.333 -19 -44 -19 -50s3.33301 -9 10 -9c22.667 0 52.667 20.333 90 61c19.333 20.667 43.666 50.667 72.999 90l13 -8c-7.33301 -8 -26.666 -32.667 -57.999 -74c-21.333 -26 -40.333 -45.333 -57 -58
c-25.333 -19.333 -51 -29 -77 -29s-39 13.333 -39 40c0 12.667 3.83301 32.167 11.5 58.5s16.167 49.5 25.5 69.5l48 92c-62.667 -92.667 -116.334 -161 -161.001 -205c-36 -36 -68.667 -54 -98 -54c-9.33301 0 -17.833 4.33301 -25.5 13s-11.5 18 -11.5 28
c0 21.333 11 57.5 33 108.5s51 106.5 87 166.5c-32.667 -30 -78.334 -84 -137.001 -162z" />
    <glyph glyph-name="ocyril_acute" unicode="&#x43e;&#x301;" horiz-adv-x="346" 
d="M179 415c0 6 7 14.332 21 24.999c90.667 71.333 139.334 108.333 146.001 111c2.66699 1.33301 6.33398 2 11.001 2c7.33301 0 13.666 -2.66699 18.999 -8s8 -11.666 8 -18.999v-1c-0.666992 -14 -11.334 -26.333 -32.001 -37c-102 -58 -155.333 -87 -160 -87
c-8.66699 0 -13 4.66699 -13 14zM0 155.999c91.333 127.333 167.665 191.002 228.998 191.002c64 0 96 -30.667 96 -92c0 -58.667 -33.667 -122.334 -101 -191.001c2 -2 5.33301 -3 10 -3c24.667 0 63.667 33.667 117 101l14 -8
c-29.333 -36.667 -49.333 -60.334 -60 -71.001c-28 -26 -54.667 -39 -80 -39c-6.66699 0 -13 1 -19 3c-41.333 -36 -79.666 -54 -114.999 -54c-29.333 0 -48.666 9.83301 -57.999 29.5s-14 48.5 -14 86.5c0 19.333 5.33301 42 16 68l-22 -29zM71.999 34.001
c0 -15.333 9.00098 -23.002 27.001 -23.002c29.333 0 59.666 14.667 90.999 44c-3.33301 4.66699 -5 10.334 -5 17.001c0 19.333 10 29 30 29c3.33301 0 6 -0.333008 8 -1c45.333 70.667 68 129.334 68 176.001c0 35.333 -13 53 -39 53c-35.333 0 -75 -40.667 -119 -122
c-40.667 -75.333 -61 -133 -61 -173z" />
    <glyph glyph-name="ucyril_acute" unicode="&#x443;&#x301;" horiz-adv-x="466" 
d="M271 415c0 6 7 14.332 21 24.999c90.667 71.333 139.334 108.333 146.001 111c2.66699 1.33301 6.33398 2 11.001 2c7.33301 0 13.666 -2.66699 18.999 -8s8 -11.666 8 -18.999v-1c-0.666992 -14 -11.334 -26.333 -32.001 -37c-102 -58 -155.333 -87 -160 -87
c-8.66699 0 -13 4.66699 -13 14zM-5 -166.001c0 30.667 27.667 61.3311 83 91.998c22.667 11.333 64.334 29.333 125.001 54l109 222c-42 -58 -73.667 -99.333 -95 -124c-50 -58 -91 -87 -123 -87c-12.667 0 -22.5 4.5 -29.5 13.5s-10.5 18.5 -10.5 28.5
c0 36 11.667 76 35 120s49.666 83.667 78.999 119c23.333 28.667 35 44.334 35 47.001c0 5.33301 -3.33301 8 -10 8c-28.667 0 -88.334 -60.333 -179.001 -181l-14 9c96 128 163 192 201 192c20 0 30 -13.333 30 -40c0 -15.333 -4.33301 -37.5 -13 -66.5
s-18.667 -53.5 -30 -73.5c-15.333 -26 -36.666 -57.667 -63.999 -95c-23.333 -32.667 -35 -51.667 -35 -57s3.66699 -8 11 -8c36 0 107 74.333 213 223c13.333 18.667 34.666 53.667 63.999 105l85 10l-95 -169l-85 -169c1.33301 0.666992 6 2.33398 14 5.00098l21 7
c42.667 17.333 94 64.666 154 141.999l13 -9c-38 -49.333 -72.167 -85.666 -102.5 -108.999s-66.5 -41.666 -108.5 -54.999c-40.667 -76.667 -74.667 -129.834 -102 -159.501s-62.666 -44.5 -105.999 -44.5c-18.667 0 -35 4.5 -49 13.5s-21 21.167 -21 36.5zM26 -174.004
c0 -8 3.5 -14.667 10.5 -20s14.833 -8 23.5 -8c40.667 0 85.667 54.333 135 163c-112.667 -52 -169 -97 -169 -135z" />
    <glyph glyph-name="yeri_acute" unicode="&#x44b;&#x301;" horiz-adv-x="538" 
d="M313 415c0 6 7 14.332 21 24.999c90.667 71.333 139.334 108.333 146.001 111c2.66699 1.33301 6.33398 2 11.001 2c7.33301 0 13.666 -2.66699 18.999 -8s8 -11.666 8 -18.999v-1c-0.666992 -14 -11.334 -26.333 -32.001 -37c-102 -58 -155.333 -87 -160 -87
c-8.66699 0 -13 4.66699 -13 14zM0 155.999l85.0049 107.001c9.33301 10.667 35 36.334 77 77.001l88 8l-87 -150c2 0 4.66699 0.166992 8 0.5s6 0.5 8 0.5c6 0 14 -0.833008 24 -2.5s17.667 -2.5 23 -2.5c21.333 0 44.166 5 68.499 15s44.166 20.333 59.499 31
c17.333 12.667 39.166 32.5 65.499 59.5l41.5 42.5l89 6c-120.667 -194 -181 -303 -181 -327c0 -6 4 -9 12 -9c32.667 0 84.334 47.333 155.001 142l7 9l13 -9l-58 -73c-16.667 -20 -29.334 -34.667 -38.001 -44s-22 -19 -40 -29s-36.333 -15 -55 -15
c-19.333 0 -29 25 -29 75c0 29.333 20.667 79.666 62 150.999l53 92c-2 -1.33301 -9.16699 -8.16602 -21.5 -20.499l-33 -32c-9.66699 -9 -19.834 -17.5 -30.501 -25.5c-38 -28.667 -79 -45.334 -123 -50.001c22 -13.333 33 -34.333 33 -63c0 -36 -14.667 -66.167 -44 -90.5
s-59 -36.5 -89 -36.5c-31.333 0 -52.833 9.83301 -64.5 29.5s-17.5 48.167 -17.5 85.5c0 19.333 4.66699 40.333 14 63c2 11.333 27.333 57.666 76 138.999c-32.667 -30 -78.334 -84 -137.001 -162zM100.005 44c0 -7.33301 4.99902 -14.667 14.999 -22s20.333 -11 31 -11
c23.333 0 43.333 10.167 60 30.5s28.334 49.166 35.001 86.499c0.666992 2.66699 1 6.66699 1 12c0 13.333 -3.66699 23.5 -11 30.5s-17 10.5 -29 10.5h-10c-16 0 -30 -2 -42 -6l-33 -58c-11.333 -19.333 -17 -38.666 -17 -57.999v-15z" />
    <glyph glyph-name="ecyrilrev_acute" unicode="&#x44d;&#x301;" horiz-adv-x="292" 
d="M131 415c0 6 7 14.332 21 24.999c90.667 71.333 139.334 108.333 146.001 111c2.66699 1.33301 6.33398 2 11.001 2c7.33301 0 13.666 -2.66699 18.999 -8s8 -11.666 8 -18.999v-1c-0.666992 -14 -11.334 -26.333 -32.001 -37c-102 -58 -155.333 -87 -160 -87
c-8.66699 0 -13 4.66699 -13 14zM-35 73.999c0 14 4.49902 25.833 13.499 35.5s20.5 14.5 34.5 14.5c12 0 22.667 -4.16699 32 -12.5s14 -18.166 14 -29.499c0 -20 -9.33301 -34 -28 -42c-10 -4 -15 -7.33301 -15 -10c0 -8.66699 8.33301 -13 25 -13
c34.667 0 75 40.667 121 122l8 14c-10.667 -4 -23.667 -6 -39 -6c-7.33301 0 -13.666 1.66699 -18.999 5c-7.33301 5.33301 -12 10.166 -14 14.499s-3 11.5 -3 21.5v3c0 4.66699 0.166992 9.33398 0.5 14.001s0.5 8.33398 0.5 11.001l1 4c0 1.33301 -1 2 -3 2
c-12 0 -31.667 -14 -59 -42l-14 9c36 36 68 54 96 54c14.667 0 23.667 -1.66699 27 -5s5 -11.333 5 -24v-10c0 -5.33301 -0.166992 -10 -0.5 -14s-0.5 -7.33301 -0.5 -10l-1 -4c0 -7.33301 5.33301 -11 16 -11c4.66699 0 9.66699 1.33301 15 4
c32.667 63.333 49 111.333 49 144c0 14.667 -10.333 22 -31 22s-43.667 -4.33301 -69 -13c-15.333 -5.33301 -35.666 -20.666 -60.999 -45.999l-11 14c2 2 12 11 30 27c13.333 10 20.666 15.333 21.999 16c8 5.33301 19 9.33301 33 12c18 6 37.333 9 58 9
c31.333 0 53 -10 65 -30s18 -48.667 18 -86c0 -18.667 -4.66699 -39 -14 -61c-19.333 -44.667 -48.333 -83.334 -87 -116.001c24.667 0 63.667 33.667 117 101l14 -8c-29.333 -36.667 -49.333 -60.334 -60 -71.001c-28 -26 -54.667 -39 -80 -39
c-5.33301 0 -9.33301 0.333008 -12 1c-24 -16.667 -43.167 -28.334 -57.5 -35.001s-30.5 -10 -48.5 -10c-22 0 -42.167 6.66699 -60.5 20s-27.5 31.333 -27.5 54z" />
    <glyph glyph-name="iu_acute" unicode="&#x44e;&#x301;" horiz-adv-x="595" 
d="M301 415c0 6 7 14.332 21 24.999c90.667 71.333 139.334 108.333 146.001 111c2.66699 1.33301 6.33398 2 11.001 2c7.33301 0 13.666 -2.66699 18.999 -8s8 -11.666 8 -18.999v-1c-0.666992 -14 -11.334 -26.333 -32.001 -37c-102 -58 -155.333 -87 -160 -87
c-8.66699 0 -13 4.66699 -13 14zM0 155.999l28.9951 38.5c14.667 19.667 24.334 32.334 29.001 38.001l23 28c10.667 13 20.334 23.5 29.001 31.5s18.334 16.333 29.001 25c24.667 20 47.334 30 68.001 30c12 0 18 -21.333 18 -64c0 -26 -7.33301 -55.667 -22 -89h89
c26.667 52.667 57.167 91.334 91.5 116.001s65.833 37 94.5 37c64 0 96 -30.667 96 -92c0 -58.667 -33.667 -122.334 -101 -191.001c2 -2 5.33301 -3 10 -3c24.667 0 63.667 33.667 117 101l14 -8c-29.333 -36.667 -49.333 -60.334 -60 -71.001c-28 -26 -54.667 -39 -80 -39
c-6.66699 0 -13 1 -19 3c-40.667 -36 -79 -54 -115 -54c-29.333 0 -48.666 9.83301 -57.999 29.5s-14 48.5 -14 86.5c0 22 6 46 18 72h-89c-10 -21.333 -40.667 -79.333 -92 -174l-95 -14c120.667 180 181 288 181 324c0 6 -2.33301 9 -7 9c-24 0 -81 -59.333 -171 -178z
M320.995 33.999c0 -15.333 9.00098 -23.002 27.001 -23.002c29.333 0 59.666 14.667 90.999 44c-3.33301 4.66699 -5 10.334 -5 17.001c0 19.333 10 29 30 29c3.33301 0 6 -0.333008 8 -1c45.333 70.667 68 129.334 68 176.001c0 35.333 -13 53 -39 53
c-35.333 0 -75 -40.667 -119 -122c-40.667 -75.333 -61 -133 -61 -173z" />
    <glyph glyph-name="ia_acute" unicode="&#x44f;&#x301;" horiz-adv-x="428" 
d="M251 415c0 6 7 14.332 21 24.999c90.667 71.333 139.334 108.333 146.001 111c2.66699 1.33301 6.33398 2 11.001 2c7.33301 0 13.666 -2.66699 18.999 -8s8 -11.666 8 -18.999v-1c-0.666992 -14 -11.334 -26.333 -32.001 -37c-102 -58 -155.333 -87 -160 -87
c-8.66699 0 -13 4.66699 -13 14zM-35 73.999c0 14 4.50098 25.833 13.501 35.5s20.5 14.5 34.5 14.5c12 0 22.667 -4.16699 32 -12.5s14 -18.166 14 -29.499c0 -20 -9 -34 -27 -42c-10 -4 -15 -7.33301 -15 -10c0 -8.66699 8 -13 24 -13s29.333 1 40 3
s27.334 10.333 50.001 25s47.667 36 75 64c21.333 22.667 42.333 46.667 63 72l2 4c-38 -39.333 -75.333 -59 -112 -59c-16.667 0 -29.5 5 -38.5 15s-14.167 19.667 -15.5 29s-2 21.333 -2 36c0 14 4.66699 31.833 14 53.5s20.666 38.167 33.999 49.5
c12 10 20.833 17 26.5 21s13.5 7.83301 23.5 11.5s21.667 5.5 35 5.5c55.333 0 84 -19.667 86 -59l26 42l37 7l1 1v-1l45 10c-116 -194 -174 -302.667 -174 -326c0 -6 3.66699 -9 11 -9c25.333 0 56 19.667 92 59c15.333 17.333 39.666 47.666 72.999 90.999l14 -8l-58 -74
c-21.333 -26 -40.333 -45.333 -57 -58c-25.333 -19.333 -51 -29 -77 -29c-22 0 -33 15.667 -33 47c0 10 0.666992 19.167 2 27.5s3.5 17 6.5 26s4.83301 15.5 5.5 19.5c-44 -47.333 -73.667 -76.333 -89 -87c-24 -17.333 -51.333 -26 -82 -26c-28 0 -51.667 6.5 -71 19.5
s-29 31.167 -29 54.5zM142.001 163.999c0 -12.667 9 -19.001 27 -19.001c24.667 0 54.334 18 89.001 54c2 2.66699 4.5 5.33398 7.5 8.00098s5 4.66699 6 6s2.16699 2.66602 3.5 3.99902l3.5 3.5l2.5 2.5c0.666992 0.666992 1.33398 1.83398 2.00098 3.50098
s1.16699 2.83398 1.5 3.50098l2.5 5l3 6c10 20.667 15 35 15 43c0 11.333 -4.16699 21.166 -12.5 29.499s-18.5 12.5 -30.5 12.5c-8.66699 0 -20.334 -5.5 -35.001 -16.5s-27.334 -23.833 -38.001 -38.5c-12.667 -17.333 -23.667 -37 -33 -59s-14 -38 -14 -48z" />
    <glyph glyph-name="Ecyril_Acute" unicode="&#x404;&#x301;" horiz-adv-x="586" 
d="M511 760c0 6.66699 4.66797 12.667 14.001 18l146 78c13.333 6.66699 23 10 29 10c8 0 14.333 -2.5 19 -7.5s7 -11.167 7 -18.5v-2c-0.666992 -12.667 -8.83398 -23 -24.501 -31s-49.167 -20.333 -100.5 -37c-25.333 -8 -45.666 -14.667 -60.999 -20
c-6.66699 -2.66699 -12.334 -4 -17.001 -4c-8 0 -12 4.66699 -12 14zM86.001 192c0 54.667 11.834 108.999 35.501 162.999s53.667 101.333 90 142s75 77 116 109s80 56.333 117 73s67.167 25 90.5 25c49.333 0 88.833 -11.167 118.5 -33.5s44.5 -55.166 44.5 -98.499
c0 -33.333 -10.667 -63.333 -32 -90s-47.333 -40 -78 -40c-20.667 0 -37.334 7.33301 -50.001 22s-19 32.667 -19 54c0 38.667 25.667 73.667 77 105l9 -11c-39.333 -33.333 -59 -69.333 -59 -108c0 -13.333 4.16699 -24.666 12.5 -33.999s18.833 -14 31.5 -14
c25.333 0 47 12.167 65 36.5s27 51.166 27 80.499c0 31.333 -10 57.666 -30 78.999s-45.333 32 -76 32c-24.667 0 -53.5 -5.83301 -86.5 -17.5s-58.833 -26.5 -77.5 -44.5c-56 -55.333 -116.667 -140.333 -182 -255c14.667 8.66699 41.667 20.334 81 35.001
c12 4.66699 29.5 9 52.5 13s39.167 6 48.5 6c12 0 22.667 -4.33301 32 -13s14 -19 14 -31c0 -8.66699 -3 -20.667 -9 -36c-1.33301 -2.66699 -3.16602 -6 -5.49902 -10s-4.5 -7.33301 -6.5 -10l-3 -4c0 -6 4.33301 -9 13 -9c16 0 38.833 5.83301 68.5 17.5
s54.5 27.167 74.5 46.5l11 -9c-22.667 -22 -50.834 -39.333 -84.501 -52s-60.167 -19 -79.5 -19c-14 0 -25.833 4.5 -35.5 13.5s-14.5 20.5 -14.5 34.5c0 9.33301 2 20.666 6 33.999c0.666992 2.66699 2.16699 6 4.5 10s4.5 7.33301 6.5 10l2 5c0 3.33301 -2.33301 5 -7 5
c-13.333 0 -40.666 -6.66699 -81.999 -20s-76 -29.666 -104 -48.999l-9 -17c-29.333 -60 -44 -123 -44 -189c0 -39.333 15 -69.833 45 -91.5s67.667 -32.5 113 -32.5c55.333 0 115.166 14.333 179.499 43s114.5 67 150.5 115l14 -9c-38.667 -50 -90.167 -89.667 -154.5 -119
s-124.833 -44 -181.5 -44c-64 0 -118.333 17.333 -163 52c-51.333 40 -77 89.667 -77 149z" />
    <glyph glyph-name="Icyril_Acute" unicode="&#x406;&#x301;" horiz-adv-x="577" 
d="M511 760c0 6.66699 4.66797 12.667 14.001 18l146 78c13.333 6.66699 23 10 29 10c8 0 14.333 -2.5 19 -7.5s7 -11.167 7 -18.5v-2c-0.666992 -12.667 -8.83398 -23 -24.501 -31s-49.167 -20.333 -100.5 -37c-25.333 -8 -45.666 -14.667 -60.999 -20
c-6.66699 -2.66699 -12.334 -4 -17.001 -4c-8 0 -12 4.66699 -12 14zM-25.999 120c0 26 8.33398 48.1641 25.001 66.4971s37.667 27.5 63 27.5c16.667 0 31 -5.33301 43 -16s18 -24 18 -40c0 -21.333 -9.33301 -36.333 -28 -45l-52 -15c-18.667 -6 -28 -16.333 -28 -31
c0 -19.333 15 -35 45 -47c24 -10 47 -15 69 -15c30 0 62.5 5.83301 97.5 17.5s61.167 27.834 78.5 48.501c12.667 14.667 39.334 59.334 80.001 134.001c-43.333 4 -85.833 22.667 -127.5 56s-62.5 71 -62.5 113c0 35.333 9.66699 68.833 29 100.5
s45.166 59.167 77.499 82.5s65.666 43.333 99.999 60s70.5 31 108.5 43c83.333 26.667 166 40.334 248 41.001v-15c-45.333 0 -82 -18.667 -110 -56c-23.333 -30 -45.333 -76.333 -66 -139c-10 -30.667 -24.667 -81.334 -44 -152.001c-6.66699 -24.667 -19 -59.667 -37 -105
c36.667 16 67.5 38 92.5 66s37.5 61.333 37.5 100c0 12.667 -2 30 -6 52l16 1c4 -23.333 6 -41 6 -53c0 -43.333 -15.167 -81.666 -45.5 -114.999s-66.833 -57 -109.5 -71c-50 -100.667 -124.667 -168.667 -224 -204c-41.333 -14.667 -83.333 -22 -126 -22
c-43.333 0 -81.333 10.667 -114 32c-36 24 -54 57.333 -54 100zM252.002 310.997c0 -22.667 13.8311 -42.168 41.498 -58.501s60.5 -27.833 98.5 -34.5l85 177c8 14.667 19.833 38.334 35.5 71.001s27.334 55.834 35.001 69.501s18.667 31.167 33 52.5s30 39.166 47 53.499
s36.833 27.833 59.5 40.5c-70.667 -10 -127.667 -23.667 -171 -41s-85.666 -45 -126.999 -83c-54 -49.333 -94 -106.333 -120 -171c-11.333 -28 -17 -53.333 -17 -76z" />
    <glyph glyph-name="Yi_Acute" unicode="&#x407;&#x301;" horiz-adv-x="577" 
d="M563 910c0 6.66699 4.66797 12.667 14.001 18l146 78c13.333 6.66699 23 10 29 10c8 0 14.333 -2.5 19 -7.5s7 -11.167 7 -18.5v-2c-0.666992 -12.667 -8.83398 -23 -24.501 -31s-49.167 -20.333 -100.5 -37c-25.333 -8 -45.666 -14.667 -60.999 -20
c-6.66699 -2.66699 -12.334 -4 -17.001 -4c-8 0 -12 4.66699 -12 14zM478.001 796c0 17.333 7.16797 33.001 21.501 47.001s30.166 21 47.499 21c14 0 25.5 -4.83301 34.5 -14.5s13.5 -21.834 13.5 -36.501c0 -19.333 -6.5 -35.5 -19.5 -48.5s-28.833 -19.5 -47.5 -19.5
c-14 0 -25.833 5 -35.5 15s-14.5 22 -14.5 36zM633.002 796.001c0 17.333 7.16797 33 21.501 47s30.166 21 47.499 21c14 0 25.667 -5 35 -15s14 -22 14 -36c0 -18.667 -6.66699 -34.667 -20 -48s-29.333 -20 -48 -20c-14 0 -25.833 5 -35.5 15s-14.5 22 -14.5 36z
M-25.9971 120.001c0 26 8.33398 48.1641 25.001 66.4971s37.667 27.5 63 27.5c16.667 0 31 -5.33301 43 -16s18 -24 18 -40c0 -21.333 -9.33301 -36.333 -28 -45l-52 -15c-18.667 -6 -28 -16.333 -28 -31c0 -19.333 15 -35 45 -47c24 -10 47 -15 69 -15
c30 0 62.5 5.83301 97.5 17.5s61.167 27.834 78.5 48.501c12.667 14.667 39.334 59.334 80.001 134.001c-43.333 4 -85.833 22.667 -127.5 56s-62.5 71 -62.5 113c0 35.333 9.66699 68.833 29 100.5s45.166 59.167 77.499 82.5s65.666 43.333 99.999 60s70.5 31 108.5 43
c83.333 26.667 166 40.334 248 41.001v-15c-45.333 0 -82 -18.667 -110 -56c-23.333 -30 -45.333 -76.333 -66 -139c-10 -30.667 -24.667 -81.334 -44 -152.001c-6.66699 -24.667 -19 -59.667 -37 -105c36.667 16 67.5 38 92.5 66s37.5 61.333 37.5 100
c0 12.667 -2 30 -6 52l16 1c4 -23.333 6 -41 6 -53c0 -43.333 -15.167 -81.666 -45.5 -114.999s-66.833 -57 -109.5 -71c-50 -100.667 -124.667 -168.667 -224 -204c-41.333 -14.667 -83.333 -22 -126 -22c-43.333 0 -81.333 10.667 -114 32c-36 24 -54 57.333 -54 100z
M252.004 310.998c0 -22.667 13.8311 -42.168 41.498 -58.501s60.5 -27.833 98.5 -34.5l85 177c8 14.667 19.833 38.334 35.5 71.001s27.334 55.834 35.001 69.501s18.667 31.167 33 52.5s30 39.166 47 53.499s36.833 27.833 59.5 40.5
c-70.667 -10 -127.667 -23.667 -171 -41s-85.666 -45 -126.999 -83c-54 -49.333 -94 -106.333 -120 -171c-11.333 -28 -17 -53.333 -17 -76z" />
    <glyph glyph-name="Yat_Acute" unicode="&#x462;&#x301;" horiz-adv-x="1052" 
d="M711 760c0 6.66699 4.66797 12.667 14.001 18l146 78c13.333 6.66699 23 10 29 10c8 0 14.333 -2.5 19 -7.5s7 -11.167 7 -18.5v-2c-0.666992 -12.667 -8.83398 -23 -24.501 -31s-49.167 -20.333 -100.5 -37c-25.333 -8 -45.666 -14.667 -60.999 -20
c-6.66699 -2.66699 -12.334 -4 -17.001 -4c-8 0 -12 4.66699 -12 14zM-30.999 118c0 27.333 8.16895 49.999 24.502 67.999s37.833 27 64.5 27c16 0 29.833 -5.16699 41.5 -15.5s17.5 -23.5 17.5 -39.5c0 -20.667 -9.33301 -35.334 -28 -44.001l-52 -15
c-18.667 -6 -28 -16.667 -28 -32c0 -20.667 16.333 -36.334 49 -47.001c26 -8.66699 51 -13 75 -13c47.333 0 87.333 16.333 120 49c28.667 28.667 63 87.334 103 176.001c56.667 124 120 229 190 315c-58 -49.333 -108.667 -86.333 -152 -111
c-23.333 -12.667 -42.666 -19 -57.999 -19c-12 0 -22.667 4.33301 -32 13s-14 19 -14 31c0 20 10.333 44.333 31 73c21.333 29.333 32 44.333 32 45c0 6 -4.33301 9 -13 9c-41.333 0 -107 -57 -197 -171l-13 9c96.667 118.667 170 178 220 178c14 0 25.833 -4.5 35.5 -13.5
s14.5 -20.5 14.5 -34.5c0 -22.667 -9.66699 -47.667 -29 -75s-29 -41.333 -29 -42c0 -3.33301 2.33301 -5 7 -5c18 0 60.667 25.667 128 77c74 56 134 110 180 162l12 -9c-17.333 -20 -30.666 -37.667 -39.999 -53c14.667 7.33301 29 11 43 11s25.833 -4.5 35.5 -13.5
s14.5 -20.5 14.5 -34.5c0 -9.33301 -2 -20.666 -6 -33.999c-0.666992 -2.66699 -2.16699 -6 -4.5 -10s-4.16602 -7.33301 -5.49902 -10l-3 -5c0 -4.66699 2.33301 -6.33398 7 -5.00098c22.667 5.33301 55 25.833 97 61.5s77 69.5 105 101.5l12 -9
c-45.333 -51.333 -81.333 -120.666 -108 -207.999l-67 -217c-6 -21.333 -12.333 -52.166 -19 -92.499s-10 -66.5 -10 -78.5c0 -42.667 22 -64 66 -64c103.333 0 188.666 73.333 255.999 220c12 26.667 18 57.667 18 93c0 34.667 -16 52 -48 52
c-16.667 0 -35.667 -6.5 -57 -19.5s-40.333 -29.833 -57 -50.5c-11.333 -14 -20.5 -29 -27.5 -45s-11.667 -29 -14 -39s-5.83301 -27 -10.5 -51c-4 -22 -7.33301 -44 -10 -66h-15c3.33301 46.667 9.16602 85.334 17.499 116.001s23.5 62.334 45.5 95.001
c15.333 23.333 35.166 41.666 59.499 54.999s47.166 20 68.499 20c24.667 0 43.667 -9.5 57 -28.5s20 -42.833 20 -71.5c0 -42.667 -16.333 -86.667 -49 -132c-36 -50 -76.833 -89.667 -122.5 -119s-89.167 -44 -130.5 -44c-87.333 0 -131 49 -131 147
c0 57.333 14 128.833 42 214.5s62.333 151.167 103 196.5c-5.33301 -3.33301 -12.5 -9 -21.5 -17s-17.167 -14 -24.5 -18c-24 -12.667 -43.333 -19 -58 -19c-12 0 -22.667 4.33301 -32 13s-14 19 -14 31c0 8.66699 3 20.667 9 36c1.33301 2.66699 3.16602 6 5.49902 10
s4.5 7.33301 6.5 10l3 4c0 6 -4.33301 9 -13 9c-12 0 -27.333 -5.66699 -46 -17c-2.66699 -4.66699 -18.5 -28 -47.5 -70s-46.5 -73 -52.5 -93l-62 -187c-15.333 -37.333 -31.333 -69.5 -48 -96.5s-37 -52.5 -61 -76.5s-53 -42.333 -87 -55s-72.333 -19 -115 -19
c-50 0 -91.5 10.667 -124.5 32s-49.5 52.666 -49.5 93.999z" />
    <glyph glyph-name="ecyril_acute" unicode="&#x454;&#x301;" horiz-adv-x="323" 
d="M181 415c0 6 7 14.332 21 24.999c90.667 71.333 139.334 108.333 146.001 111c2.66699 1.33301 6.33398 2 11.001 2c7.33301 0 13.666 -2.66699 18.999 -8s8 -11.666 8 -18.999v-1c-0.666992 -14 -11.334 -26.333 -32.001 -37c-102 -58 -155.333 -87 -160 -87
c-8.66699 0 -13 4.66699 -13 14zM0 155.999c46.667 65.333 88.168 113.501 124.501 144.501s72.166 46.5 107.499 46.5c28 0 51.833 -6.5 71.5 -19.5s29.5 -31.167 29.5 -54.5c0 -14 -4.5 -25.833 -13.5 -35.5s-20.5 -14.5 -34.5 -14.5c-12 0 -22.667 4 -32 12
s-14 18 -14 30c0 20 9 34 27 42c10 4 15 7 15 9c0 9.33301 -8 14 -24 14c-34 0 -73.667 -39 -119 -117c7.33301 2.66699 19 4 35 4c7.33301 0 13.666 -1.66699 18.999 -5c7.33301 -5.33301 12 -10.166 14 -14.499s3 -11.5 3 -21.5v-3
c0 -4.66699 -0.166992 -9.33398 -0.5 -14.001s-0.5 -8.33398 -0.5 -11.001l-1 -4c0 -1.33301 1 -2 3 -2c12 0 31.667 14 59 42l14 -9c-36 -36 -68 -54 -96 -54c-14.667 0 -23.667 1.66699 -27 5s-5 11.333 -5 24v10c0 5.33301 0.166992 10 0.5 14s0.5 7.33301 0.5 10l1 4
c0 7.33301 -5.33301 11 -16 11c-4.66699 0 -9 -1 -13 -3c-20.667 -37.333 -35.167 -65.833 -43.5 -85.5s-12.5 -38.5 -12.5 -56.5c0 -16 2.33301 -27.167 7 -33.5s12.334 -9.5 23.001 -9.5c45.333 0 88.333 16 129 48c28 22 60.333 56.333 97 103l12 -8
c-44 -56.667 -77.667 -94 -101 -112c-41.333 -32.667 -88 -49 -140 -49c-31.333 0 -52.833 9.83301 -64.5 29.5s-17.5 48.167 -17.5 85.5c0 19.333 4.66699 40.333 14 63l-17 -23z" />
    <glyph glyph-name="icyril_acute" unicode="&#x456;&#x301;" horiz-adv-x="238" 
d="M0 157c58 76 112 137.667 162 185l88 6c-120.667 -194 -181 -303 -181 -327c0 -6 4 -9 12 -9c32.667 0 84.334 47.333 155.001 142l7 9l13 -9l-58 -73c-16.667 -20 -29.334 -34.667 -38.001 -44s-22 -19 -40 -29s-36.333 -15 -55 -15c-31.333 0 -47 13.333 -47 40
c0 31.333 26.667 93.333 80 186l53 92c-39.333 -37.333 -85 -91.333 -137 -162zM181 415c0 6 7 14.332 21 24.999c90.667 71.333 139.334 108.333 146.001 111c2.66699 1.33301 6.33398 2 11.001 2c7.33301 0 13.666 -2.66699 18.999 -8s8 -11.666 8 -18.999v-1
c-0.666992 -14 -11.334 -26.333 -32.001 -37c-102 -58 -155.333 -87 -160 -87c-8.66699 0 -13 4.66699 -13 14z" />
    <glyph glyph-name="yi_acute" unicode="&#x457;&#x301;" horiz-adv-x="238" 
d="M238 609c0 6 7 14.332 21 24.999c90.667 71.333 139.334 108.333 146.001 111c2.66699 1.33301 6.33398 2 11.001 2c7.33301 0 13.666 -2.66699 18.999 -8s8 -11.666 8 -18.999v-1c-0.666992 -14 -11.334 -26.333 -32.001 -37c-102 -58 -155.333 -87 -160 -87
c-8.66699 0 -13 4.66699 -13 14zM136 494.999c0 17.333 7.16797 33.001 21.501 47.001s30.166 21 47.499 21c14 0 25.5 -4.83301 34.5 -14.5s13.5 -21.834 13.5 -36.501c0 -19.333 -6.5 -35.5 -19.5 -48.5s-28.833 -19.5 -47.5 -19.5c-14 0 -25.833 5 -35.5 15
s-14.5 22 -14.5 36zM291.001 495c0 17.333 7.16797 33 21.501 47s30.166 21 47.499 21c14 0 25.667 -5 35 -15s14 -22 14 -36c0 -18.667 -6.66699 -34.667 -20 -48s-29.333 -20 -48 -20c-14 0 -25.833 5 -35.5 15s-14.5 22 -14.5 36zM0.00195312 157
c58 76 112 137.667 162 185l88 6c-120.667 -194 -181 -303 -181 -327c0 -6 4 -9 12 -9c32.667 0 84.334 47.333 155.001 142l7 9l13 -9l-58 -73c-16.667 -20 -29.334 -34.667 -38.001 -44s-22 -19 -40 -29s-36.333 -15 -55 -15c-31.333 0 -47 13.333 -47 40
c0 31.333 26.667 93.333 80 186l53 92c-39.333 -37.333 -85 -91.333 -137 -162z" />
    <glyph glyph-name="yat_acute" unicode="&#x463;&#x301;" horiz-adv-x="526" 
d="M283 415c0 6 7 14.332 21 24.999c90.667 71.333 139.334 108.333 146.001 111c2.66699 1.33301 6.33398 2 11.001 2c7.33301 0 13.666 -2.66699 18.999 -8s8 -11.666 8 -18.999v-1c-0.666992 -14 -11.334 -26.333 -32.001 -37c-102 -58 -155.333 -87 -160 -87
c-8.66699 0 -13 4.66699 -13 14zM0 155.999l28.9951 38.502c14.667 19.667 24.334 32.334 29.001 38.001l23 28c10.667 13 20.334 23.5 29.001 31.5s18.334 16.333 29.001 25c24.667 20 47.334 30 68.001 30c12 0 18 -21.333 18 -64c0 -26 -8 -57 -24 -93
c-2 -5.33301 -17.333 -34 -46 -86l136 187c8.66699 11.333 22 23.5 40 36.5s33.667 19.5 47 19.5s23.833 -5.33301 31.5 -16s11.5 -23.334 11.5 -38.001c0 -10.667 -10 -42.334 -30 -95.001c2 0 4.66699 0.166992 8 0.5s6 0.5 8 0.5c30.667 0 54.5 -6.83301 71.5 -20.5
s25.5 -33.5 25.5 -59.5c0 -36 -14.667 -66 -44 -90s-59 -36 -89 -36c-29.333 0 -51.666 10.667 -66.999 32s-23 39.666 -23 54.999c0 28.667 7.33301 59 22 91c4.66699 10.667 8.5 18.667 11.5 24s5.83301 9.5 8.5 12.5s8 10.833 16 23.5l30 49c8.66699 13.333 13 25 13 35
c0 7.33301 -3.66699 11 -11 11c-21.333 0 -45.833 -16.667 -73.5 -50s-74.5 -98 -140.5 -194l-52 -75l-95 -14c120.667 180 181 288 181 324c0 6 -2.33301 9 -7 9c-24 0 -81 -59.333 -171 -178zM327.995 44.001c0 -7.33301 4.99902 -14.667 14.999 -22s20.333 -11 31 -11
c23.333 0 43.333 10.167 60 30.5s28.334 49.166 35.001 86.499c0.666992 2.66699 1 6.66699 1 12c0 13.333 -3.66699 23.5 -11 30.5s-17 10.5 -29 10.5h-10c-16 0 -30 -2 -42 -6l-33 -58c-11.333 -19.333 -17 -38.666 -17 -57.999v-15z" />
    <glyph glyph-name=".notdef" horiz-adv-x="364" 
d="M33 0v666h265v-666h-265zM66 33h199v600h-199v-600z" />
    <glyph glyph-name="space" unicode=" " horiz-adv-x="358" 
 />
    <glyph glyph-name="exclam" unicode="!" horiz-adv-x="227" 
d="M74 41c0 18 7.33301 33.333 22 46s30 19 46 19c12 0 21.833 -4 29.5 -12s11.5 -17.667 11.5 -29c0 -17.333 -7 -32.5 -21 -45.5s-29.333 -19.5 -46 -19.5c-12 -0 -22 3.83301 -30 11.5s-12 17.5 -12 29.5zM159 200c0 5.33301 0.333008 9.00098 1 11.001l98 441
c9.33301 42.667 32.333 64 69 64c11.333 0 21 -3.5 29 -10.5s12 -16.167 12 -27.5c0 -10.667 -2.66699 -21.334 -8 -32.001l-167 -439c-4.66699 -13.333 -11.667 -20 -21 -20c-8.66699 0 -13 4.33301 -13 13z" />
    <glyph glyph-name="quotedbl" unicode="&#x22;" 
d="M232 352c0 3.33301 10.8301 56.668 32.4971 160.001s33.834 157.666 36.501 162.999c10.667 20 26.334 30 47.001 30c8 0 15.333 -2.5 22 -7.5s10 -12.833 10 -23.5c0 -4.66699 -10.333 -33.667 -31 -87l-61.5 -156.5c-20.333 -51 -30.833 -76.833 -31.5 -77.5
c-3.33301 -10 -8 -15 -14 -15c-7.33301 0 -10.666 4.66699 -9.99902 14zM387.997 353.002c0 3.33301 10.667 56.667 32 160s33.333 157.333 36 162c8.66699 20 24 30 46 30c21.333 0 32 -10.667 32 -32c0 -7.33301 -15 -48.333 -45 -123l-76 -193
c-4 -12.667 -9.33301 -19 -16 -19s-9.66699 5 -9 15z" />
    <glyph glyph-name="numbersign" unicode="#" horiz-adv-x="738" 
d="M84 152c0 8 8.33105 12.0029 24.998 12.0029h165l95 172h-200c-17.333 0 -26 3.33301 -26 10c0 8 8 12 24 12h215c6 12 36.333 67.333 91 166s83.667 150.334 87 155.001c2.66699 8.66699 7.33398 13 14.001 13c11.333 0 13 -7.66699 5 -23l-172 -311h194
c5.33301 10.667 35.166 65.167 89.499 163.5s83.5 150.833 87.5 157.5c4 8.66699 9 13 15 13c10.667 0 12 -7.66699 4 -23l-171 -311h154c14.667 0 22 -3.33301 22 -10c0 -8 -8 -12 -24 -12h-165l-95 -172h201h9c2 0 4.5 -0.333008 7.5 -1s5.16699 -1.83398 6.5 -3.50098
s2 -3.83398 2 -6.50098c-0.666992 -7.33301 -9 -11 -25 -11h-215l-164 -299c-1.33301 -2 -3 -5 -5 -9s-3.83301 -7.33301 -5.5 -10s-3.5 -5.33398 -5.5 -8.00098s-4 -4.66699 -6 -6s-4 -2 -6 -2c-5.33301 0 -8 2.66699 -8 8c0 4.66699 2 11.167 6 19.5
s9.5 18.666 16.5 30.999l13.5 23.5l139 252h-193l-164 -299c-1.33301 -2 -3.16602 -5.16699 -5.49902 -9.5s-4.16602 -7.5 -5.49902 -9.5l-5 -7.5c-2 -3 -4 -5.16699 -6 -6.5s-4 -2 -6 -2c-6 0 -9 2.66699 -9 8c0.666992 6 12.667 30.667 36 74l140 252h-155
c-14.667 0 -22 3.33301 -22 10zM299.998 164.003h193l95 172h-194z" />
    <glyph glyph-name="dollar" unicode="$" 
d="M79 113c0 30 4.99805 55.668 14.998 77.001s25.667 32 47 32c8.66699 0 16.167 -2.66699 22.5 -8s9.5 -12.333 9.5 -21c0 -12.667 -5.16699 -24.167 -15.5 -34.5s-23.5 -15.5 -39.5 -15.5h-6v-16c0 -0.666992 -0.166992 -2 -0.5 -4s-0.5 -3.66699 -0.5 -5
c0 -58.667 31.333 -91.334 94 -98.001l92 304c-42 12 -71.333 29.333 -88 52c-17.333 21.333 -26 48.666 -26 81.999c0 56 21.667 109.333 65 160s98 79.667 164 87c0.666992 2.66699 1.5 5.66699 2.5 9s1.83301 6 2.5 8s1.5 4.33301 2.5 7s1.83301 4.66699 2.5 6
s1.33398 3 2.00098 5s1.5 3.33301 2.5 4s2 1.5 3 2.5s2.33301 1.66699 4 2s3.16699 0.5 4.5 0.5c9.33301 0 14 -4 14 -12c0 -3.33301 -3 -14 -9 -32c36.667 -3.33301 65.667 -15 87 -35s32 -47.667 32 -83c0 -0.666992 -0.166992 -2 -0.5 -4s-0.5 -3.66699 -0.5 -5
c-3.33301 -61.333 -23 -92 -59 -92c-9.33301 0 -17 2.66699 -23 8s-9 12.666 -9 21.999c0 12 4.83301 23.167 14.5 33.5s22.834 15.5 39.501 15.5h6v14c0 57.333 -32 89 -96 95l-83 -276c13.333 -4 23.5 -7.5 30.5 -10.5s18 -9.5 33 -19.5s26.5 -24.167 34.5 -42.5
s12 -40.166 12 -65.499c0 -63.333 -23 -122.333 -69 -177s-101.333 -86 -166 -94c-6.66699 -25.333 -12.667 -39.333 -18 -42c-2 -1.33301 -4.66699 -2 -8 -2c-8.66699 0 -13 4 -13 12c0 4 2.66699 15 8 33c-37.333 2.66699 -66 14.834 -86 36.501s-30 50.5 -30 86.5z
M236.998 21.001c44 7.33301 82.668 30.833 116.001 70.5s50 82.167 50 127.5c0 51.333 -25 83 -75 95c-0.666992 0.666992 -1.33398 1 -2.00098 1zM240.999 499.001c0 -18 3.33301 -33.333 10 -46s15.667 -22.167 27 -28.5s19.833 -10.5 25.5 -12.5s11.5 -3.66699 17.5 -5
l81 266c-47.333 -8 -86 -29.5 -116 -64.5s-45 -71.5 -45 -109.5z" />
    <glyph glyph-name="percent" unicode="%" horiz-adv-x="738" 
d="M103 -36c0 2.66699 0.333984 4.83203 1.00098 6.49902s2 3.83398 4 6.50098s4.16699 5.33398 6.5 8.00098l11.5 13l16 18l582 635c-44 -20 -85.667 -30 -125 -30c-50 0 -93 14 -129 42c0.666992 -6 1 -15 1 -27c0 -40 -9 -82.333 -27 -127s-42.333 -82.834 -73 -114.501
s-62.334 -47.5 -95.001 -47.5c-26 0 -47 11.167 -63 33.5s-24 51.5 -24 87.5c0 68 22.333 132 67 192s90.334 90 137.001 90c14.667 0 26.5 -3 35.5 -9s18.167 -15.333 27.5 -28s17 -21.667 23 -27c31.333 -28.667 71.333 -43 120 -43h1c34 0 68.167 7.5 102.5 22.5
s63.5 34.167 87.5 57.5c0.666992 0.666992 2.83398 3 6.50098 7s6.66699 7.16699 9 9.5s5.16602 4.5 8.49902 6.5s6.66602 3 9.99902 3c4.66699 0 8.83398 -1.66699 12.501 -5s5.5 -7.66602 5.5 -12.999c0 -6.66699 -23.667 -35.334 -71 -86.001l-96 -105l-528 -578
c-10.667 -10.667 -19.334 -16 -26.001 -16c-12 0 -18 6 -18 18zM239.001 438.998c0 -46 13.6689 -69 41.002 -69c22 0 45.667 14 71 42s46.666 63.5 63.999 106.5s26 83.833 26 122.5c0 26 -4.33301 46.833 -13 62.5s-20.667 23.5 -36 23.5
c-24.667 0 -49.334 -17.833 -74.001 -53.5s-44 -75.667 -58 -120s-21 -82.5 -21 -114.5zM476.003 64.998c0 64.667 21.8311 127.833 65.498 189.5s89.834 92.5 138.501 92.5c24 0 43 -10 57 -30s21 -47 21 -81c0 -44 -9.66699 -88.667 -29 -134
s-44.166 -82.833 -74.499 -112.5s-60.5 -44.5 -90.5 -44.5c-22.667 0 -43 9.5 -61 28.5s-27 49.5 -27 91.5zM525.001 36.9971c0 -46.667 14.333 -70.001 43 -70.001c33.333 0 68.333 30.333 105 91s55 120.667 55 180c0 26.667 -4.33301 47.667 -13 63s-20.667 23 -36 23
c-25.333 0 -50.5 -18.333 -75.5 -55s-44.333 -77.167 -58 -121.5s-20.5 -81.166 -20.5 -110.499z" />
    <glyph glyph-name="ampersand" unicode="&#x26;" horiz-adv-x="686" 
d="M94 166c0 36.667 10.168 75.1738 30.501 115.507s46.166 75.833 77.499 106.5c-5.33301 13.333 -8 31.666 -8 54.999c0 66 24.167 128 72.5 186s99.833 87 154.5 87c30 0 54 -9.83301 72 -29.5s27 -45.167 27 -76.5c0 -30.667 -6 -53 -18 -67s-25.333 -21 -40 -21
c-9.33301 0 -16.833 2.83301 -22.5 8.5s-8.5 12.834 -8.5 21.501c0 12.667 5 24.167 15 34.5s22.667 15.5 38 15.5h6v2c0 33.333 -7.33301 56.666 -22 69.999s-31 20 -49 20c-30 0 -60.333 -18.667 -91 -56c-22.667 -28.667 -40.667 -64.5 -54 -107.5
s-21.333 -77.5 -24 -103.5c36.667 22.667 70 34 100 34h1c18 0 32.333 -5.16699 43 -15.5s16 -23.833 16 -40.5c0 -24.667 -10 -46.834 -30 -66.501s-43.667 -29.5 -71 -29.5c-28.667 0 -55 10.667 -79 32c-40.667 -74 -61 -139 -61 -195
c0 -47.333 16.167 -83.333 48.5 -108s74.166 -37 125.499 -37c48 0 91.833 8 131.5 24s71.334 35.667 95.001 59s43.834 49.666 60.501 78.999s28.334 56 35.001 80s10.667 46 12 66c0 1.33301 0.166992 3.5 0.5 6.5s0.5 5.16699 0.5 6.5c0 40 -15.333 82 -46 126
c-54.667 -33.333 -88.667 -56.333 -102 -69c-21.333 -20.667 -32.666 -43.334 -33.999 -68.001c0 -10 0.333008 -17.667 1 -23h1c10.667 20.667 26 31 46 31c8.66699 0 16 -2.66699 22 -8s9 -12.333 9 -21c0 -12 -5 -23 -15 -33s-22 -15 -36 -15
c-17.333 0 -31.5 6.16699 -42.5 18.5s-16.5 27.833 -16.5 46.5c0 17.333 3.66699 33.666 11 48.999s18 29.333 32 42s27.333 23.334 40 32.001s28.5 18.667 47.5 30s32.833 20 41.5 26c48 32.667 85.333 76 112 130c-21.333 2 -32 12 -32 30
c0 13.333 5.16699 24.666 15.5 33.999s21.166 14 32.499 14c8.66699 0 16.167 -2.83301 22.5 -8.5s9.5 -12.834 9.5 -21.501c0 -21.333 -13.333 -52.5 -40 -93.5s-59.334 -75.833 -98.001 -104.5c34 -44 51 -91.333 51 -142c0 -1.33301 -0.166992 -3.5 -0.5 -6.5
s-0.5 -5.16699 -0.5 -6.5c-1.33301 -23.333 -6 -48.333 -14 -75s-21.333 -55.667 -40 -87s-41.334 -59.333 -68.001 -84s-61.5 -45.334 -104.5 -62.001s-90.833 -25 -143.5 -25c-71.333 0 -130 17.333 -176 52s-69 80 -69 136zM258.001 376.007
c0 -9.33301 5.33203 -19 15.999 -29s23 -15 37 -15c18.667 0 34.834 8 48.501 24s20.5 33 20.5 51c0 20.667 -10.333 31 -31 31c-19.333 0 -39.333 -8.33301 -60 -25s-31 -29 -31 -37z" />
    <glyph glyph-name="quotesingle" unicode="'" horiz-adv-x="227" 
d="M208 353c0 2.66699 10.667 55.668 32 159.001s33.333 157.666 36 162.999c10 20 25.333 30 46 30c22 0 33 -10.333 33 -31c0 -8 -16 -51.667 -48 -131l-74 -186c-4 -12.667 -9.33301 -19 -16 -19s-9.66699 5 -9 15z" />
    <glyph glyph-name="parenleft" unicode="(" horiz-adv-x="329" 
d="M113 17v28.999c4 75.333 19.667 154.333 47 237s69.166 166 125.499 250s121.833 152.333 196.5 205c10 6.66699 17 10 21 10c6.66699 0 10 -2.33301 10 -7c0 -4 -6.5 -11.667 -19.5 -23s-30.667 -28.166 -53 -50.499s-46 -49.5 -71 -81.5s-51.833 -76.167 -80.5 -132.5
s-54 -118.833 -76 -187.5c-34.667 -108 -52 -204 -52 -288c0 -21.333 1.16699 -42 3.5 -62s5.33301 -36.667 9 -50s7.83398 -26.5 12.501 -39.5s8.66699 -22.667 12 -29s7 -12.833 11 -19.5l6 -10c2 -4.66699 2 -8.5 0 -11.5s-5 -4.5 -9 -4.5c-7.33301 0 -18 10 -32 30
s-27.667 51.667 -41 95s-20 90 -20 140z" />
    <glyph glyph-name="parenright" unicode=")" horiz-adv-x="329" 
d="M-35 -240c0 4.66699 4.5 10.502 13.5 17.502s24.5 20.833 46.5 41.5s44.667 45.667 68 75c74.667 94 134 213 178 357c31.333 106 47 196.333 47 271c0 62.667 -11 119 -33 169l-12 24c-7.33301 11.333 -11 19.666 -11 24.999s3.33301 8 10 8c4 0 9 -3 15 -9
c25.333 -29.333 44.833 -66.833 58.5 -112.5s20.5 -92.5 20.5 -140.5c0 -70 -12 -146 -36 -228c-30.667 -104.667 -75 -200.334 -133 -287.001s-126 -157 -204 -211c-6.66699 -5.33301 -12.667 -8 -18 -8c-6.66699 0 -10 2.66699 -10 8z" />
    <glyph glyph-name="asterisk" unicode="*" 
d="M178 435c0 4 0.833008 7.66797 2.5 11.001s4 6.33301 7 9s5.66699 4.66699 8 6l8.5 5l6 3l145 66l-45 28c-36 22 -57.667 35.833 -65 41.5s-11 11.5 -11 17.5c0 8 3.66699 15.167 11 21.5s14.666 9.5 21.999 9.5c2 0 4 -0.333008 6 -1s4.33301 -2.16699 7 -4.5
s5.5 -4.66602 8.5 -6.99902s7.16699 -6.33301 12.5 -12l16.5 -17l23.5 -24l30 -30.5l15 70c10.667 53.333 18.834 87 24.501 101s15.5 21 29.5 21c4.66699 0 9.16699 -1.5 13.5 -4.5s6.16602 -7.83301 5.49902 -14.5c0 -4.66699 -2.5 -13.5 -7.5 -26.5l-24.5 -62
c-11.333 -28.333 -22 -56.5 -32 -84.5c96 60.667 146.667 92 152 94c3.33301 1.33301 6.33301 2 9 2c12 0 18 -6 18 -18c0 -13.333 -10.667 -24.666 -32 -33.999l-144 -66c72.667 -46 111 -71.333 115 -76c2.66699 -2.66699 4 -6 4 -10
c0 -8.66699 -3.5 -16.334 -10.5 -23.001s-14.167 -10 -21.5 -10c-2 0 -4 0.333008 -6 1s-4.33301 2.16699 -7 4.5s-5.5 4.66602 -8.5 6.99902s-7.16699 6.5 -12.5 12.5s-10.833 11.833 -16.5 17.5l-23.5 24l-30 30.5l-12 -54.5c-4 -17.667 -7 -31.667 -9 -42
s-4.16699 -20.5 -6.5 -30.5s-4 -17.5 -5 -22.5s-2.16699 -9.66699 -3.5 -14s-2.33301 -7.5 -3 -9.5s-1.66699 -3.66699 -3 -5c-7.33301 -10 -16.333 -15 -27 -15c-4.66699 0 -9.16699 1.5 -13.5 4.5s-6.16602 7.83301 -5.49902 14.5c0 5.33301 2.5 14.166 7.5 26.499
l25 62.5l32.5 85c-99.333 -62 -150 -93.667 -152 -95c-3.33301 -1.33301 -6.33301 -2 -9 -2c-5.33301 0 -9.83301 1.83301 -13.5 5.5s-5.5 8.16699 -5.5 13.5z" />
    <glyph glyph-name="plus" unicode="+" horiz-adv-x="686" 
d="M114 249c0 8.66699 8.00195 13.002 24.002 13.002c1.33301 0 3.5 -0.166992 6.5 -0.5s4.83301 -0.5 5.5 -0.5h261c52.667 178 80.667 271.667 84 281c3.33301 8 7.66602 12 12.999 12c6.66699 0 10 -3.66699 10 -11c0 -2.66699 -0.5 -5.83398 -1.5 -9.50098
s-2.16699 -7.16699 -3.5 -10.5s-2 -5.33301 -2 -6l-77 -256h255c1.33301 0 3.33301 0.166992 6 0.5s4.66699 0.5 6 0.5c14.667 0 22 -3.66699 22 -11c0 -8 -11.333 -12 -34 -12h-262l-79 -261c-6.66699 -21.333 -13 -32 -19 -32s-9 4 -9 12c0 3.33301 5 21.166 15 53.499
l36.5 118.5c14.333 46.667 25.166 83 32.499 109h-255c-1.33301 0 -3.5 -0.166992 -6.5 -0.5s-5.5 -0.5 -7.5 -0.5c-14 0 -21 3.66699 -21 11z" />
    <glyph glyph-name="comma" unicode="," horiz-adv-x="227" 
d="M23 -183c0 3.33301 5.33594 10.167 16.0029 20.5l37 35.5c14 13.333 29 32.833 45 58.5s28 53.5 36 83.5c-15.333 -10 -29 -15 -41 -15c-12.667 0 -22.834 3.66699 -30.501 11s-11.5 16.666 -11.5 27.999c0 16.667 6.83301 32 20.5 46s29.5 21 47.5 21
c11.333 0 21.333 -4 30 -12s13 -21.667 13 -41c0 -35.333 -11.333 -73.166 -34 -113.499s-45.834 -72.333 -69.501 -96s-39.834 -35.5 -48.501 -35.5c-6.66699 0 -10 3 -10 9z" />
    <glyph glyph-name="hyphen" unicode="-" horiz-adv-x="278" 
d="M57 200c0 4.66699 1.66699 12.167 5 22.5s8 16.5 14 18.5c2.66699 1.33301 7 2 13 2h199c14 0 21 -4.33301 21 -13c0 -4 -1.33301 -11 -4 -21s-6.66699 -16.333 -12 -19c-3.33301 -2 -8.33301 -3 -15 -3h-200c-14 0 -21 4.33301 -21 13z" />
    <glyph glyph-name="period" unicode="." horiz-adv-x="227" 
d="M74 40c0 16 7 31 21 45s29.667 21 47 21c12 0 21.667 -4 29 -12s11 -17.667 11 -29c0 -16 -7 -30.833 -21 -44.5s-29.333 -20.5 -46 -20.5c-12 0 -21.833 3.66699 -29.5 11s-11.5 17 -11.5 29z" />
    <glyph glyph-name="slash" unicode="/" 
d="M-34 -239c0 4.66699 3.33301 12.002 10 22.002l591 917l8.5 14l8.5 14c2 3.33301 4.33301 6.66602 7 9.99902s5.16699 5.83301 7.5 7.5s4.5 2.5 6.5 2.5c6.66699 0 10 -3.33301 10 -10c0 -2.66699 -2.66699 -8.33398 -8 -17.001l-591 -917
c-18 -26.667 -28.5 -42 -31.5 -46s-6.5 -6 -10.5 -6c-5.33301 0 -8 3 -8 9z" />
    <glyph glyph-name="zero" unicode="0" 
d="M60 90c0 17.333 3 36.667 9 58c38 132.667 124.333 199 259 199c26.667 0 50.167 -2.83301 70.5 -8.5s38.333 -17 54 -34s23.5 -39.167 23.5 -66.5c0 -34 -10 -72.5 -30 -115.5s-48.667 -76.5 -86 -100.5c-42 -26 -92.333 -39 -151 -39
c-42.667 0 -78.167 8.16699 -106.5 24.5s-42.5 43.833 -42.5 82.5zM129 62.001c0 -40.667 28.668 -61 86.001 -61c23.333 0 44 3.83301 62 11.5s32 15.667 42 24s20 22.333 30 42s16.5 33.667 19.5 42s8.5 24.5 16.5 48.5c16 45.333 24 79 24 101
c0 21.333 -8.5 36.5 -25.5 45.5s-37.5 13.5 -61.5 13.5c-28 0 -51.667 -3.83301 -71 -11.5s-35.333 -21 -48 -40s-21.334 -33.667 -26.001 -44s-11 -28.5 -19 -54.5c-1.33301 -3.33301 -2.33301 -6 -3 -8c-17.333 -52.667 -26 -89 -26 -109z" />
    <glyph glyph-name="one" unicode="1" 
d="M78 10c0 9.33301 7.66504 14.0029 22.998 14.0029h5c20 0 35.167 0.5 45.5 1.5l26.5 2.5c7.33301 0.666992 13 3.66699 17 9s6.83301 9.83301 8.5 13.5s4.5 11.167 8.5 22.5l74 227c-36 -6.66699 -68.667 -10 -98 -10c-14 0 -21 3.33301 -21 10
c0 9.33301 10.333 14 31 14h11c29.333 1.33301 54.833 4.66602 76.5 9.99902s37.834 10.166 48.501 14.499s17.334 6.5 20.001 6.5c7.33301 0 11 -3 11 -9c0 -2.66699 -0.833008 -6.5 -2.5 -11.5s-2.5 -7.83301 -2.5 -8.5l-86 -262c-1.33301 -6.66699 -2 -11 -2 -13
c0 -7.33301 4.83301 -12 14.5 -14s30.5 -3 62.5 -3h4c14.667 0 22 -3.66699 22 -11c0 -8.66699 -7 -13 -21 -13c-2.66699 0 -9.5 0.166992 -20.5 0.5s-26.333 0.666016 -46 0.999023s-40.834 0.5 -63.501 0.5c-24 0 -49 -0.166992 -75 -0.5s-40.667 -0.5 -44 -0.5
c-11.333 0 -18.666 0.5 -21.999 1.5s-5 3.5 -5 7.5z" />
    <glyph glyph-name="two" unicode="2" 
d="M44 -7c0 14 13.1689 34.1689 39.502 60.502s60.166 48.166 101.499 65.499c10 4 26.167 9.66699 48.5 17s41.5 14 57.5 20s32.833 14 50.5 24s31.167 22.167 40.5 36.5s14 30.833 14 49.5c0 22.667 -10.167 38.834 -30.5 48.501s-42.5 14.5 -66.5 14.5
c-40 0 -76.333 -12 -109 -36s-49 -48 -49 -72c0 -17.333 9.66699 -26 29 -26c14.667 0 28.167 5 40.5 15s18.5 21.333 18.5 34c0 4.66699 -1.66699 10.334 -5 17.001s-5 11 -5 13c0 5.33301 3.33301 8 10 8c5.33301 0 10.5 -4 15.5 -12s7.5 -16.667 7.5 -26
c0 -18 -9 -33.667 -27 -47s-37.333 -20 -58 -20c-16.667 0 -30.167 4.16699 -40.5 12.5s-15.5 19.166 -15.5 32.499c0 28 18.667 55.833 56 83.5s82.333 41.5 135 41.5c47.333 0 87.333 -9.16699 120 -27.5s49 -41.833 49 -70.5c0 -24.667 -14.5 -46 -43.5 -64
s-79.833 -38 -152.5 -60l-21.5 -7l-21.5 -7l-20 -6.5c-9.33301 -3 -16.333 -5.66699 -21 -8l-18.5 -9c-7.66699 -3.66699 -14.334 -7.33398 -20.001 -11.001s-12 -8.16699 -19 -13.5s-13.833 -11 -20.5 -17c4.66699 0.666992 12 1 22 1c14 0 44.667 -1.66699 92 -5
s78 -5 92 -5c49.333 0 84 12.333 104 37c1.33301 1.33301 3 4 5 8s4.33301 6.83301 7 8.5s6.33398 2.5 11.001 2.5c9.33301 0 14 -3.33301 14 -10c0 -7.33301 -5.33301 -18.5 -16 -33.5s-28.167 -29.833 -52.5 -44.5s-50.833 -22 -79.5 -22c-24.667 0 -57 7.66699 -97 23
s-68 23 -84 23c-6 0 -10.667 -0.333008 -14 -1c-14.667 -2.66699 -26.334 -10.834 -35.001 -24.501s-16.667 -20.5 -24 -20.5c-9.33301 0 -14 3.33301 -14 10z" />
    <glyph glyph-name="three" unicode="3" 
d="M5 -109c0 23.333 5.33887 39.667 16.0059 49s22.667 14 36 14c10 0 18.167 -2.5 24.5 -7.5s9.5 -11.5 9.5 -19.5c0 -8.66699 -4.16699 -17.5 -12.5 -26.5s-21.833 -13.5 -40.5 -13.5h-2c2 -27.333 13 -47.666 33 -60.999s43 -20 69 -20c28.667 0 56.5 7.5 83.5 22.5
s47.833 34.5 62.5 58.5c9.33301 14.667 17.166 33.167 23.499 55.5s9.5 40.5 9.5 54.5c0 44.667 -27 67 -81 67h-28c-11.333 0 -18 2.33301 -20 7c-1.33301 4 -0.833008 8 1.5 12s6.5 6.33301 12.5 7h25h14c31.333 0 58.833 6.16699 82.5 18.5s41.167 28 52.5 47
s19.666 36.833 24.999 53.5s8 31.667 8 45c0 22.667 -7.83301 40.667 -23.5 54s-36.5 20 -62.5 20c-46.667 0 -89.334 -14.833 -128.001 -44.5s-58 -60.5 -58 -92.5c0 -21.333 9 -32 27 -32c14 0 28.167 7 42.5 21s21.5 30.667 21.5 50c0 8 -1.5 15.667 -4.5 23
s-4.5 11.666 -4.5 12.999c0 8 4.33301 11.333 13 10c5.33301 -1.33301 9.66602 -7 12.999 -17s5 -19.333 5 -28c0 -24.667 -9.16699 -46 -27.5 -64s-38.5 -27 -60.5 -27c-16.667 0 -30 4.83301 -40 14.5s-15 22.167 -15 37.5c0 36.667 22 71.667 66 105s94.667 50 152 50
c41.333 0 75.833 -10.167 103.5 -30.5s41.5 -46.833 41.5 -79.5c0 -30 -13.333 -60.667 -40 -92s-66.667 -55.333 -120 -72c23.333 -8.66699 42.333 -22 57 -40s22 -39.333 22 -64c0 -48.667 -25.833 -91 -77.5 -127s-108.834 -54 -171.501 -54
c-40.667 0 -73.334 9.66699 -98.001 29s-37 44 -37 74z" />
    <glyph glyph-name="four" unicode="4" 
d="M4 -18c0 2.66699 0.669922 5.00098 2.00293 7.00098s3.5 3.83301 6.5 5.5s5.83301 3 8.5 4l10.5 4c4.33301 1.66699 7.83301 3.16699 10.5 4.5c22 10.667 44.333 24.167 67 40.5s47.334 37 74.001 62s51.334 55.333 74.001 91s40.667 73.834 54 114.501
c7.33301 20.667 20.333 31 39 31s28 -7.33301 28 -22s-11.333 -42.667 -34 -84c-48.667 -87.333 -128.334 -164 -239.001 -230h18c37.333 0 84.666 -6.33301 141.999 -19l39 130c0 0.666992 1 4 3 10s3.66699 10.5 5 13.5s3.66602 6.83301 6.99902 11.5
s7.5 8.16699 12.5 10.5s10.833 3.5 17.5 3.5c6 0 12 -2 18 -6s9 -10 9 -18c0 -2 -16 -56.667 -48 -164h14c16 0 31.667 0.833008 47 2.5s23.666 2.5 24.999 2.5c11.333 0 17 -4 17 -12c0 -6.66699 -11.5 -11.5 -34.5 -14.5s-41.833 -4.5 -56.5 -4.5
c-8.66699 0 -15.334 0.333008 -20.001 1c0 -0.666992 -2.83301 -10.834 -8.5 -30.501l-18.5 -62.5c-6.66699 -22 -11 -34.667 -13 -38c-7.33301 -13.333 -19 -20 -35 -20c-7.33301 0 -13.666 2.16699 -18.999 6.5s-8 9.83301 -8 16.5c0 2 0.166992 4 0.5 6
s0.833008 4.5 1.5 7.5s2.16699 7.66699 4.5 14s4.66602 13.666 6.99902 21.999s6 20.333 11 36s10.167 32.834 15.5 51.501c-7.33301 1.33301 -17.5 3.33301 -30.5 6s-23.5 4.66699 -31.5 6s-19 2.66602 -33 3.99902s-29 2 -45 2h-1c-36.667 0 -62 -2.33301 -76 -7l-21 -7
c-10.667 0 -16 4 -16 12z" />
    <glyph glyph-name="five" unicode="5" 
d="M17 -99c0 28.667 5.8291 48.165 17.4961 58.498s24.834 15.5 39.501 15.5c10.667 0 19.334 -2.66699 26.001 -8s10 -12.333 10 -21c0 -10.667 -5 -20.334 -15 -29.001s-23 -13 -39 -13h-8c0.666992 -23.333 7 -42.5 19 -57.5s24.667 -24.667 38 -29s27.333 -6.5 42 -6.5
c48 0 89.333 21.333 124 64c17.333 21.333 32.333 51 45 89s19 68.667 19 92c0 20.667 -5.33301 37.834 -16 51.501s-26.667 20.5 -48 20.5c-26 0 -50 -5.16699 -72 -15.5s-39.5 -20.833 -52.5 -31.5s-21.167 -16 -24.5 -16c-8 0 -12 3.66699 -12 11l3 15l71 238
c4 10.667 9 16 15 16c2 0 8.16699 -2 18.5 -6s24.833 -8 43.5 -12s39.334 -6 62.001 -6s44.5 2 65.5 6s37.833 8 50.5 12s20 6 22 6c6.66699 0 10 -2.66699 10 -8c0 -6 -8.66699 -15.167 -26 -27.5s-42.166 -24.166 -74.499 -35.499s-64.5 -17 -96.5 -17
c-28.667 0 -54 3.66699 -76 11l-48 -159c39.333 25.333 80.333 38 123 38c40 0 72.167 -11.833 96.5 -35.5s36.5 -54.5 36.5 -92.5c0 -61.333 -27 -115.166 -81 -161.499s-113.333 -69.5 -178 -69.5c-39.333 0 -70.833 10.5 -94.5 31.5s-35.5 48.167 -35.5 81.5z" />
    <glyph glyph-name="six" unicode="6" 
d="M87 138c0 78.667 19.667 163.336 59 254.003c34 76.667 81 141.667 141 195s119.667 80 179 80c28 0 50.333 -6.5 67 -19.5s25 -31.167 25 -54.5c0 -24 -5.83301 -41.833 -17.5 -53.5s-24.167 -17.5 -37.5 -17.5c-9.33301 0 -17 2.83301 -23 8.5s-9 12.834 -9 21.501
c0 10.667 4.33301 21.5 13 32.5s22.667 16.833 42 17.5c-2 4.66699 -3.5 8 -4.5 10s-3.66699 6 -8 12s-10.833 10.333 -19.5 13s-19 4 -31 4c-11.333 0 -23.5 -1.83301 -36.5 -5.5s-29.5 -11.834 -49.5 -24.501s-39 -29.334 -57 -50.001s-37 -50 -57 -88
s-37.333 -82.333 -52 -133c40 57.333 86 86 138 86c32.667 0 59.5 -9.33301 80.5 -28s34.667 -38.334 41 -59.001s9.5 -41.334 9.5 -62.001c0 -47.333 -14.333 -97 -43 -149c-22 -37.333 -53.333 -71.666 -94 -102.999s-84 -47 -130 -47c-14.667 0 -28.5 2.16699 -41.5 6.5
s-26.333 12 -40 23s-24.5 27.667 -32.5 50s-12 49.166 -12 80.499zM151 89.002c0 -24 5.16699 -43.834 15.5 -59.501s26.833 -23.5 49.5 -23.5c33.333 0 65 15.667 95 47c30 32 54 79.333 72 142s27 106.334 27 131.001c0 51.333 -22 77 -66 77
c-31.333 0 -61.333 -13.5 -90 -40.5s-51.667 -65.167 -69 -114.5c-22.667 -64 -34 -117 -34 -159z" />
    <glyph glyph-name="seven" unicode="7" 
d="M58 171c0 2.66699 28.334 54.001 85.001 154.001c0.666992 0.666992 1.66699 2.33398 3 5.00098s2.33301 4.33398 3 5.00098s1.66699 2 3 4s2.66602 3.33301 3.99902 4s3 1.33398 5 2.00098s4 1 6 1c8.66699 0 13 -2.66699 13 -8c0 -3.33301 -7.33301 -18.333 -22 -45
c50 36 96 54 138 54c16.667 0 29 -4.5 37 -13.5s12.333 -19.167 13 -30.5s3.66699 -21.5 9 -30.5s13.666 -13.5 24.999 -13.5c32 0 69.667 24 113 72c8.66699 10 16.667 15 24 15c8.66699 0 13 -2.66699 13 -8c0 -2.66699 -5.5 -10.834 -16.5 -24.501
s-25.833 -33.834 -44.5 -60.501s-39 -58 -61 -94s-45.833 -83.167 -71.5 -141.5s-48.834 -120.833 -69.501 -187.5c-8.66699 -28 -26 -42 -52 -42c-9.33301 0 -17.5 2.5 -24.5 7.5s-10.5 11.167 -10.5 18.5c0 14 10.667 46 32 96c45.333 106.667 117 220 215 340
c-19.333 -6.66699 -35.666 -10 -48.999 -10c-18.667 0 -35.667 8 -51 24s-30.666 24 -45.999 24h-4c-37.333 -2.66699 -72.5 -14.334 -105.5 -35.001s-58.833 -45.334 -77.5 -74.001c-8 -11.333 -15.667 -17 -23 -17c-8.66699 0 -13 3 -13 9z" />
    <glyph glyph-name="eight" unicode="8" 
d="M62 106c0 46.667 18.499 90.8359 55.499 132.503s85.167 74.834 144.5 99.501c-1.33301 1.33301 -5.66602 5.16602 -12.999 11.499s-12.666 11.166 -15.999 14.499s-8 8.66602 -14 15.999s-10.5 14.166 -13.5 20.499s-5.83301 14.333 -8.5 24s-4 19.834 -4 30.501
c0 52.667 22.667 101 68 145s96.333 66 153 66c37.333 0 68 -10.167 92 -30.5s36 -47.166 36 -80.499c0 -38.667 -15.333 -75 -46 -109s-71 -62.667 -121 -86c2.66699 -2.66699 9.16699 -8.33398 19.5 -17.001s17.5 -14.834 21.5 -18.501s9.66699 -10 17 -19
s12.666 -17.167 15.999 -24.5s6.5 -16.5 9.5 -27.5s4.5 -22.5 4.5 -34.5c0 -60.667 -26 -116 -78 -166s-110.333 -75 -175 -75c-43.333 0 -78.833 11.667 -106.5 35s-41.5 54.333 -41.5 93zM111.999 105.002c0 -29.333 9.33398 -53.168 28.001 -71.501
s43.334 -27.5 74.001 -27.5c45.333 0 88 16.667 128 50s60 72.333 60 117c0 7.33301 -0.833008 14.333 -2.5 21s-3.33398 12.167 -5.00098 16.5s-4.33398 9 -8.00098 14s-6.5 8.5 -8.5 10.5s-5 4.83301 -9 8.5s-6.33301 5.83398 -7 6.50098l-81 71
c-47.333 -22.667 -87.333 -53.667 -120 -93s-49 -80.333 -49 -123zM250 503c0 -8.66699 1.16992 -16.498 3.50293 -23.498s7.16602 -14.667 14.499 -23s14 -15.166 20 -20.499l31 -27l37 -32c37.333 17.333 70.166 42.666 98.499 75.999s42.5 68 42.5 104
c0 25.333 -7.83301 45.666 -23.5 60.999s-36.834 23 -63.501 23c-38 0 -74.167 -13.833 -108.5 -41.5s-51.5 -59.834 -51.5 -96.501z" />
    <glyph glyph-name="nine" unicode="9" 
d="M15 -146c0 18 5.33789 31.1689 16.0049 39.502s22.334 12.5 35.001 12.5c22.667 0 34 -8.66699 34 -26c0 -4 -1.16699 -8.66699 -3.5 -14s-7.5 -11 -15.5 -17s-18.333 -9.33301 -31 -10c12.667 -18.667 37.667 -28 75 -28c14 0 29.167 2.83301 45.5 8.5
s35.666 16 57.999 31s44.166 40 65.499 75s39 77.5 53 127.5c-38 -47.333 -83 -71 -135 -71c-45.333 0 -79.833 13.5 -103.5 40.5s-35.5 56.167 -35.5 87.5c0 60 26.167 114.5 78.5 163.5s111.166 73.5 176.499 73.5c15.333 0 29.833 -2 43.5 -6s27.667 -10.833 42 -20.5
s25.666 -24.834 33.999 -45.501s12.5 -45.667 12.5 -75c0 -26.667 -4.5 -58.334 -13.5 -95.001s-20.167 -69.334 -33.5 -98.001c-29.333 -62 -70.833 -114 -124.5 -156s-108.834 -63 -165.501 -63c-30.667 0 -56.334 5.33301 -77.001 16s-31 27.334 -31 50.001z
M147.005 73.002c0 -25.333 6.83301 -43.665 20.5 -54.998s30.5 -17 50.5 -17c29.333 0 56 9.5 80 28.5s42.5 42.5 55.5 70.5s23 55.5 30 82.5s10.5 50.5 10.5 70.5c0 19.333 -5.5 36.166 -16.5 50.499s-27.833 21.5 -50.5 21.5c-88 0 -146.667 -73.333 -176 -220
c-2.66699 -8.66699 -4 -19.334 -4 -32.001z" />
    <glyph glyph-name="colon" unicode=":" horiz-adv-x="227" 
d="M74 40c0 16 7 31 21 45s29.667 21 47 21c12 0 21.667 -4 29 -12s11 -17.667 11 -29c0 -16 -7 -30.833 -21 -44.5s-29.333 -20.5 -46 -20.5c-12 0 -21.833 3.66699 -29.5 11s-11.5 17 -11.5 29zM172 365c0 16 7 31 21 45s29.667 21 47 21c12 0 21.667 -4 29 -12
s11 -17.667 11 -29c0 -16 -7 -30.833 -21 -44.5s-29.333 -20.5 -46 -20.5c-12 0 -21.833 3.66699 -29.5 11s-11.5 17 -11.5 29z" />
    <glyph glyph-name="semicolon" unicode=";" horiz-adv-x="227" 
d="M-17 -183c0 3.33301 5.33594 10.167 16.0029 20.5l37 35.5c14 13.333 29 32.833 45 58.5s28 53.5 36 83.5c-15.333 -10 -29 -15 -41 -15c-12.667 0 -22.834 3.66699 -30.501 11s-11.5 16.666 -11.5 27.999c0 16.667 6.83301 32 20.5 46s29.5 21 47.5 21
c11.333 0 21.333 -4 30 -12s13 -21.667 13 -41c0 -35.333 -11.333 -73.166 -34 -113.499s-45.834 -72.333 -69.501 -96s-39.834 -35.5 -48.501 -35.5c-6.66699 0 -10 3 -10 9zM133.003 365.001c0 16 7 31 21 45s29.667 21 47 21c12 0 21.667 -4 29 -12s11 -17.667 11 -29
c0 -16 -7 -30.833 -21 -44.5s-29.333 -20.5 -46 -20.5c-12 0 -21.833 3.66699 -29.5 11s-11.5 17 -11.5 29z" />
    <glyph glyph-name="less" unicode="&#x3c;" horiz-adv-x="686" 
d="M139 249c0 6 9.66895 13.3311 29.002 21.998l584 253c7.33301 3.33301 12.666 5 15.999 5c6.66699 0 10 -3.33301 10 -10c0 -2 -0.5 -3.66699 -1.5 -5s-2.5 -2.66602 -4.5 -3.99902s-4 -2.5 -6 -3.5s-4.5 -2.16699 -7.5 -3.5s-5.5 -2.66602 -7.5 -3.99902l-516 -223
l-61 -27v-1c3.33301 -1.33301 8 -4 14 -8s10.667 -6.66699 14 -8l399 -235c9.33301 -5.33301 14 -11 14 -17s-3.66699 -9 -11 -9c-2.66699 0 -6.33398 1.33301 -11.001 4l-7 4l-422 248c-16.667 10 -25 17.333 -25 22z" />
    <glyph glyph-name="equal" unicode="=" horiz-adv-x="686" 
d="M84 152c0 8 8.66797 11.999 26.001 11.999h558c10 0 16.333 -0.666992 19 -2c3.33301 -1.33301 5.33301 -3.66602 6 -6.99902s-0.333008 -6.33301 -3 -9s-11.334 -4 -26.001 -4h-559c-14 0 -21 3.33301 -21 10zM143.001 345.999c0 8 7 12 21 12h569
c12 0 18 -3.33301 18 -10c0 -8 -8.33301 -12 -25 -12h-534c-2 0 -5.5 -0.166992 -10.5 -0.5s-8.83301 -0.5 -11.5 -0.5h-3c-16 0 -24 3.66699 -24 11z" />
    <glyph glyph-name="greater" unicode="&#x3e;" horiz-adv-x="686" 
d="M58 -20c0 2 0.499023 3.83203 1.49902 5.49902s2.5 3.16699 4.5 4.5s3.83301 2.5 5.5 3.5s4.16699 2.33301 7.5 4s6 2.83398 8 3.50098l577 250v1c-14.667 8 -36.667 20.667 -66 38l-361 212c-9.33301 6 -14 12 -14 18s3.66699 9 11 9c1.33301 0 6 -2 14 -6l426 -250
c16.667 -10 25 -17.333 25 -22c0 -2 -0.666992 -4 -2 -6s-3.16602 -3.83301 -5.49902 -5.5s-4.5 -3 -6.5 -4s-4.66699 -2.16699 -8 -3.5s-5.66602 -2.33301 -6.99902 -3l-571 -247c-16.667 -7.33301 -26.334 -11 -29.001 -11c-6.66699 0 -10 3 -10 9z" />
    <glyph glyph-name="question" unicode="?" 
d="M177 40c0 18 7.16699 33.5 21.5 46.5s29.833 19.5 46.5 19.5c12 0 21.667 -4 29 -12s11 -17.667 11 -29c0 -17.333 -7 -32.5 -21 -45.5s-29.333 -19.5 -46 -19.5c-12 0 -21.833 3.66699 -29.5 11s-11.5 17 -11.5 29zM178 461c0 14.667 6.5 35.4961 19.5 62.4961
s30 55.167 51 84.5s47.833 54.666 80.5 75.999s66 32 100 32c34.667 0 62.167 -10.667 82.5 -32s30.5 -49 30.5 -83c0 -56.667 -24 -107.667 -72 -153c-9.33301 -9.33301 -42.333 -35.666 -99 -78.999s-87.667 -67.666 -93 -72.999c-15.333 -18 -23 -36.667 -23 -56
c0 -20 8.33301 -30 25 -30c11.333 0 24.5 5 39.5 15s27.5 25.333 37.5 46c4 14 11 21 21 21c8.66699 0 13 -3.66699 13 -11c0 -16 -11.833 -35.667 -35.5 -59s-50.167 -35 -79.5 -35c-17.333 0 -31.166 6 -41.499 18s-15.5 27.333 -15.5 46c0 15.333 2.16699 29.5 6.5 42.5
s11 24.833 20 35.5s16.5 19 22.5 25s14.667 13 26 21l16 12l60.5 45.5c26.333 19.667 45.333 34.334 57 44.001s25.167 22.334 40.5 38.001s25.833 31.167 31.5 46.5s8.5 32.333 8.5 51c0 24 -7.5 43.667 -22.5 59s-34.833 23 -59.5 23c-38 0 -75.333 -17 -112 -51
s-66.334 -78 -89.001 -132c23.333 -0.666992 35 -10.667 35 -30c0 -14 -5.33301 -25.833 -16 -35.5s-22 -14.5 -34 -14.5c-8.66699 0 -16.167 2.83301 -22.5 8.5s-9.5 12.834 -9.5 21.501z" />
    <glyph glyph-name="at" unicode="@" horiz-adv-x="766" 
d="M163 230l-0.00585938 18c2.66699 56 17.334 112 44.001 168s59.834 105.167 99.501 147.5s85 76.666 136 102.999s101.5 39.5 151.5 39.5c66 0 119 -22.5 159 -67.5s60 -102.833 60 -173.5c0 -40 -7.66699 -85.167 -23 -135.5s-30.666 -90.166 -45.999 -119.499
c-29.333 -55.333 -66 -83 -110 -83c-16.667 0 -32.667 4.83301 -48 14.5s-23.333 26.834 -24 51.501c-48 -43.333 -94.333 -65 -139 -65c-39.333 0 -70.833 13.667 -94.5 41s-35.5 62.666 -35.5 105.999c0 72.667 27.667 139.5 83 200.5s113.333 91.5 174 91.5
c30.667 0 54.834 -8.5 72.501 -25.5s29.834 -36.833 36.501 -59.5h21c18.667 0 28 -4 28 -12c0 -1.33301 -0.5 -3.33301 -1.5 -6s-1.5 -5 -1.5 -7l-75 -247c-4.66699 -20 -7 -32.333 -7 -37c0 -14.667 6 -22 18 -22c20 0 39.333 12.833 58 38.5s33.667 56.334 45 92.001
s20.5 70.334 27.5 104.001s10.5 60.5 10.5 80.5c0 64.667 -17.333 117 -52 157s-80.667 60 -138 60c-60 0 -120.333 -21 -181 -63s-111.167 -97 -151.5 -165s-62.166 -137.667 -65.499 -209c0 -2 -0.166992 -4.83301 -0.5 -8.5s-0.5 -6.5 -0.5 -8.5
c0 -62.667 17 -114.667 51 -156s82 -62 144 -62c47.333 0 92.333 5.66699 135 17s77.667 22.666 105 33.999s46 17 56 17c16.667 0 25 -3 25 -9c0 -8.66699 -31.667 -23.334 -95 -44.001c-76.667 -24.667 -152.667 -37 -228 -37c-70.667 0 -125.5 22.833 -164.5 68.5
s-58.5 103.167 -58.5 172.5zM353.994 259c0 -30 5.83301 -55.665 17.5 -76.998s29.834 -32 54.501 -32c31.333 0 62 12.833 92 38.5s49.667 47.5 59 65.5c2 3.33301 12.167 35.166 30.5 95.499s27.5 93.166 27.5 98.499c0 20 -6.83301 41 -20.5 63s-35.167 33 -64.5 33
c-28.667 0 -58.334 -14.333 -89.001 -43s-56.167 -65.5 -76.5 -110.5s-30.5 -88.833 -30.5 -131.5z" />
    <glyph glyph-name="A" unicode="A" horiz-adv-x="859" 
d="M-30 117c0 25.333 8.33301 46.834 25 64.501s37.667 26.5 63 26.5c15.333 0 29 -5.16699 41 -15.5s18 -22.833 18 -37.5c0 -20.667 -9 -35.334 -27 -44.001c-11.333 -4 -28.333 -9.33301 -51 -16c-18 -7.33301 -27 -18 -27 -32c0 -17.333 10.833 -31.166 32.5 -41.499
s44.167 -15.5 67.5 -15.5c83.333 0 170 50.667 260 152c-35.333 50.667 -53 97.667 -53 141c0 31.333 8.5 56.833 25.5 76.5s40.167 29.5 69.5 29.5c46.667 0 85.667 -21.667 117 -65c82.667 94 153.667 166.333 213 217c89.333 74.667 176.666 123.334 261.999 146.001
c-31.333 -42.667 -55.666 -78.334 -72.999 -107.001c-33.333 -54 -76 -142 -128 -264c-53.333 -123.333 -101 -221.333 -143 -294c84 8 151.333 49.667 202 125l12 -8c-59.333 -82.667 -134 -127.334 -224 -134.001l-12 -21c-5.33301 -0 -36 -1.66699 -92 -5
c14 24 22.667 40.333 26 49c-100.667 34 -164.667 68 -192 102c-92.667 -102.667 -182.667 -154 -270 -154c-39.333 0 -72.833 11.833 -100.5 35.5s-41.5 53.5 -41.5 89.5zM356 245.001c0 -22 9.00098 -47 27.001 -75l137 158c-18 20 -39.667 30 -65 30
c-26.667 0 -49.834 -11.667 -69.501 -35s-29.5 -49.333 -29.5 -78zM392.001 158.001c23.333 -28.667 85.333 -62 186 -100c14.667 46 22 89.333 22 130c0 15.333 -4 30.5 -12 45.5s-18.833 30.667 -32.5 47s-22.167 27.5 -25.5 33.5zM541.001 327.001
c3.33301 -5.33301 12.5 -17.834 27.5 -37.501s26.667 -37.667 35 -54s12.5 -32.833 12.5 -49.5c0 -24.667 -2.33301 -50 -7 -76l118 188l78 130c3.33301 5.33301 21 37.833 53 97.5s65 108.834 99 147.501c-76 -32 -152 -82 -228 -150c-41.333 -36.667 -104 -102 -188 -196z
" />
    <glyph glyph-name="B" unicode="B" horiz-adv-x="845" 
d="M17 125c0 26.667 7.99902 48.6621 23.999 65.9951s37 26 63 26c16.667 0 31.167 -5.16699 43.5 -15.5s18.5 -23.166 18.5 -38.499c0 -20 -9.33301 -35 -28 -45c-8.66699 -2.66699 -17.334 -5.66699 -26.001 -9l-26 -10c-18 -6.66699 -27 -16 -27 -28
c0 -18.667 13.167 -34 39.5 -46s52.833 -18 79.5 -18c51.333 0 96 21.667 134 65c23.333 26 49.666 70 78.999 132l63 132c49.333 102 102 179.667 158 233c38.667 36.667 84 68.667 136 96c-38 14 -83 21 -135 21c-80 0 -157 -13.333 -231 -40
c-82 -29.333 -146.667 -71.666 -194 -126.999c-34 -40 -51 -79.667 -51 -119c0 -21.333 6.66699 -39.333 20 -54s30.333 -22 51 -22c24 0 52.333 10.333 85 31c38.667 26 71.334 60.5 98.001 103.5s42 90.5 46 142.5l13 3c4.66699 -28 7 -52.333 7 -73
c0 -67.333 -19.833 -122.5 -59.5 -165.5s-90.5 -64.5 -152.5 -64.5c-36 0 -65.5 8.5 -88.5 25.5s-34.5 41.5 -34.5 73.5c0 41.333 18 83.666 54 126.999c44.667 52.667 106 94.834 184 126.501s163.333 47.5 256 47.5c55.333 0 108.333 -7.33301 159 -22c18 8 42 16 72 24
l4 -15c-23.333 -6 -42 -12 -56 -18c65.333 -29.333 98 -70.666 98 -123.999c0 -40.667 -21.667 -78.667 -65 -114c-22.667 -18 -62.667 -41.333 -120 -70c82 -33.333 123 -81.666 123 -144.999c0 -54.667 -27.333 -106 -82 -154c-52.667 -46.667 -107.334 -70 -164.001 -70
c-21.333 0 -39.166 6.33301 -53.499 19s-21.5 29 -21.5 49c0 58 35 106 105 144l8 -14c-25.333 -13.333 -47.833 -31.833 -67.5 -55.5s-29.5 -48.834 -29.5 -75.501c0 -13.333 4.33301 -25 13 -35s19 -15 31 -15c16.667 0 38.834 7.5 66.501 22.5s49.5 34.5 65.5 58.5
c42 64 63 125.667 63 185c0 4.66699 -0.833008 9.33398 -2.5 14.001s-4.5 9.33398 -8.5 14.001s-7.66699 8.66699 -11 12s-8.16602 7.16602 -14.499 11.499l-14 9.5c-3 2 -8 5.16699 -15 9.5s-11.167 6.83301 -12.5 7.5c-27.333 -10 -49.666 -15 -66.999 -15
c-13.333 0 -20 5 -20 15c0 14.667 13 22 39 22c15.333 0 31 -2.33301 47 -7c64.667 24 105.334 53.333 122.001 88c20.667 41.333 31 81.333 31 120c0 6 -1.5 12.167 -4.5 18.5s-6.16699 11.666 -9.5 15.999s-8.33301 9.16602 -15 14.499s-11.834 9.33301 -15.501 12
s-9.33398 6.33398 -17.001 11.001s-12.167 7.33398 -13.5 8.00098c-88.667 -49.333 -142.667 -92.333 -162 -129c-13.333 -24.667 -30 -73 -50 -145l-20 -72c-13.333 -47.333 -28.5 -88.666 -45.5 -123.999s-38.667 -68.5 -65 -99.5s-58.833 -54.667 -97.5 -71
s-82.667 -24.5 -132 -24.5c-50.667 0 -92.5 11.5 -125.5 34.5s-49.5 55.833 -49.5 98.5z" />
    <glyph glyph-name="C" unicode="C" horiz-adv-x="747" 
d="M144 505c0 39.333 14.002 75.333 42.002 108c51.333 61.333 128.333 92 231 92c22.667 0 49 -2 79 -6l-2 -15c-16.667 2.66699 -38 4 -64 4c-54 0 -102 -17.667 -144 -53c-61.333 -51.333 -92 -107.666 -92 -168.999s42.333 -100 127 -116c46 68.667 104 134 174 196
s140.333 107.667 211 137c38 15.333 68 23 90 23c24 0 43.833 -8.33301 59.5 -25s23.5 -37 23.5 -61c0 -57.333 -39 -113.666 -117 -168.999c-60 -42.667 -127 -74.334 -201 -95.001c-48 -13.333 -96.333 -20.333 -145 -21c-26.667 -52.667 -44.334 -91 -53.001 -115
c-17.333 -44.667 -26 -85.667 -26 -123c0 -28.667 14 -51 42 -67s60 -24 96 -24c44 0 85 12.167 123 36.5s66.333 53.833 85 88.5c14 26 21 51.667 21 77c0 20.667 -6 38.5 -18 53.5s-27.333 22.5 -46 22.5c-26.667 0 -52.667 -13.667 -78 -41
c-28.667 -30.667 -47 -78.667 -55 -144h-14c-6.66699 26 -10 48.333 -10 67c0 37.333 14.167 69.333 42.5 96s61.5 40 99.5 40c27.333 0 50.166 -8.83301 68.499 -26.5s27.5 -39.834 27.5 -66.501c0 -50.667 -23.333 -98.667 -70 -144c-49.333 -48.667 -108 -73 -176 -73
c-56 0 -103.667 17.667 -143 53c-41.333 36.667 -62 82.667 -62 138c0 46 14.667 97 44 153c-48 8 -88.333 26.833 -121 56.5s-49 67.167 -49 112.5zM425.002 351c41.333 0.666992 81.667 6.66699 121 18c97.333 28 178.666 84.333 243.999 169
c36 46.667 54 83.334 54 110.001c0 12 -4.66699 22 -14 30s-20.666 12 -33.999 12c-42.667 0 -98.5 -29.833 -167.5 -89.5s-136.833 -142.834 -203.5 -249.501z" />
    <glyph glyph-name="D" unicode="D" horiz-adv-x="836" 
d="M132 59c0 33.333 31.667 49.998 95 49.998c50.667 0 110.667 -13.333 180 -40c23.333 25.333 46.333 61.666 69 108.999l62 126c63.333 128.667 134 227 212 295c-32 30 -63.667 51.667 -95 65c-32.667 13.333 -70.334 20 -113.001 20c-127.333 0 -224 -57 -290 -171
c-34 -57.333 -51 -112 -51 -164c0 -64.667 31.667 -97 95 -97c64 0 118 33.667 162 101c39.333 59.333 59 123 59 191c0 10.667 -1 25.667 -3 45h16c2 -19.333 3 -33.666 3 -42.999c0 -72 -21 -139.667 -63 -203c-46.667 -70.667 -104.667 -106 -174 -106
c-46 0 -84 15.833 -114 47.5s-45 70.834 -45 117.501c0 76 44.333 145.333 133 208c82 58.667 172.667 88 272 88c88 0 161.667 -29.333 221 -88c26.667 22.667 56.334 40.667 89.001 54l6 -14c-35.333 -14.667 -62 -32.334 -80 -53.001
c28 -35.333 47.667 -65.666 59 -90.999c13.333 -29.333 20 -64.666 20 -105.999c0 -65.333 -13.667 -132.333 -41 -201c-55.333 -137.333 -144 -206 -266 -206c-38 0 -79.667 9.66699 -125 29c-60 -19.333 -110.333 -29 -151 -29c-35.333 0 -67.833 5.5 -97.5 16.5
s-44.5 27.5 -44.5 49.5zM148 58.998c0 -16.667 12.832 -29.333 38.499 -38s52.834 -13 81.501 -13c38.667 0 74.667 11.333 108 34c-81.333 34 -140.333 51 -177 51c-34 0 -51 -11.333 -51 -34zM468.999 43.999c46 -21.333 83 -32.002 111 -32.002
c37.333 0 76.666 15.333 117.999 46c42 30.667 76 77.334 102 140.001c23.333 56.667 35 114 35 172c0 81.333 -23 152 -69 212c-3.33301 -4.66699 -12.333 -14.334 -27 -29.001s-28.167 -30 -40.5 -46s-21.166 -32 -26.499 -48l-50 -139l-21 -62
c-9.33301 -27.333 -17.333 -49.666 -24 -66.999s-13.667 -33 -21 -47c-21.333 -41.333 -50.333 -74.666 -87 -99.999z" />
    <glyph glyph-name="E" unicode="E" horiz-adv-x="586" 
d="M86 192c0 42 14.1729 79.666 42.5059 112.999s62.166 58.833 101.499 76.5s82.666 30.5 129.999 38.5c-39.333 35.333 -59 74.333 -59 117c0 51.333 23.5 92 70.5 122s101.5 45 163.5 45c49.333 0 88.833 -11.167 118.5 -33.5s44.5 -55.166 44.5 -98.499
c0 -33.333 -10.667 -63.333 -32 -90s-47.333 -40 -78 -40c-20.667 0 -37.334 7.33301 -50.001 22s-19 32.667 -19 54c0 38.667 25.667 73.667 77 105l9 -11c-39.333 -33.333 -59 -69.333 -59 -108c0 -13.333 4.16699 -24.666 12.5 -33.999s18.833 -14 31.5 -14
c25.333 0 47 12.167 65 36.5s27 51.166 27 80.499c0 31.333 -10 57.666 -30 78.999s-45.333 32 -76 32c-26 0 -55.5 -5.66699 -88.5 -17s-58.167 -26.333 -75.5 -45c-32.667 -36 -49 -76 -49 -120c0 -6.66699 1.16699 -13.167 3.5 -19.5s5.66602 -12.5 9.99902 -18.5l11 -15
c3 -4 7.16699 -8.5 12.5 -13.5s8.66602 -8.16699 9.99902 -9.5h26c22.667 0 45.5 -3.5 68.5 -10.5s34.5 -16.833 34.5 -29.5c0 -16 -13 -24 -39 -24c-32 0 -69.667 12.667 -113 38c-90 -29.333 -148.667 -64.666 -176 -105.999c-34 -50.667 -51 -105.667 -51 -165
c0 -38.667 16.5 -68.834 49.5 -90.501s72.5 -32.5 118.5 -32.5c54 0 100.167 14 138.5 42s64.5 64.667 78.5 110c5.33301 18 8 32 8 42c0 20.667 -5.83301 37.834 -17.5 51.501s-27.167 20.5 -46.5 20.5c-26 0 -50.333 -12 -73 -36
c-38.667 -39.333 -58.334 -90.333 -59.001 -153h-15c-8 20 -12 40 -12 60c0 41.333 14.167 76.333 42.5 105s62.833 43 103.5 43c26.667 0 49 -8.33301 67 -25s27 -38 27 -64c0 -49.333 -19.333 -94.333 -58 -135c-48 -50.667 -110 -76 -186 -76
c-64 0 -118.333 17.333 -163 52c-51.333 40 -77 89.667 -77 149zM426.006 408.999c22.667 -21.333 45 -32 67 -32c12.667 0 19 4 19 12c0 6 -7.33301 11.167 -22 15.5s-27.667 6.5 -39 6.5c-4.66699 0 -13 -0.666992 -25 -2z" />
    <glyph glyph-name="F" unicode="F" horiz-adv-x="689" 
d="M57 121c0 25.333 8.49805 47.1719 25.498 65.5049s37.833 27.5 62.5 27.5c16 0 30.5 -5.5 43.5 -16.5s19.5 -23.5 19.5 -37.5c0 -18.667 -9.33301 -33.334 -28 -44.001c-11.333 -4.66699 -28.333 -11 -51 -19c-18 -7.33301 -27 -18 -27 -32c0 -12.667 9.33301 -25 28 -37
c21.333 -14.667 49 -22 83 -22c28.667 0 60.334 5.83301 95.001 17.5s60.667 27.167 78 46.5c21.333 25.333 47 69 77 131l34 71c-37.333 -5.33301 -75.833 -15.333 -115.5 -30s-70.834 -33.334 -93.501 -56.001l-11 11c29.333 28 57.666 49 84.999 63
c20 10 67.333 19.667 142 29l27.5 58c13.667 28.667 22.834 47.334 27.501 56.001l24 45c11.333 21.333 20.333 36.5 27 45.5l26 34.5c10.667 14 21.334 25.5 32.001 34.5s22.334 17.5 35.001 25.5l11 -10c-6.66699 -5.33301 -14 -13.333 -22 -24
s-14.667 -18.334 -20 -23.001c-42.667 -40 -70 -84 -82 -132l-27 -103c56.667 6 88.667 10.333 96 13c12 31.333 21.333 53 28 65c15.333 26 32 39 50 39c17.333 0 26 -8.66699 26 -26c0 -16 -7.33301 -31.333 -22 -46c-4.66699 -4.66699 -18.667 -15.667 -42 -33
c-0.666992 -53.333 -10.667 -95.666 -30 -126.999c-27.333 -4.66699 -54.333 -10.334 -81 -17.001c25.333 40 46.666 82.333 63.999 127c-1.33301 -0.666992 -32.666 -4.33398 -93.999 -11.001c-14.667 -58.667 -36.667 -107.334 -66 -146.001
c-39.333 -52.667 -77.666 -89.834 -114.999 -111.501s-86 -32.5 -146 -32.5c-58.667 0 -103.334 14.333 -134.001 43c-26.667 24.667 -40 54 -40 88zM167.998 400.006c0 66.667 34.3369 129.667 103.004 189c88 76 192 114 312 114c31.333 0 62 -2.66699 92 -8
c87.333 -16.667 143.333 -25 168 -25c28 0 53 10 75 30l12 -9c-41.333 -62 -87.333 -93 -138 -93c-31.333 0 -77.333 12.667 -138 38s-108.334 38 -143.001 38c-51.333 0 -102.333 -14.167 -153 -42.5s-91.334 -61.5 -122.001 -99.5c-34 -42 -51 -85.667 -51 -131
c0 -23.333 7.33301 -43.333 22 -60s33 -25 55 -25c37.333 0 78 33 122 99c34 51.333 51 96.666 51 135.999c0 18.667 -4.66699 39.334 -14 62.001l15 4c22.667 -50 34 -95.333 34 -136c0 -51.333 -19 -94.333 -57 -129c-38.667 -35.333 -83.334 -53 -134.001 -53
c-32.667 0 -59.334 9.16699 -80.001 27.5s-31 42.833 -31 73.5zM701.002 329.006c30 22 45 41 45 57c0 7.33301 -4 11 -12 11c-15.333 0 -26.333 -22.667 -33 -68z" />
    <glyph glyph-name="G" unicode="G" horiz-adv-x="712" 
d="M129 465c0 40 13.166 76.4951 39.499 109.495s57.5 58.833 93.5 77.5s75.333 33 118 43l3 -13c-52.667 -12 -95.667 -38 -129 -78c-48.667 -57.333 -73 -117.666 -73 -180.999c0 -38.667 14 -69.167 42 -91.5s63 -33.5 105 -33.5c8 0 18 0.666992 30 2
c-17.333 28.667 -26 62 -26 100c0 76 33 142.667 99 200c74.667 64.667 155 97 241 97c26.667 0 48.667 -7.5 66 -22.5s26 -34.833 26 -59.5c0 -48 -26.667 -100 -80 -156c-63.333 -67.333 -130.666 -115.333 -201.999 -144
c-24.667 -9.33301 -51.334 -17.666 -80.001 -24.999c14 -36.667 43.667 -55 89 -55c78.667 0 167 45 265 135l11 -11c-26.667 -28.667 -44.667 -58.334 -54 -89.001c-2.66699 -8 -10.334 -42.667 -23.001 -104c-13.333 -62 -47.666 -108.333 -102.999 -139
c-48 -26 -105.667 -39 -173 -39c-75.333 0 -130.333 17.333 -165 52c-24.667 24.667 -37 52.334 -37 83.001c0 24.667 8.16699 45.334 24.5 62.001s36.833 25 61.5 25c17.333 0 32 -5 44 -15s18 -23 18 -39c0 -20.667 -8.66699 -35 -26 -43l-48 -14
c-17.333 -6 -26 -16.333 -26 -31c0 -20.667 16.667 -37 50 -49c26.667 -9.33301 52 -14 76 -14c21.333 0 46 3.33301 74 10s48 15.334 60 26.001c2 1.33301 5.5 4.33301 10.5 9l12.5 12l12 12.5c4.66699 5 9.16699 10.667 13.5 17l13.5 20.5l32 70
c2 3.33301 6.83301 12.5 14.5 27.5s15.334 28 23.001 39s16.5 21.5 26.5 31.5c-30 -16.667 -62.667 -30.667 -98 -42s-63.666 -17 -84.999 -17c-45.333 0 -87.333 21.333 -126 64c-14 -1.33301 -28 -2 -42 -2c-52.667 0 -98.334 17 -137.001 51
c-40.667 36.667 -61 80.334 -61 131.001zM384.999 386.995c0 -34.667 4.66797 -62 14.001 -82c94.667 18 177 66.667 247 146c64.667 71.333 97 131 97 179c0 14 -5 25.5 -15 34.5s-22.333 13.5 -37 13.5c-48.667 0 -104.334 -25.833 -167.001 -77.5
s-106 -104.5 -130 -158.5c-6 -14 -9 -32.333 -9 -55z" />
    <glyph glyph-name="H" unicode="H" horiz-adv-x="823" 
d="M-33 122c0 26 7.8291 48.1689 23.4961 66.502s35.834 27.5 60.501 27.5c16 0 30.833 -5 44.5 -15s20.5 -22.333 20.5 -37c0 -18 -7.33301 -33 -22 -45c-5.33301 -4 -23 -9.33301 -53 -16c-22.667 -6 -34 -16.667 -34 -32c0 -20.667 16 -37.334 48 -50.001
c24.667 -10 49 -15 73 -15c67.333 0 122.333 37.333 165 112c18 30.667 41.333 75.334 70 134.001c-61.333 -24.667 -119.666 -59.667 -174.999 -105l-9 11c57.333 49.333 121.333 86.666 192 111.999c54.667 112.667 113.334 206.334 176.001 281.001
c-55.333 -43.333 -89.333 -69.333 -102 -78c-52.667 -36.667 -90.334 -55 -113.001 -55c-12.667 0 -23.334 4.5 -32.001 13.5s-13 19.833 -13 32.5c0 21.333 10.333 45.666 31 72.999c21.333 28.667 32 43.667 32 45c0 6 -4 9 -12 9c-41.333 0 -109 -57.667 -203 -173l-12 7
c92.667 120 166.334 180 221.001 180c14.667 0 27.334 -5.16699 38.001 -15.5s16 -22.833 16 -37.5c0 -24 -9.66699 -48 -29 -72c-20 -25.333 -30 -38.666 -30 -39.999c0 -2.66699 2.33301 -4 7 -4c10 0 26.667 7.33301 50 22l64 47l193 146l8 -10
c-1.33301 -1.33301 -14.833 -13.5 -40.5 -36.5s-45.667 -43.5 -60 -61.5s-25.5 -37 -33.5 -57l-59 -172l-4 -15l200 64c30.667 51.333 62 96.333 94 135c68 84 113.667 136.667 137 158c33.333 29.333 66 44 98 44c20 0 36.5 -7 49.5 -21s19.5 -31.333 19.5 -52
c0 -23.333 -8 -47 -24 -71s-37.167 -45.833 -63.5 -65.5s-52.166 -36.834 -77.499 -51.501s-51.333 -27.667 -78 -39l-81 -33c-83.333 -188.667 -125 -304 -125 -346c0 -10 6.33301 -15 19 -15c29.333 0 63.333 17.5 102 52.5s70 69.833 94 104.5l13 -8
c-30.667 -41.333 -65 -79 -103 -113s-74.333 -51 -109 -51c-20 0 -33.167 6.16699 -39.5 18.5s-9.5 30.5 -9.5 54.5c0 5.33301 0.166992 13.833 0.5 25.5s0.5 20.834 0.5 27.501c0 36 6.33301 72 19 108c6 18 23.667 57 53 117c-51.333 -14.667 -116 -35 -194 -61
c-26 -78.667 -51.5 -137.334 -76.5 -176.001s-63.167 -68.334 -114.5 -89.001c-41.333 -16.667 -85.333 -25 -132 -25c-47.333 0 -87.333 11.667 -120 35s-49 55.333 -49 96zM747.996 385.002c65.333 26.667 117.668 54.999 157.001 84.999c47.333 36 84.333 82.333 111 139
c9.33301 20.667 14 36.334 14 47.001c0 8 -3.83301 15 -11.5 21s-15.834 9 -24.501 9c-49.333 0 -96.666 -34.333 -141.999 -103c-26.667 -40 -61.334 -106 -104.001 -198z" />
    <glyph glyph-name="I" unicode="I" horiz-adv-x="577" 
d="M-26 120c0 26 8.33398 48.1641 25.001 66.4971s37.667 27.5 63 27.5c16.667 0 31 -5.33301 43 -16s18 -24 18 -40c0 -21.333 -9.33301 -36.333 -28 -45l-52 -15c-18.667 -6 -28 -16.333 -28 -31c0 -19.333 15 -35 45 -47c24 -10 47 -15 69 -15
c30 0 62.5 5.83301 97.5 17.5s61.167 27.834 78.5 48.501c12.667 14.667 39.334 59.334 80.001 134.001c-43.333 4 -85.833 22.667 -127.5 56s-62.5 71 -62.5 113c0 35.333 9.66699 68.833 29 100.5s45.166 59.167 77.499 82.5s65.666 43.333 99.999 60s70.5 31 108.5 43
c83.333 26.667 166 40.334 248 41.001v-15c-45.333 0 -82 -18.667 -110 -56c-23.333 -30 -45.333 -76.333 -66 -139c-10 -30.667 -24.667 -81.334 -44 -152.001c-6.66699 -24.667 -19 -59.667 -37 -105c36.667 16 67.5 38 92.5 66s37.5 61.333 37.5 100
c0 12.667 -2 30 -6 52l16 1c4 -23.333 6 -41 6 -53c0 -43.333 -15.167 -81.666 -45.5 -114.999s-66.833 -57 -109.5 -71c-50 -100.667 -124.667 -168.667 -224 -204c-41.333 -14.667 -83.333 -22 -126 -22c-43.333 0 -81.333 10.667 -114 32c-36 24 -54 57.333 -54 100z
M252.001 310.997c0 -22.667 13.8311 -42.168 41.498 -58.501s60.5 -27.833 98.5 -34.5l85 177c8 14.667 19.833 38.334 35.5 71.001s27.334 55.834 35.001 69.501s18.667 31.167 33 52.5s30 39.166 47 53.499s36.833 27.833 59.5 40.5
c-70.667 -10 -127.667 -23.667 -171 -41s-85.666 -45 -126.999 -83c-54 -49.333 -94 -106.333 -120 -171c-11.333 -28 -17 -53.333 -17 -76z" />
    <glyph glyph-name="J" unicode="J" horiz-adv-x="530" 
d="M-42 -114c0 30.667 12.665 59.3262 37.998 85.9932s58.166 49.334 98.499 68.001s80 34.167 119 46.5s77.833 22.166 116.5 29.499l146 251l29.5 52.5l28.5 50c6.66699 11.667 14.667 24.5 24 38.5s18 26 26 36c8 9.33301 18.833 22.833 32.5 40.5s24 30.667 31 39
s16.667 18 29 29s25.5 20.167 39.5 27.5c-66.667 -4 -119 -11.667 -157 -23c-64 -19.333 -126.667 -55.666 -188 -108.999c-60.667 -52.667 -105.667 -109.334 -135 -170.001c-13.333 -28.667 -20 -52.667 -20 -72c0 -17.333 6.16699 -31 18.5 -41s27.833 -15 46.5 -15
c16.667 0 34 5 52 15l7 -14c-19.333 -10.667 -38.666 -16 -57.999 -16c-30.667 0 -55.167 11.833 -73.5 35.5s-27.5 52.834 -27.5 87.501c0 138.667 113 240.667 339 306c72 20.667 162.667 32 272 34v-14c-46 0 -87.667 -22.667 -125 -68
c-27.333 -33.333 -56 -83.666 -86 -150.999l-67 -164c-32.667 -81.333 -59 -142.666 -79 -183.999c30.667 -3.33301 56.167 -13.666 76.5 -30.999s30.5 -40.666 30.5 -69.999c0 -40 -19.667 -73.667 -59 -101s-84 -45 -134 -53v15c44.667 8 78.667 19 102 33
c50 30 75 65.667 75 107c0 24.667 -9.5 44.834 -28.5 60.501s-42.167 24.167 -69.5 25.5c-20 -38 -42.5 -74.167 -67.5 -108.5s-53.833 -68.166 -86.5 -101.499s-69.167 -59.833 -109.5 -79.5s-81.166 -29.5 -122.499 -29.5c-25.333 0 -45.666 10 -60.999 30s-23 44 -23 72z
M-12.002 -146.008c0 -15.333 5.33496 -28.333 16.002 -39s23.667 -16 39 -16c27.333 0 67.666 26.833 120.999 80.5s105.666 126.834 156.999 219.501c-98.667 -18.667 -175 -48.334 -229 -89.001c-69.333 -52 -104 -104 -104 -156z" />
    <glyph glyph-name="K" unicode="K" horiz-adv-x="816" 
d="M-31 118c0 27.333 8.16602 50.0039 24.499 68.0039s37.833 27 64.5 27c16 0 29.833 -5.16699 41.5 -15.5s17.5 -23.5 17.5 -39.5c0 -20.667 -9.33301 -35.334 -28 -44.001l-52 -15c-18.667 -6 -28 -16.667 -28 -32c0 -20.667 16.333 -36.334 49 -47.001
c26 -8.66699 51 -13 75 -13c47.333 0 87.333 16.333 120 49c28.667 28.667 63 87.334 103 176.001c56.667 124 120 229 190 315c-58 -49.333 -108.667 -86.333 -152 -111c-23.333 -12.667 -42.666 -19 -57.999 -19c-12 0 -22.667 4.33301 -32 13s-14 19 -14 31
c0 20 10.333 44.333 31 73c21.333 29.333 32 44.333 32 45c0 6 -4.33301 9 -13 9c-41.333 0 -107 -57 -197 -171l-13 9c96.667 118.667 170 178 220 178c14 0 25.833 -4.5 35.5 -13.5s14.5 -20.5 14.5 -34.5c0 -22.667 -9.66699 -47.667 -29 -75s-29 -41.333 -29 -42
c0 -3.33301 2.33301 -5 7 -5c18 0 60.667 25.667 128 77c74 56 134 110 180 162l12 -9c-2 -2.66699 -14 -15.834 -36 -39.501s-37.667 -41.334 -47 -53.001s-21 -28.667 -35 -51s-24 -43.833 -30 -64.5l-67 -217c-15.333 -37.333 -31.333 -69.5 -48 -96.5
s-37 -52.5 -61 -76.5s-53 -42.333 -87 -55s-72.333 -19 -115 -19c-50 0 -91.5 10.667 -124.5 32s-49.5 52.666 -49.5 93.999zM533.999 339.004c0 16 11.668 24.002 35.001 24.002c7.33301 0 20.666 -3 39.999 -9c39.333 16 65.333 32.333 78 49
c10.667 16 23.334 39.667 38.001 71c66.667 139.333 162.667 214.666 288 225.999v-14c-32 -2 -59.333 -9.66699 -82 -23c-28.667 -16.667 -55 -47.334 -79 -92.001c-37.333 -66 -62 -106.333 -74 -121c-31.333 -40.667 -82.666 -76 -153.999 -106
c45.333 -35.333 68 -76 68 -122c0 -22 -4.33301 -71 -13 -147c-1.33301 -14.667 -2 -23 -2 -25c0 -13.333 3.66699 -20 11 -20c26 0 70.333 44.333 133 133l12 -8c-78 -106.667 -143.333 -160 -196 -160c-28 0 -42 29.333 -42 88c0 23.333 11.667 61 35 113
c6.66699 15.333 10 30.333 10 45c0 6.66699 -0.833008 13.834 -2.5 21.501s-3.16699 13.667 -4.5 18s-3.33301 9.83301 -6 16.5s-4.33398 10.667 -5.00098 12c-0.666992 2 -3.83398 5.66699 -9.50098 11s-9.5 9.66602 -11.5 12.999c-16.667 -7.33301 -32 -11 -46 -11
s-21 5.66699 -21 17z" />
    <glyph glyph-name="L" unicode="L" horiz-adv-x="714" 
d="M42 61c0 20.667 9.66113 36.5 28.9941 47.5s42.333 16.5 69 16.5c42.667 0 98.334 -14 167.001 -42c26.667 51.333 54.667 110.333 84 177c-7.33301 -0.666992 -16.666 -1 -27.999 -1c-53.333 0 -99.333 18.333 -138 55c-39.333 37.333 -59 82 -59 134
c0 70.667 39 131.334 117 182.001c70.667 45.333 143 68 217 68c24.667 0 52.667 -3.66699 84 -11l-4 -14c-26.667 6.66699 -52.667 10 -78 10c-77.333 0 -142.666 -27 -195.999 -81c-54.667 -55.333 -82 -120 -82 -194c0 -43.333 12.333 -76.5 37 -99.5
s59.334 -34.5 104.001 -34.5c12.667 0 23.334 0.666992 32.001 2c93.333 217.333 188.333 352 285 404c28 15.333 54.333 23 79 23c25.333 0 46.833 -8.5 64.5 -25.5s26.5 -37.833 26.5 -62.5c0 -52.667 -37 -115.334 -111 -188.001c-10 -10 -21.833 -20 -35.5 -30
s-25.5 -18.333 -35.5 -25s-24.5 -15.167 -43.5 -25.5s-31.5 -17 -37.5 -20s-19.667 -9.5 -41 -19.5l-31 -15l-31 -12c-18.667 -53.333 -37.667 -96.5 -57 -129.5s-43 -64.5 -71 -94.5c59.333 -28.667 110 -43 152 -43c65.333 0 135 50 209 150l12 -8
c-80.667 -106 -158.667 -159 -234 -159c-41.333 0 -95.333 15.667 -162 47c-29.333 -18 -55.666 -31.167 -78.999 -39.5s-50 -12.5 -80 -12.5c-33.333 0 -64 6.16699 -92 18.5s-42 29.5 -42 51.5zM56.9941 61c0 -18 12.168 -31.833 36.501 -41.5s50.166 -14.5 77.499 -14.5
c33.333 0 58.5 4.5 75.5 13.5s33.833 25.167 50.5 48.5c-66.667 28.667 -119 43 -157 43c-20 0 -38.833 -4.5 -56.5 -13.5s-26.5 -20.833 -26.5 -35.5zM490.995 300c158.667 76 259 167 301 273c12 31.333 18 54.666 18 69.999c0 30 -17 45 -51 45
c-18.667 0 -36 -6.16699 -52 -18.5s-35.667 -32.166 -59 -59.499c0 -0.666992 -3.5 -4.83398 -10.5 -12.501l-14.5 -16c-2.66699 -3 -7.5 -9 -14.5 -18l-16 -21l-15 -21.5c-6.33301 -9.33301 -11.333 -17.666 -15 -24.999s-7.5 -15.5 -11.5 -24.5
s-7.33301 -17.833 -10 -26.5z" />
    <glyph glyph-name="M" unicode="M" horiz-adv-x="1020" 
d="M-38 110c0 27.333 8.49902 50.8291 25.499 70.4961s38.167 29.5 63.5 29.5c16 0 30 -5.16699 42 -15.5s18 -23.166 18 -38.499c0 -20.667 -11.333 -37 -34 -49l-49 -12c-19.333 -4.66699 -29 -15 -29 -31c0 -18.667 11.333 -33 34 -43s47.334 -15 74.001 -15
c54 0 104.333 20 151 60c24.667 21.333 58 57.333 100 108l285 352c67.333 74.667 122.333 127.667 165 159c10.667 8 18.667 12 24 12c9.33301 0 14 -3.66699 14 -11c0 -3.33301 -2.33301 -9 -7 -17c-54 -95.333 -111 -221.333 -171 -378
c-42.667 -113.333 -73.667 -201.666 -93 -264.999c22 23.333 66 85.333 132 186c134 204 258.667 351.667 374 443c35.333 28 59.333 42 72 42c9.33301 0 14 -3.66699 14 -11c0 -5.33301 -6 -16.666 -18 -33.999c-24 -34 -45.333 -67.667 -64 -101
c-26 -45.333 -47.667 -86.333 -65 -123c-113.333 -236.667 -170 -371.667 -170 -405c0 -10 4.66699 -15 14 -15c18.667 0 44.334 17.667 77.001 53s60.667 69.333 84 102l14 -8c-82 -110 -144.333 -165 -187 -165c-28.667 0 -43 20.333 -43 61c0 14.667 1.66699 31 5 49
c6.66699 40.667 20 84 40 130s51.667 104.667 95 176l28.5 49l39 65.5c9.66699 15.667 25.334 38 47.001 67s44.834 57.167 69.501 84.5c-122.667 -79.333 -260.334 -235.333 -413.001 -468l-80 -119c-7.33301 -11.333 -22 -31.333 -44 -60c-20.667 -22.667 -37 -34 -49 -34
c-8.66699 0 -14.334 5.66699 -17.001 17c-3.33301 12 -5 25.333 -5 40c0 57.333 40.667 170.666 122 339.999c2 4.66699 9.33301 20.834 22 48.501s23.167 49.667 31.5 66s21.833 39.5 40.5 69.5s38.667 59.333 60 88c-90.667 -77.333 -198.334 -199.666 -323.001 -366.999
l-68 -91c-24 -32 -48.333 -61 -73 -87c-76.667 -82.667 -154 -124 -232 -124c-41.333 0 -75.5 10.667 -102.5 32s-40.5 50.333 -40.5 87z" />
    <glyph glyph-name="N" unicode="N" horiz-adv-x="804" 
d="M-32 108c0 26.667 9.66895 49.999 29.002 69.999s42.333 30 69 30c16 0 30.167 -5.66699 42.5 -17s18.5 -25 18.5 -41c0 -19.333 -9 -34 -27 -44c-2 -1.33301 -21.667 -4 -59 -8c-26 -2.66699 -39 -13.667 -39 -33c0 -18 11 -32.333 33 -43s45.333 -16 70 -16
c48 0 91.667 16.333 131 49c38 31.333 89.667 96.666 155 195.999l139 220c58.667 92.667 124.334 164.667 197.001 216c15.333 10 25 15 29 15c6.66699 0 10 -3 10 -9c0 -4.66699 -1.33301 -9.66699 -4 -15c-10 -20.667 -17.333 -41.667 -22 -63
c-3.33301 -14 -8.33301 -58.667 -15 -134l-24 -298l98 167c7.33301 13.333 30 49.333 68 108c62 92 114.667 138 158 138c20.667 0 31 -8.66699 31 -26c0 -18.667 -11.667 -28 -35 -28c-2 0 -8 0.166992 -18 0.5s-16.333 0.5 -19 0.5c-17.333 0 -35 -9 -53 -27
c-16 -15.333 -43.333 -53.666 -82 -114.999c-42.667 -68 -92.334 -153.667 -149.001 -257l-7 -96l-90 -59c8 104.667 13.667 176.5 17 215.5s10 91.833 20 158.5s22.667 126.667 38 180l8 33c3.33301 14 6.16602 24.5 8.49902 31.5s6 16 11 27s11.5 21.5 19.5 31.5
c-69.333 -53.333 -129 -120 -179 -200c-6.66699 -10 -36.334 -61.333 -89.001 -154c-56 -96.667 -103 -166 -141 -208c-67.333 -75.333 -137.333 -113 -210 -113c-38 0 -70.5 10.833 -97.5 32.5s-40.5 49.834 -40.5 84.501z" />
    <glyph glyph-name="O" unicode="O" horiz-adv-x="581" 
d="M92 189c0 102 44.001 201.332 132.001 297.999c52.667 57.333 114.167 108 184.5 152s139.833 66 208.5 66c29.333 0 55.166 -8.16699 77.499 -24.5s33.5 -37.166 33.5 -62.499c0 -16 -5 -35.333 -15 -58l-16 5c8.66699 19.333 13 36.666 13 51.999
c0 22 -9.33301 39.833 -28 53.5s-40.667 20.5 -66 20.5c-32.667 0 -70.834 -8.33301 -114.501 -25s-80.834 -39.667 -111.501 -69c-68 -65.333 -120 -133 -156 -203c-40 -77.333 -68 -145.333 -84 -204c-5.33301 -19.333 -8 -37.333 -8 -54c0 -5.33301 0.333008 -12 1 -20
s1 -14 1 -18c0 -21.333 11.833 -42.333 35.5 -63s46.834 -31 69.501 -31c111.333 0 215.333 94 312 282c51.333 100.667 77 178 77 232c0 34.667 -16 52 -48 52s-70 -23.333 -114 -70c-36 -39.333 -70.333 -92 -103 -158c-32.667 -65.333 -54 -124.666 -64 -177.999
c-4 -22 -7.33301 -44 -10 -66h-15c6.66699 94 40.334 194 101.001 300c70.667 124.667 139 187 205 187c24.667 0 43.667 -9.5 57 -28.5s20 -42.833 20 -71.5c0 -80 -41 -174.667 -123 -284c-106 -141.333 -204 -212 -294 -212c-49.333 0 -88 19.167 -116 57.5
s-42 85.833 -42 142.5z" />
    <glyph glyph-name="P" unicode="P" horiz-adv-x="709" 
d="M59 121c0 26.667 8.33301 48.9932 25 66.9932s38 27 64 27c16.667 0 31.334 -5.33301 44.001 -16s19 -23.667 19 -39c0 -22 -9.33301 -37.333 -28 -46c-22.667 -6.66699 -40 -12 -52 -16c-18.667 -6 -28 -16.333 -28 -31c0 -17.333 12.167 -31.666 36.5 -42.999
s48.833 -17 73.5 -17c47.333 0 89.333 18.333 126 55c32 32 77 111.333 135 238c-42 -4 -82.667 -19.667 -122 -47l-9 11c39.333 30 85.333 47 138 51c76 164.667 169 277.334 279 338.001c-34.667 23.333 -84 35 -148 35c-68.667 0 -140.334 -15.667 -215.001 -47
c-78 -33.333 -137 -75.666 -177 -126.999c-28.667 -38 -43 -73.667 -43 -107c0 -23.333 7 -42.166 21 -56.499s32.667 -21.5 56 -21.5c50 0 103 36 159 108c42 54 63.333 112.333 64 175h13c5.33301 -32 8 -58.667 8 -80c0 -62 -19.667 -115.333 -59 -160
c-40 -44.667 -91 -67 -153 -67c-37.333 0 -67.5 8.83301 -90.5 26.5s-34.5 42.834 -34.5 75.501c0 38 15.667 76.667 47 116c43.333 54 104.666 98 183.999 132c73.333 31.333 147.333 47 222 47c60 0 116 -12 168 -36c23.333 12.667 49.666 22.667 78.999 30l3 -13
c-23.333 -6.66699 -45.666 -15.667 -66.999 -27c56.667 -42.667 85 -89.334 85 -140.001c0 -47.333 -20 -88.166 -60 -122.499s-86.333 -58.166 -139 -71.499c-6 -1.33301 -23.5 -3.5 -52.5 -6.5s-48.5 -5.16699 -58.5 -6.5c-30 -94.667 -67.667 -164 -113 -208
c-42 -41.333 -78.167 -70.166 -108.5 -86.499s-69.166 -24.5 -116.499 -24.5c-50 0 -91.667 11.5 -125 34.5s-50 55.167 -50 96.5zM577 324.993c111.333 24 175.668 46.667 193.001 68c44 54 66 112 66 174c0 8 -4 17.167 -12 27.5s-15.167 18 -21.5 23l-31.5 25.5
c-1.33301 -0.666992 -9.83301 -6.16699 -25.5 -16.5s-26.667 -17.833 -33 -22.5s-15.5 -11.834 -27.5 -21.501s-21.667 -19 -29 -28s-13 -18.167 -17 -27.5c-8.66699 -19.333 -29.334 -86.666 -62.001 -201.999z" />
    <glyph glyph-name="Q" unicode="Q" horiz-adv-x="691" 
d="M54 54c0 24 13.8311 43.666 41.498 58.999s57.5 23 89.5 23c43.333 0 103.666 -12 180.999 -36c2.66699 2.66699 13.834 13 33.501 31l39 36l35 33.5c17 16.333 29.667 29.666 38 39.999l31.5 38c12.667 15 23.334 29.667 32.001 44s16.334 28.833 23.001 43.5
c42 88 63 160.667 63 218c0 30.667 -12.667 54.834 -38 72.501s-53.666 26.5 -84.999 26.5c-59.333 0 -120 -19 -182 -57c-56 -34.667 -102 -78.667 -138 -132c-34.667 -51.333 -52 -99.333 -52 -144c0 -26 7.66699 -47 23 -63s36 -24 62 -24c30 0 58.667 13.667 86 41
c28.667 29.333 55.667 68.333 81 117s38 93 38 133c0 7.33301 -1.66699 22 -5 44l14 3c16 -48 24 -91.333 24 -130c0 -60.667 -21.667 -113.667 -65 -159s-95.333 -68 -156 -68c-35.333 0 -63.833 9.5 -85.5 28.5s-32.5 45.5 -32.5 79.5c0 46 18.667 96.667 56 152
c34 51.333 82 96.5 144 135.5s126 58.5 192 58.5c56 0 102.667 -16.833 140 -50.5s56 -77.5 56 -131.5c0 -75.333 -40.333 -157.333 -121 -246c-62 -68 -135 -128.667 -219 -182c81.333 -26.667 134.666 -40 159.999 -40c35.333 0 81.333 38.333 138 115l13 -8
c-80.667 -110.667 -161 -166 -241 -166c-36 0 -87 16.333 -153 49c-60 -31.333 -114.667 -47 -164 -47c-26.667 0 -49.5 5.33301 -68.5 16s-28.5 26.334 -28.5 47.001zM69.998 52.999c0 -31.333 27.333 -47 82 -47c46.667 0 94 13.667 142 41
c-71.333 36.667 -124.333 55 -159 55c-43.333 0 -65 -16.333 -65 -49z" />
    <glyph glyph-name="R" unicode="R" horiz-adv-x="891" 
d="M35 123c0 25.333 8.66992 46.999 26.0029 64.999s38.333 27 63 27c16 0 30.333 -5.66699 43 -17s19 -24.666 19 -39.999c0 -21.333 -9.33301 -36 -28 -44l-52 -15c-18.667 -6 -28 -16.667 -28 -32c0 -19.333 15.667 -35 47 -47c26.667 -10 50.334 -15 71.001 -15
c52 0 97 21 135 63c25.333 27.333 60.666 89.333 105.999 186l78 155c68 119.333 154 204.333 258 255c-35.333 12.667 -77.666 19 -126.999 19c-80 0 -161 -15.667 -243 -47c-88 -34.667 -155.667 -80 -203 -136c-34 -40 -51 -81 -51 -123
c0 -22.667 6.66699 -41.334 20 -56.001s31 -22 53 -22c26.667 0 55.334 11.333 86.001 34c81.333 60 125.666 144.333 132.999 253h15c4 -24.667 6 -52.667 6 -84c0 -64.667 -19.5 -118.334 -58.5 -161.001s-89.5 -64 -151.5 -64c-34 0 -62.333 8.83301 -85 26.5
s-34 42.167 -34 73.5c0 44.667 18 88.334 54 131.001c48.667 58.667 117.667 105.334 207 140.001c84 33.333 166.667 50 248 50c48.667 0 101.667 -7.33301 159 -22c28.667 10 53.667 18 75 24l3 -14c-33.333 -10 -52 -15.667 -56 -17c84 -32 126 -78.333 126 -139
c0 -34 -15.333 -66.667 -46 -98c-37.333 -39.333 -98 -69 -182 -89c34 -32 51 -70.333 51 -115c0 -24 -5.66699 -56.333 -17 -97c-12 -43.333 -18 -75.333 -18 -96c0 -11.333 4 -17 12 -17c27.333 0 76.333 48.333 147 145l13 -8c-78 -111.333 -145 -167 -201 -167
c-14.667 0 -25.834 3.33301 -33.501 10s-12.167 14.5 -13.5 23.5s-2 22.167 -2 39.5v16c0 28.667 12.667 67.667 38 117c16.667 32.667 25 70 25 112c0 4 -5.5 9.33301 -16.5 16s-17.5 11.667 -19.5 15c-14 -2 -26 -3 -36 -3c-20 0 -30 5 -30 15c0 14 10.333 21 31 21
c13.333 0 31.666 -5.33301 54.999 -16c24 3.33301 50.5 11.833 79.5 25.5s50.167 31.167 63.5 52.5c26.667 42.667 40 85 40 127c0 25.333 -30.333 55.666 -91 90.999c-3.33301 2 -6 3.66699 -8 5c-20.667 -9.33301 -45 -23.333 -73 -42s-47 -34.334 -57 -47.001
c-35.333 -46 -64.333 -107 -87 -183c-16.667 -63.333 -31 -108.666 -43 -135.999c-22.667 -49.333 -48.334 -91 -77.001 -125c-40.667 -47.333 -77.834 -81 -111.501 -101s-77.834 -30 -132.501 -30c-49.333 0 -90.666 11.333 -123.999 34s-50 55.334 -50 98.001z" />
    <glyph glyph-name="S" unicode="S" horiz-adv-x="698" 
d="M30 119c0 26 8.66992 48.332 26.0029 66.999s38.666 28 63.999 28c16 0 30.333 -5.66699 43 -17s19 -25 19 -41c0 -21.333 -9.33301 -36 -28 -44l-51 -15c-18 -6 -27 -16.333 -27 -31c0 -18.667 14 -33.667 42 -45c22.667 -9.33301 44.667 -14 66 -14
c43.333 0 81.333 14.333 114 43c26 23.333 49.667 56 71 98c22.667 50.667 40 88.334 52 113.001c-92 1.33301 -157.667 36 -197 104c-16.667 28.667 -25 57.667 -25 87c0 68 39.333 128.333 118 181c69.333 46.667 142.666 70 219.999 70
c27.333 0 54.666 -3.33301 81.999 -10l-2 -13c-29.333 5.33301 -55.333 8 -78 8c-64 0 -119.833 -19.333 -167.5 -58s-81.167 -86.667 -100.5 -144c-9.33301 -29.333 -14 -56.333 -14 -81c0 -39.333 13 -70.666 39 -93.999s59.333 -35 100 -35c12 0 22.667 0.333008 32 1
c40.667 92 77 163 109 213c49.333 78.667 101.666 136.667 156.999 174c38 26 74 39 108 39c24.667 0 45.334 -8.83301 62.001 -26.5s25 -38.834 25 -63.501c0 -50 -35 -110.333 -105 -181c-36 -36.667 -119 -83.334 -249 -140.001c-7.33301 -4 -13 -6.66699 -17 -8
c-24 -72.667 -50 -126 -78 -160c-40.667 -50.667 -76.5 -85.667 -107.5 -105s-73.5 -29 -127.5 -29c-44 0 -83 10.333 -117 31c-38.667 22.667 -58 55.334 -58 98.001zM523.003 301.999c42.667 20 82.168 41.668 118.501 65.001s72.166 52.833 107.499 88.5
s61.333 72.5 78 110.5c14.667 34.667 22 61 22 79c0 28.667 -15.667 43 -47 43c-40 0 -81.667 -21 -125 -63s-76.666 -100.667 -99.999 -176c-2 -6 -9.83301 -25.833 -23.5 -59.5s-23.834 -62.834 -30.501 -87.501z" />
    <glyph glyph-name="T" unicode="T" horiz-adv-x="632" 
d="M43 122c0 26 8.00098 48 24.001 66s36.667 27 62 27c16.667 0 31.5 -5.5 44.5 -16.5s19.5 -23.833 19.5 -38.5c0 -21.333 -9.33301 -36.333 -28 -45l-52 -17c-18.667 -6 -28 -15.667 -28 -29c0 -19.333 15.333 -35.333 46 -48c24.667 -10 48.667 -15 72 -15
c49.333 0 92 19.667 128 59c22.667 24.667 48.334 66 77.001 124c19.333 42 53.333 107.667 102 197c58 91.333 120.667 157 188 197l8 -12l-14 -11c-8.66699 -7.33301 -14.834 -12.666 -18.501 -15.999l-18.5 -16.5c-8.66699 -7.66699 -15.334 -14.334 -20.001 -20.001
s-9.66699 -12.334 -15 -20.001s-9.33301 -14.834 -12 -21.501c-17.333 -49.333 -27.666 -80.333 -30.999 -93c-22 -82 -43.333 -142 -64 -180c-22.667 -41.333 -47 -77.166 -73 -107.499s-50 -51.833 -72 -64.5c-36.667 -20.667 -88.334 -31 -155.001 -31
c-47.333 0 -87.5 11.833 -120.5 35.5s-49.5 55.834 -49.5 96.501zM160.001 405c0 41.333 16.6689 83.668 50.002 127.001c86 112 208.333 168 367 168c39.333 0 86.666 -6 141.999 -18c49.333 -10.667 88 -16 116 -16c34.667 0 60.334 9.33301 77.001 28l12 -8
c-26.667 -62 -72.334 -93 -137.001 -93c-30 0 -72.667 12.333 -128 37c-65.333 28.667 -119 43 -161 43c-48 0 -96.833 -14.167 -146.5 -42.5s-89.834 -60.833 -120.501 -97.5c-37.333 -44.667 -56 -87.667 -56 -129c0 -23.333 7.5 -43.5 22.5 -60.5s33.5 -25.5 55.5 -25.5
c42 0 82.333 29.333 121 88c36.667 56 55 105.333 55 148c0 7.33301 -2.66699 22.666 -8 45.999l13 4c20.667 -41.333 31 -81 31 -119c0 -51.333 -18.667 -95 -56 -131c-36 -35.333 -80.667 -53 -134 -53c-34.667 0 -62.5 9.16699 -83.5 27.5s-31.5 43.833 -31.5 76.5z" />
    <glyph glyph-name="U" unicode="U" horiz-adv-x="870" 
d="M80 343c0 56.667 22.5 113.332 67.5 169.999s93.833 101 146.5 133c55.333 33.333 111.333 50 168 50c54.667 0 94.834 -11.833 120.501 -35.5s38.5 -61.834 38.5 -114.501c0 -20.667 -3.83301 -45.167 -11.5 -73.5s-17.834 -53.5 -30.501 -75.5l-38 -57l-68 -98
c-44 -64 -66 -129.333 -66 -196v-16c0 -16.667 9 -25 27 -25c12 0 27.667 5 47 15c33.333 17.333 69.833 42.333 109.5 75s74.167 71.667 103.5 117l132 217c36.667 61.333 77.334 123.333 122.001 186c42.667 4.66699 69 7.33398 79 8.00098
c-52 -75.333 -104 -159 -156 -251l-107 -191l-56 -100c-14 -30 -21 -50.667 -21 -62c0 -6 3.33301 -9 10 -9c14.667 0 36 10 64 30c40.667 30 78.667 71 114 123l14 -8c-78.667 -108.667 -145.667 -163 -201 -163c-13.333 0 -23.333 4.16699 -30 12.5s-10.5 17 -11.5 26
s-1.5 22.833 -1.5 41.5c0 14.667 5 33.667 15 57c-12 -15.333 -21.833 -27.333 -29.5 -36s-15.667 -16.667 -24 -24s-13.833 -12.333 -16.5 -15c-20 -19.333 -45.833 -34.833 -77.5 -46.5s-57.834 -17.5 -78.501 -17.5c-28.667 0 -51.167 12.667 -67.5 38s-24.5 55 -24.5 89
c0 40.667 12.667 84 38 130c8 15.333 33 52 75 110c40 56.667 69 100.667 87 132c27.333 48 41 86.667 41 116c0 25.333 -11.333 44.333 -34 57s-50.667 19 -84 19c-86 0 -169.333 -38.667 -250 -116c-79.333 -76.667 -119 -150.667 -119 -222c0 -24 7.33301 -44 22 -60
s33.667 -24 57 -24c46 0 92 38.667 138 116c42 71.333 63 131 63 179c0 10.667 -1.33301 25.334 -4 44.001l15 2c14.667 -44.667 22 -86.667 22 -126c0 -68 -24.667 -125 -74 -171c-42.667 -40.667 -91 -61 -145 -61c-33.333 0 -60 9 -80 27s-30 42.667 -30 74z" />
    <glyph glyph-name="V" unicode="V" horiz-adv-x="673" 
d="M82 454c30 39.333 62.9941 76.002 98.9941 110.002c50.667 46.667 91 70 121 70c14.667 0 26.834 -4.83301 36.501 -14.5s14.5 -21.834 14.5 -36.501c0 -20.667 -9.33301 -44.667 -28 -72c-19.333 -28.667 -29 -43.334 -29 -44.001c0 -3.33301 3 -5 9 -5
c21.333 0 72.333 31.333 153 94c52 40.667 102.333 82.667 151 126l10 -9l-45 -65c-3.33301 -4.66699 -13.666 -18.334 -30.999 -41.001s-32.666 -45.834 -45.999 -69.501s-23 -48.167 -29 -73.5c-14 -56 -24.333 -94 -31 -114c-3.33301 -10 -10.166 -31.667 -20.499 -65
s-17.833 -56.166 -22.5 -68.499s-12.167 -30.333 -22.5 -54s-21.333 -43.834 -33 -60.501s-25.5 -33 -41.5 -49c86.667 46.667 176 125.667 268 237l124 166c74 98.667 138 169.667 192 213c35.333 28 77 49 125 63l3 -14c-60 -17.333 -118 -54.333 -174 -111
c-30 -30 -73.333 -84.667 -130 -164l-33 -45l-30.5 -42c-5.66699 -8 -14.167 -19.333 -25.5 -34l-28 -35.5l-26.5 -31.5l-32.5 -36c-68.667 -74 -139.667 -131.667 -213 -173c-28 -16 -45 -24 -51 -24c-6.66699 0 -10 3 -10 9c0 0.666992 7.66699 13.667 23 39
s29 74.333 41 147l6.5 41c3 19.333 5 31.833 6 37.5s2.83301 14.834 5.5 27.501s5.33398 23.5 8.00098 32.5s6 18.833 10 29.5c26.667 73.333 79.334 152 158.001 236l-133 -99c-35.333 -23.333 -63.333 -35 -84 -35c-14.667 0 -27.167 4.33301 -37.5 13
s-15.5 19.667 -15.5 33c0 18.667 10.333 42.334 31 71.001c21.333 29.333 32 45 32 47c0 4.66699 -3.66699 7 -11 7c-38.667 0 -105.667 -57.667 -201 -173z" />
    <glyph glyph-name="W" unicode="W" horiz-adv-x="955" 
d="M80 363c0 60 24.166 117.835 72.499 173.502s101.5 98.167 159.5 127.5c52 26 104.333 39 157 39c84.667 0 143.667 -32 177 -96c12.667 -25.333 19 -50.666 19 -75.999c0 -116.667 -86.667 -245.667 -260 -387l-152 -124c148.667 80 296.334 201 443.001 363l202 243
c9.33301 10.667 23.333 28 42 52c12.667 16.667 21.667 25 27 25c8.66699 0 13 -3.66699 13 -11c0 -2.66699 -7.83301 -23.334 -23.5 -62.001l-61 -150.5l-61.5 -155.5c-41.333 -108 -72.666 -203.333 -93.999 -286c63.333 123.333 119 218.666 167 285.999
c73.333 102.667 151.333 178.667 234 228l8 -12c-88.667 -51.333 -179.334 -147.333 -272.001 -288c-26.667 -40.667 -58 -95.667 -94 -165c-7.33301 -16.667 -20.333 -44 -39 -82c-6 -11.333 -12.667 -17 -20 -17c-2 0 -4 -0.333008 -6 -1l-2 -1
c-0.666992 0 -2.33398 4.66699 -5.00098 14c-8 30.667 -12 62.667 -12 96c0 26.667 3.66699 58.167 11 94.5s16.333 65.5 27 87.5c16 32.667 54.333 99 115 199c12 19.333 26.833 49.5 44.5 90.5s28.834 65.5 33.501 73.5c-112 -140.667 -202.667 -247.334 -272 -320.001
c-104.667 -108.667 -212 -198.667 -322 -270c-61.333 -39.333 -98 -59 -110 -59c-10.667 0 -16 4 -16 12c0 4.66699 7.33301 14.334 22 29.001c98 98 175 182.167 231 252.5s93.667 138.5 113 204.5c10 36 15 68.333 15 97c0 30.667 -14.167 54.667 -42.5 72
s-60.833 26 -97.5 26c-76.667 0 -154.334 -34.333 -233.001 -103c-82 -70.667 -123 -143.667 -123 -219c0 -26.667 8 -49.334 24 -68.001s36.667 -28 62 -28c44 0 89.667 37 137 111c46 70.667 69 131 69 181c0 7.33301 -1.66699 22.666 -5 45.999l14 3
c15.333 -43.333 23 -85.333 23 -126c0 -53.333 -14.333 -99.5 -43 -138.5s-65.667 -66.5 -111 -82.5c-23.333 -8 -45.666 -12 -66.999 -12c-35.333 0 -63.833 10.333 -85.5 31s-32.5 48.334 -32.5 83.001z" />
    <glyph glyph-name="X" unicode="X" horiz-adv-x="776" 
d="M47 95c0 25.333 8.50195 46.501 25.502 63.501s37.833 25.5 62.5 25.5c16.667 0 31.334 -5 44.001 -15s19 -22.667 19 -38s-5 -27.5 -15 -36.5s-23 -13.5 -39 -13.5s-30.333 6.33301 -43 19s-20.334 19 -23.001 19c-10 0 -15 -9 -15 -27c0 -26 11.833 -46.833 35.5 -62.5
s51.5 -23.5 83.5 -23.5c28.667 0 56.334 6.66699 83.001 20c4 2 15.333 6.83301 34 14.5s35.667 15.5 51 23.5s27 16.333 35 25c58.667 61.333 115 140.333 169 237s81 183 81 259c0 31.333 -14.5 55.833 -43.5 73.5s-62.5 26.5 -100.5 26.5
c-56.667 0 -112.334 -19 -167.001 -57c-43.333 -30 -83.5 -70.833 -120.5 -122.5s-55.5 -102.5 -55.5 -152.5c0 -25.333 7.83301 -47 23.5 -65s35.167 -27 58.5 -27c17.333 0 32.333 3.33301 45 10c31.333 16.667 64.666 54 99.999 112c38 63.333 57 120.666 57 171.999
c0 12.667 -2 28.667 -6 48l15 3c16.667 -52 25 -96.333 25 -133c0 -61.333 -21.333 -115 -64 -161c-43.333 -46.667 -95.666 -70 -156.999 -70c-32.667 0 -59.5 10.333 -80.5 31s-31.5 47.667 -31.5 81c0 44 18.333 95 55 153c34 52.667 77.5 98 130.5 136
s110.167 57 171.5 57c65.333 0 116.333 -23 153 -69c30 -36.667 45 -78 45 -124c0 -19.333 -3 -42.666 -9 -69.999c44 69.333 81.667 121 113 155c45.333 50 91 75 137 75c23.333 0 43.666 -6.16699 60.999 -18.5s26 -28.5 26 -48.5c0 -15.333 -5.5 -28.5 -16.5 -39.5
s-24.167 -16.5 -39.5 -16.5c-12 0 -23 4.16699 -33 12.5s-15 18.5 -15 30.5c0 15.333 5.66699 27.666 17 36.999s17 15.333 17 18c0 7.33301 -6 11 -18 11c-66 0 -137 -65 -213 -195c-96 -162.667 -144 -290.667 -144 -384c0 -42.667 13 -64 39 -64c38 0 95 51 171 153
l13 -9c-81.333 -105.333 -142.333 -158 -183 -158c-38 0 -57 29.333 -57 88c0 52 11.333 106 34 162c-90.667 -116 -189.334 -193.333 -296.001 -232c-42.667 -15.333 -80.667 -23 -114 -23c-36 0 -66.833 9.5 -92.5 28.5s-38.5 44.167 -38.5 75.5z" />
    <glyph glyph-name="Y" unicode="Y" horiz-adv-x="706" 
d="M105 411c0 48 19.668 96.1689 59.001 144.502s81.666 85.166 126.999 110.499c40.667 22.667 83.667 34 129 34c78.667 0 118 -44.333 118 -133c0 -27.333 -6.66699 -54.333 -20 -81c-73.333 -116.667 -110 -184 -110 -202c0 -8.66699 5.66699 -16.167 17 -22.5
s21.333 -9.5 30 -9.5c46.667 0 111.334 54.333 194.001 163l77 100.5c14 17.667 34 40.667 60 69s54 54.833 84 79.5l11 -10c-29.333 -34 -52.666 -67.833 -69.999 -101.5s-33.333 -77.167 -48 -130.5l-42 -153c-34.667 -105.333 -94.334 -182.666 -179.001 -231.999
c-54.667 -32.667 -115.334 -49 -182.001 -49c-50.667 0 -93.667 11.5 -129 34.5s-53 55.5 -53 97.5c0 26 8.5 47.833 25.5 65.5s38.5 26.5 64.5 26.5c17.333 0 32.166 -5.16699 44.499 -15.5s18.5 -23.833 18.5 -40.5c0 -21.333 -9.33301 -36.333 -28 -45l-53 -16
c-18 -6.66699 -27 -17.334 -27 -32.001c0 -11.333 9 -22.666 27 -33.999c25.333 -16 56.333 -24 93 -24c30.667 0 63.5 5.66699 98.5 17s60.833 26.666 77.5 45.999c26.667 29.333 52.667 74 78 134l109 258c-19.333 -25.333 -44.833 -57 -76.5 -95s-52.834 -62 -63.501 -72
c-41.333 -37.333 -79.666 -56 -114.999 -56c-22.667 0 -42.167 9.16699 -58.5 27.5s-24.5 39.5 -24.5 63.5c0 32.667 12 72 36 118c0.666992 1.33301 23.667 38 69 110c24 38 36 65 36 81c0 32 -29.333 48 -88 48c-72.667 0 -141 -31.333 -205 -94
c-24.667 -24.667 -46.667 -53.334 -66 -86.001s-29 -64 -29 -94c0 -39.333 17 -59 51 -59c27.333 0 54.333 15.5 81 46.5s48.667 64.5 66 100.5c16.667 34 26.334 68.667 29.001 104h13c2 -20 3 -33.333 3 -40c0 -53.333 -16.667 -103.333 -50 -150
c-36 -51.333 -79.667 -77 -131 -77c-52 0 -78 25 -78 75z" />
    <glyph glyph-name="Z" unicode="Z" horiz-adv-x="687" 
d="M127 -125c0 58.667 113.002 115.672 339.002 171.005c20 39.333 30 78.666 30 117.999c0 8 -3.5 19.5 -10.5 34.5s-14.833 25.5 -23.5 31.5c-67.333 -42.667 -124.333 -64 -171 -64c-12.667 0 -23.834 3.33301 -33.501 10s-14.5 15.334 -14.5 26.001
c0 25.333 16 45.666 48 60.999c27.333 12.667 54.333 19 81 19c33.333 0 67 -8 101 -24c39.333 30 70 57.667 92 83c12.667 13.333 51.667 63.666 117 150.999h-8c-4 0 -7.83301 0.333008 -11.5 1s-7.5 2.16699 -11.5 4.5l-10.5 6c-3 1.66699 -6.83301 4.5 -11.5 8.5
s-8.33398 7 -11.001 9s-7 5.83301 -13 11.5s-10.333 9.5 -13 11.5c-26.667 22.667 -56 42 -88 58c-30.667 15.333 -87 23 -169 23c-48.667 0 -89 -21 -121 -63c-29.333 -38.667 -44 -83.334 -44 -134.001c0 -20 3 -45 9 -75l-15 -2c-6 30 -9 55.667 -9 77
c0 77.333 27.333 141.333 82 192s120.334 76 197.001 76c88 0 163.333 -39 226 -117l11.5 -14l8.5 -11l2 -3c9.33301 -10 18 -17.333 26 -22c32 47.333 56 80.666 72 99.999c36.667 45.333 67.334 68 92.001 68c16 0 24 -7.66699 24 -23c0 -26.667 -15.667 -57.667 -47 -93
c-28.667 -32.667 -56.667 -56 -84 -70c-14.667 -7.33301 -35.334 -13.666 -62.001 -18.999l-82 -104c-8 -11.333 -24 -31.666 -48 -60.999c-24.667 -26.667 -53 -52.334 -85 -77.001c56.667 -36.667 85 -82.334 85 -137.001c0 -14.667 -1.33301 -27.667 -4 -39
c30.667 9.33301 54 19.833 70 31.5s33.667 30.5 53 56.5l13 -9c-19.333 -27.333 -38.5 -47.333 -57.5 -60s-46.5 -24.334 -82.5 -35.001c-26.667 -76.667 -69.834 -141.5 -129.501 -194.5s-130.167 -79.5 -211.5 -79.5c-64.667 0 -97 30.333 -97 91zM162.002 -135.995
c0 -42 20.666 -62.999 61.999 -62.999c34 0 76.333 27 127 81s86.334 103 107.001 147c-23.333 -6 -50 -14.333 -80 -25s-62 -23.334 -96 -38.001s-62.5 -31.167 -85.5 -49.5s-34.5 -35.833 -34.5 -52.5zM277.001 215.006c0 -19.333 11.333 -29 34 -29
c30 0 76.333 18.667 139 56c-16 16.667 -42 25 -78 25c-24 0 -45.833 -4.33301 -65.5 -13s-29.5 -21.667 -29.5 -39zM725.001 525.006c3.33301 -0.666992 7.66895 -1 13.002 -1c24 0 53.333 18.333 88 55s52 67 52 91c0 8 -3.66699 12 -11 12
c-16.667 0 -40.334 -18.833 -71.001 -56.5s-54.334 -71.167 -71.001 -100.5z" />
    <glyph glyph-name="bracketleft" unicode="[" horiz-adv-x="227" 
d="M11 -237c0 4 0.666992 8.66895 2 14.002l282 932c0.666992 2.66699 1.83398 6.5 3.50098 11.5s2.66699 8.16699 3 9.5s1.16602 3.5 2.49902 6.5s2.33301 5 3 6s1.66699 2.16699 3 3.5s2.83301 2.16602 4.5 2.49902s3.66699 0.666016 6 0.999023s4.83301 0.5 7.5 0.5h92
c14.667 0 22 -3.33301 22 -10c0 -8.66699 -8 -13 -24 -13h-55l-288 -954h47c7.33301 0 13.333 -0.666992 18 -2s6.66699 -4.33301 6 -9c-0.666992 -8 -8 -12 -22 -12h-92c-14 0 -21 4.33301 -21 13z" />
    <glyph glyph-name="backslash" unicode="\" 
d="M260 722l0.000976562 10c0 10.667 3.66699 16 11 16c8 0 12 -8.33301 12 -25l38 -946v-10c-0.666992 -10 -4.33398 -15 -11.001 -15c-8 0 -12 8.33301 -12 25z" />
    <glyph glyph-name="bracketright" unicode="]" horiz-adv-x="227" 
d="M-64 -240c0 8.66699 10.999 13.002 32.999 13.002h46l288 954h-49c-14.667 0 -22 3.66699 -22 11c0.666992 8 8 12 22 12h92c14.667 0 22 -4.33301 22 -13c0 -2 -0.5 -4.33301 -1.5 -7s-1.5 -4.66699 -1.5 -6l-283 -934c-0.666992 -2.66699 -1.66699 -6 -3 -10
s-2.16602 -6.83301 -2.49902 -8.5s-1 -3.83398 -2 -6.50098s-1.83301 -4.5 -2.5 -5.5s-1.5 -2.16699 -2.5 -3.5s-2 -2.33301 -3 -3s-2.33301 -1.33398 -4 -2.00098s-3.5 -1 -5.5 -1h-7h-93c-14 0 -21 3.33301 -21 10z" />
    <glyph glyph-name="asciicircum" unicode="^" horiz-adv-x="533" 
d="M233 475c0 6 7.33203 14.002 21.999 24.002c127.333 83.333 193.333 125.666 198 126.999h1c2.66699 0 6 -1.66699 10 -5s14.667 -14.666 32 -33.999l79 -89c8.66699 -8.66699 13 -15.334 13 -20.001c0 -3.33301 -1.83301 -7 -5.5 -11s-7.5 -6 -11.5 -6
c-2 0 -3.83301 0.333008 -5.5 1s-4.16699 2.16699 -7.5 4.5s-6.66602 5.16602 -9.99902 8.49902l-15 14.5l-21 20l-30 28.5l-39 37h-1c-4.66699 -2 -22.667 -12.667 -54 -32l-91.5 -55.5c-29.667 -17.667 -46.5 -26.5 -50.5 -26.5c-8.66699 0 -13 4.66699 -13 14z" />
    <glyph glyph-name="underscore" unicode="_" horiz-adv-x="686" 
d="M-1 -214c0 14 10 21 30 21h501c18.667 0 28 -6.33301 28 -19c0 -14 -9.66699 -21 -29 -21h-502c-18.667 0 -28 6.33301 -28 19z" />
    <glyph glyph-name="grave" unicode="`" 
d="M266 613c0 9.33301 4.00195 17.834 12.002 25.501s16.667 11.834 26 12.501c9.33301 0 17.166 -3.66699 23.499 -11s24.166 -33 53.499 -77c18 -28.667 27 -44.667 27 -48c0 -4.66699 -2 -8.5 -6 -11.5s-8 -4.5 -12 -4.5s-14.667 7.33301 -32 22
c-8 7.33301 -19 16.666 -33 27.999c-25.333 21.333 -41.5 35.666 -48.5 42.999s-10.5 14.333 -10.5 21z" />
    <glyph glyph-name="a" unicode="a" horiz-adv-x="428" 
d="M0 156c51.333 72 92.6699 121.834 124.003 149.501s68.666 41.5 111.999 41.5c55.333 0 84 -19.667 86 -59l26 42l83 17c-116 -194 -174 -302.667 -174 -326c0 -6 3.66699 -9 11 -9c25.333 0 56 19.667 92 59c15.333 17.333 39.666 47.666 72.999 90.999l14 -8l-58 -74
c-21.333 -26 -40.333 -45.333 -57 -58c-25.333 -19.333 -51 -29 -77 -29c-18 0 -29.5 3.16699 -34.5 9.5s-7.5 19.5 -7.5 39.5c0 5.33301 3.66699 17.666 11 36.999s11.666 32 12.999 38c-54.667 -82.667 -109 -124 -163 -124c-12.667 0 -23 2.5 -31 7.5s-13.667 13 -17 24
s-5.5 21.333 -6.5 31s-1.5 22.834 -1.5 39.501c0 23.333 5.66699 50 17 80l-21 -27zM57.0039 31.001c0 -12.667 9 -19 27 -19c24.667 0 52.5 15.833 83.5 47.5s55.5 62.834 73.5 93.501c42.667 70.667 64 114.334 64 131.001c0 11.333 -4.16699 21.166 -12.5 29.499
s-18.5 12.5 -30.5 12.5c-15.333 0 -34 -8.16699 -56 -24.5s-44.333 -41.5 -67 -75.5c-28 -42 -48.667 -80.333 -62 -115s-20 -61.334 -20 -80.001z" />
    <glyph glyph-name="b" unicode="b" horiz-adv-x="384" 
d="M0 157c21.333 29.333 88.001 112 200.001 248l69 84c2 2.66699 6.16699 9.66699 12.5 21s12.166 21 17.499 29l81 129l74 9c-62.667 -94.667 -130 -203.334 -202 -326.001c-106 -180.667 -159 -290 -159 -328c0 -8.66699 6.66699 -13 20 -13c37.333 0 84 28 140 84
c-22 20 -33 45 -33 75c0 45.333 19 92 57 140c20.667 26.667 41.334 40 62.001 40c24 0 36 -15.667 36 -47c0 -58 -32.333 -126 -97 -204c4 -1.33301 10.333 -2 19 -2c18.667 0 36.334 7.33301 53.001 22c11.333 11.333 24.333 26.333 39 45l13 -8
c-18 -24 -33 -40.667 -45 -50c-19.333 -16 -39.333 -24 -60 -24c-11.333 0 -21 1.66699 -29 5c-62.667 -62 -118.334 -93 -167.001 -93c-16.667 0 -29.667 5.16699 -39 15.5s-14 23.5 -14 39.5c0 18.667 6.66699 46.334 20 83.001s29.666 73 48.999 109
c16 28 47.333 79.333 94 154c-15.333 -14.667 -32.333 -34.667 -51 -60l-147 -185zM240.001 159c0 -22 7.99805 -39.999 23.998 -53.999c22.667 26.667 40.5 54.5 53.5 83.5s19.5 51.5 19.5 67.5c0 6.66699 -2.5 12.5 -7.5 17.5s-10.833 7.5 -17.5 7.5
c-4.66699 0 -9.16699 -1.5 -13.5 -4.5s-9.16602 -8.33301 -14.499 -16s-9.16602 -13 -11.499 -16s-6.5 -9.83301 -12.5 -20.5c-13.333 -20.667 -20 -42.334 -20 -65.001z" />
    <glyph glyph-name="c" unicode="c" horiz-adv-x="323" 
d="M0 156c46.667 65.333 88.167 113.502 124.5 144.502s72.166 46.5 107.499 46.5c28 0 51.833 -6.5 71.5 -19.5s29.5 -31.167 29.5 -54.5c0 -14 -4.5 -25.833 -13.5 -35.5s-20.5 -14.5 -34.5 -14.5c-12 0 -22.667 4 -32 12s-14 18 -14 30c0 20 9 34 27 42c10 4 15 7 15 9
c0 9.33301 -8 14 -24 14c-35.333 0 -76 -40.667 -122 -122c-24 -42.667 -40.5 -74.334 -49.5 -95.001s-13.5 -40.334 -13.5 -59.001c0 -16 2.33301 -27.167 7 -33.5s12.334 -9.5 23.001 -9.5c45.333 0 88.333 16 129 48c28 22 60.333 56.333 97 103l12 -8
c-44 -56.667 -77.667 -94 -101 -112c-41.333 -32.667 -88 -49 -140 -49c-31.333 0 -52.833 9.83301 -64.5 29.5s-17.5 48.167 -17.5 85.5c0 19.333 4.66699 40.333 14 63l-17 -23z" />
    <glyph glyph-name="d" unicode="d" horiz-adv-x="420" 
d="M0 157c48 67.333 90.6689 116.17 128.002 146.503s76.666 45.5 117.999 45.5c14.667 0 29.167 -5.83301 43.5 -17.5s22.833 -26.834 25.5 -45.501l186 303l81 4c-220 -339.333 -330 -530.666 -330 -573.999c0 -4.66699 3.33301 -7 10 -7c24.667 0 55 20 91 60
c12.667 13.333 36.667 43.666 72 90.999l14 -9l-73 -87c-22.667 -26 -39.667 -43 -51 -51c-21.333 -15.333 -44 -23 -68 -23c-26.667 0 -40 20.667 -40 62c0 10.667 7.33301 29.667 22 57l-27 -42.5c-6.66699 -10.333 -15.834 -22.333 -27.501 -36
s-23.667 -23.834 -36 -30.501s-25.166 -10 -38.499 -10c-26.667 0 -48.834 9.16699 -66.501 27.5s-26.5 40.833 -26.5 67.5c0 25.333 6.66699 51.666 20 78.999l-13 -18zM71.002 46.0039c0 -10 3.5 -18.168 10.5 -24.501s14.5 -9.5 22.5 -9.5c24 0 68.667 48.667 134 146
c36.667 54.667 55.667 85.334 57 92.001c0.666992 2.66699 1 7 1 13c0 16.667 -5.83301 31.5 -17.5 44.5s-27.5 19.5 -47.5 19.5c-24.667 0 -59 -35.667 -103 -107c-38 -61.333 -57 -119.333 -57 -174z" />
    <glyph glyph-name="e" unicode="e" horiz-adv-x="322" 
d="M0 156c5.33301 9.33301 13.666 14.998 24.999 16.998c13.333 28 25.833 50.833 37.5 68.5s28.834 36.834 51.501 57.501c12 10.667 30 21.334 54 32.001s46.667 16 68 16c64.667 0 97 -23.667 97 -71c0 -20.667 -13.667 -41.334 -41 -62.001
c-45.333 -34.667 -107.666 -52 -186.999 -52c-22 -47.333 -33 -81.666 -33 -102.999c0 -32 9.66699 -48 29 -48c46 0 89.333 16 130 48c29.333 22.667 61.333 57 96 103l13 -8c-40.667 -52 -74.334 -89 -101.001 -111c-41.333 -33.333 -87 -50 -137 -50
c-34.667 0 -58.167 9.66699 -70.5 29s-18.5 48.666 -18.5 87.999c0 14.667 2 29.334 6 44.001l-5 -6zM111 175.998c39.333 1.33301 76.999 13.666 112.999 36.999c22.667 15.333 37.834 29.833 45.501 43.5s11.5 29.834 11.5 48.501c0 18 -9.66699 27 -29 27
c-45.333 0 -92.333 -52 -141 -156z" />
    <glyph glyph-name="f" unicode="f" horiz-adv-x="256" 
d="M-117 -216c47.333 79.333 92.334 161.666 135.001 246.999c-14.667 13.333 -22 27.666 -22 42.999c0 12.667 4.66699 24.334 14 35.001s20 16 32 16c6.66699 0 14 -1.33301 22 -4l49 99c-48.667 -23.333 -82 -47.666 -100 -72.999l-13 9
c19.333 28.667 60.333 57.334 123 86.001c47.333 93.333 99 178.333 155 255l29.5 41l26.5 36l22 29c9.33301 12 16.333 20.5 21 25.5s10.667 11 18 18s13.833 11.833 19.5 14.5s12 5 19 7s14.167 3 21.5 3c15.333 0 28.833 -4.83301 40.5 -14.5s17.5 -21.834 17.5 -36.501
c0 -20 -8.66699 -45.333 -26 -76c-48 -85.333 -147.333 -181.333 -298 -288c-24.667 -56.667 -59.334 -131.334 -104.001 -224.001c26.667 0 53.834 10.333 81.501 31s59.167 53.667 94.5 99l13 -9c-34 -45.333 -64 -78.666 -90 -99.999
c-31.333 -26.667 -68 -40.667 -110 -42c-34.667 -77.333 -74.334 -153 -119.001 -227h-72zM200.001 283c69.333 49.333 121.333 96.668 156 142.001c45.333 58 79.333 115.333 102 172c8.66699 22.667 13 37 13 43c0 10.667 -6.66699 16 -20 16
c-7.33301 0 -15 -2.5 -23 -7.5s-17.333 -14 -28 -27s-18.167 -22.333 -22.5 -28s-12.833 -17.5 -25.5 -35.5c-0.666992 -1.33301 -6 -8.83301 -16 -22.5s-17.167 -23.834 -21.5 -30.501s-10.833 -17.5 -19.5 -32.5s-17 -30.5 -25 -46.5c-24.667 -47.333 -48 -95 -70 -143z
" />
    <glyph glyph-name="g" unicode="g" horiz-adv-x="409" 
d="M-22 -166c0 16 8.66895 34.665 26.002 55.998s39.666 39.333 66.999 54c20.667 11.333 46.334 23.333 77.001 36l13 29c-1.33301 -0.666992 -3.66602 -2.5 -6.99902 -5.5s-5.5 -4.66699 -6.5 -5s-3 -1.33301 -6 -3s-6 -2.66699 -9 -3s-6.83301 -0.666016 -11.5 -0.999023
s-10.334 -0.5 -17.001 -0.5c-25.333 0 -46 9.66699 -62 29s-24 42.666 -24 69.999c0 23.333 6.33301 52.333 19 87l-24 -29l-13 8c19.333 26.667 39.666 51.334 60.999 74.001l22 24l20.5 22l17 18c7.66699 8 13.5 13.5 17.5 16.5l16 12.5
c6.66699 5.33301 12.334 9 17.001 11l16.5 7c6.33301 2.66699 12.666 4.33398 18.999 5.00098s13.166 1 20.499 1c28 0 48 -9 60 -27c8 -12 12 -23.333 12 -34v-3l29 52l80 10c-74.667 -127.333 -134.667 -238.333 -180 -333c66.667 24 128.667 73.667 186 149l13 -9
c-62.667 -84 -132 -136.667 -208 -158c-6 -12 -13.5 -30 -22.5 -54s-17.167 -43.5 -24.5 -58.5s-16.5 -30.833 -27.5 -47.5s-24.5 -29.167 -40.5 -37.5s-34.667 -12.5 -56 -12.5c-18.667 0 -35 4.5 -49 13.5s-21 21.167 -21 36.5zM9.00195 -174.002
c0 -7.33301 3.5 -13.8311 10.5 -19.498s14.5 -8.5 22.5 -8.5c8.66699 0 16 2 22 6s11.833 11.167 17.5 21.5s10.667 20.666 15 30.999l19 47c8.33301 21 16.5 40.167 24.5 57.5c-51.333 -24 -86 -46.833 -104 -68.5s-27 -43.834 -27 -66.501zM78.002 34
c0 -4.66699 4.17188 -10.3311 12.5049 -16.998s15.166 -10 20.499 -10c9.33301 0 18.166 2 26.499 6s15.333 8.66699 21 14s11.667 13.166 18 23.499s11.166 18.666 14.499 24.999s7.83301 15.666 13.5 27.999s9.5 20.5 11.5 24.5c4 7.33301 9.16699 17.5 15.5 30.5
s11.166 22.667 14.499 29l12 24c4.66699 9.66699 8.16699 17.167 10.5 22.5s4.66602 11.333 6.99902 18s4 12.334 5 17.001s1.5 8.66699 1.5 12c0 31.333 -13 47 -39 47c-30 0 -69.333 -43.333 -118 -130c-31.333 -56 -47 -110.667 -47 -164z" />
    <glyph glyph-name="h" unicode="h" horiz-adv-x="461" 
d="M-25 -7l242.001 407.001l-204 -251l-13 8c5.33301 7.33301 37.333 47 96 119l158 195c4 4 9 10 15 18l99 179l77 5l-335 -580c138 170.667 229.667 256 275 256c10.667 0 19.167 -4 25.5 -12s9.5 -17.667 9.5 -29c0 -15.333 -4.83301 -38 -14.5 -68
s-19.834 -55 -30.501 -75c-12 -21.333 -31.667 -51 -59 -89c-22 -30.667 -33 -48.334 -33 -53.001c0 -7.33301 6 -11 18 -11c24.667 0 55.334 20 92.001 60c10.667 11.333 35 41.666 73 90.999l13 -8c-26.667 -35.333 -56.334 -72 -89.001 -110
c-34 -34.667 -68 -52 -102 -52c-20.667 0 -34.167 3.66699 -40.5 11s-9.5 19.333 -9.5 36c0 14.667 5.5 35.834 16.5 63.501s23.167 52.5 36.5 74.5c11.333 20 32.333 49.333 63 88c22.667 28.667 34 46.667 34 54c0 5.33301 -3.33301 8 -10 8
c-32 0 -88.333 -47.333 -169 -142l-149 -188z" />
    <glyph glyph-name="i" unicode="i" horiz-adv-x="238" 
d="M0 157c58 76 112 137.667 162 185l88 6c-120.667 -194 -181 -303 -181 -327c0 -6 4 -9 12 -9c32.667 0 84.334 47.333 155.001 142l7 9l13 -9l-58 -73c-16.667 -20 -29.334 -34.667 -38.001 -44s-22 -19 -40 -29s-36.333 -15 -55 -15c-31.333 0 -47 13.333 -47 40
c0 31.333 26.667 93.333 80 186l53 92c-39.333 -37.333 -85 -91.333 -137 -162zM217 499c0 17.333 7 33 21 47s29.667 21 47 21c14 0 25.667 -5 35 -15s14 -22 14 -36c0 -18.667 -6.5 -34.667 -19.5 -48s-28.833 -20 -47.5 -20c-14 0 -25.833 5 -35.5 15s-14.5 22 -14.5 36z
" />
    <glyph glyph-name="j" unicode="j" horiz-adv-x="258" 
d="M-213 -166c0 16 7.50195 32.5029 22.502 49.5029s35 32.667 60 47s48.167 26.666 69.5 36.999s43 19.833 65 28.5c0.666992 2 6.33398 13 17.001 33l58.5 112l82.5 160c-52.667 -38.667 -102.334 -90 -149.001 -154l-13 9c47.333 68 105 125.333 173 172l85 14
c-77.333 -128 -138 -238.333 -182 -331c36 7.33301 71.333 26.666 106 57.999c17.333 16 44.333 47 81 93l13 -9c-34 -44.667 -64 -78.334 -90 -101.001c-38.667 -33.333 -78.334 -52.666 -119.001 -57.999c-37.333 -79.333 -73 -133.333 -107 -162
c-18 -15.333 -30.333 -25.333 -37 -30s-15.334 -8.83398 -26.001 -12.501s-24 -5.5 -40 -5.5c-18.667 0 -35 4.5 -49 13.5s-21 21.167 -21 36.5zM-181.998 -173.997c0 -8 3.5 -14.667 10.5 -20s14.833 -8 23.5 -8c41.333 0 88.333 58.333 141 175
c-38 -17.333 -76.667 -40.333 -116 -69s-59 -54.667 -59 -78zM218.002 500.003c0 18 7 33.667 21 47s30 20 48 20c33.333 0 50 -16.667 50 -50c0 -18 -6.83301 -33.833 -20.5 -47.5s-29.5 -20.5 -47.5 -20.5c-14 0 -26 5 -36 15s-15 22 -15 36z" />
    <glyph glyph-name="k" unicode="k" horiz-adv-x="420" 
d="M-18 -6l234.999 406.001l-204 -251l-13 8l78 99l158 194c10.667 12 21.334 25 32.001 39l104 180l79 8c-60.667 -100 -189.667 -325 -387 -675c-14.667 -1.33301 -29 -2.83301 -43 -4.5s-27 -2.83398 -39 -3.50098zM177.999 198.001c0 12 20 19.335 60 22.002
c7.33301 0.666992 13.833 2.66699 19.5 6s11 8.5 16 15.5s8.66699 12.5 11 16.5s5.83301 11 10.5 21s7.33398 16 8.00098 18c6 12.667 14.5 24.5 25.5 35.5s21.5 16.5 31.5 16.5c15.333 0 29.666 -5.33301 42.999 -16s20 -23.334 20 -38.001
c0 -12.667 -4.33301 -23.334 -13 -32.001s-19.334 -13 -32.001 -13c-10.667 0 -20.167 3.83301 -28.5 11.5s-12.5 16.5 -12.5 26.5s3.66699 19 11 27l12 14c0 2.66699 -2 4 -6 4c-12 0 -28 -21.333 -48 -64c-12 -25.333 -26.667 -43.333 -44 -54
c19.333 -8.66699 29 -27 29 -55c0 -16 -8.33301 -46 -25 -90c-10.667 -28 -16 -44 -16 -48c0 -6.66699 3.66699 -10 11 -10c23.333 0 53.666 20.333 90.999 61c9.33301 10 33.333 40 72 90l14 -8c-8 -8.66699 -19.667 -23 -35 -43s-29.666 -37.667 -42.999 -53
s-25.666 -27.666 -36.999 -36.999c-24 -19.333 -52.667 -29 -86 -29c-30 0 -45 20 -45 60c0 19.333 8.66699 44.666 26 75.999c16.667 30.667 25 50.667 25 60c0 4 -1.66699 8.66699 -5 14c-23.333 -9.33301 -39.333 -14 -48 -14c-8 0 -12 3 -12 9z" />
    <glyph glyph-name="l" unicode="l" horiz-adv-x="248" 
d="M0 157c36.667 48.667 76.667 99 120 151l123 147c19.333 24 43.666 59 72.999 105l34 54.5l24.5 39.5l9.5 15l73 8l-140 -226c-48.667 -77.333 -119 -200 -211 -368c-16.667 -33.333 -25 -54 -25 -62c0 -6 3.33301 -9 10 -9c24.667 0 56.334 23.333 95.001 70l66 81
l14 -9c-46 -58 -73 -91 -81 -99c-39.333 -41.333 -74.333 -62 -105 -62c-12.667 0 -22 2.83301 -28 8.5s-9.5 11 -10.5 16s-1.5 12.5 -1.5 22.5c0 26.667 13.333 66.667 40 120c18 38.667 63 118 135 238l-201 -249z" />
    <glyph glyph-name="m" unicode="m" horiz-adv-x="691" 
d="M0 156c42.667 57.333 72.667 95.3311 90 113.998c47.333 51.333 85.333 77 114 77c24 0 36 -16.333 36 -49c0 -16.667 -12 -51.667 -36 -105c-7.33301 -14.667 -21.666 -40.667 -42.999 -78l66 88c26 33.333 49.667 61 71 83c38.667 40.667 74 61 106 61
c23.333 0 35 -16.333 35 -49c0 -34 -21.667 -92.333 -65 -175c107.333 149.333 186 224 236 224c7.33301 0 13 -0.5 17 -1.5s8 -5.16699 12 -12.5s6 -17.666 6 -30.999c0 -22 -7.33301 -53.167 -22 -93.5s-33.334 -77.166 -56.001 -110.499
c-30.667 -47.333 -46 -72.666 -46 -75.999c0 -7.33301 4.33301 -11 13 -11c22.667 0 52.667 20.667 90 62l72 89l13 -8l-58 -74c-21.333 -26 -40.333 -45.333 -57 -58c-25.333 -19.333 -49.333 -29 -72 -29c-12 0 -22.167 4.83301 -30.5 14.5s-12.5 20.167 -12.5 31.5
c0 15.333 4.5 37.166 13.5 65.499s18.5 52.5 28.5 72.5c8 14 25 39 51 75s39 58.667 39 68c0 5.33301 -3.33301 8 -10 8c-19.333 0 -46.333 -17 -81 -51c-64 -62 -131.667 -153.333 -203 -274l-90 -6c32 50 66.167 108.5 102.5 175.5s54.5 113.167 54.5 138.5
c0 7.33301 -2.66699 11 -8 11c-38 0 -128.667 -105.667 -272 -317l-91 -8c118 180.667 177 288.667 177 324c0 4 -1.66699 6 -5 6c-24 0 -81 -59.667 -171 -179z" />
    <glyph glyph-name="n" unicode="n" horiz-adv-x="498" 
d="M0 156l28.9961 38.501c14.667 19.667 24.334 32.334 29.001 38.001l23 28c10.667 13 20.334 23.5 29.001 31.5s18.334 16.333 29.001 25c24.667 20 47.334 30 68.001 30c20 0 30 -15 30 -45c0 -20.667 -12 -58 -36 -112c-2 -5.33301 -17.333 -34 -46 -86
c58 76 107 134.667 147 176c44 44.667 80.667 67 110 67c22.667 0 34 -16.667 34 -50c0 -26.667 -8.33301 -62 -25 -106c-5.33301 -14 -24.666 -45 -57.999 -93c-31.333 -46.667 -47 -72.334 -47 -77.001c0 -6.66699 5.66699 -10 17 -10c28 0 60 19.333 96 58
c7.33301 7.33301 32 38.333 74 93l13 -8l-58 -74c-20.667 -25.333 -39.334 -44.666 -56.001 -57.999c-25.333 -19.333 -51.333 -29 -78 -29c-14 0 -24.833 5.66699 -32.5 17s-11.5 23.666 -11.5 36.999c0 15.333 4.5 36.666 13.5 63.999s18.833 50.333 29.5 69
c11.333 18.667 31.333 46.667 60 84c22 28 33 46 33 54c0 5.33301 -3.66699 8 -11 8c-52.667 0 -152.667 -106.333 -300 -319l-95 -14c120.667 180 181 288 181 324c0 6 -2.33301 9 -7 9c-24 0 -81 -59.333 -171 -178z" />
    <glyph glyph-name="o" unicode="o" horiz-adv-x="346" 
d="M0 156c91.333 127.333 167.665 191.002 228.998 191.002c64 0 96 -30.667 96 -92c0 -58.667 -33.667 -122.334 -101 -191.001c2 -2 5.33301 -3 10 -3c24.667 0 63.667 33.667 117 101l14 -8c-29.333 -36.667 -49.333 -60.334 -60 -71.001c-28 -26 -54.667 -39 -80 -39
c-6.66699 0 -13 1 -19 3c-41.333 -36 -79.666 -54 -114.999 -54c-29.333 0 -48.666 9.83301 -57.999 29.5s-14 48.5 -14 86.5c0 19.333 5.33301 42 16 68l-22 -29zM71.999 34.002c0 -15.333 9.00098 -23.002 27.001 -23.002c29.333 0 59.666 14.667 90.999 44
c-3.33301 4.66699 -5 10.334 -5 17.001c0 19.333 10 29 30 29c3.33301 0 6 -0.333008 8 -1c45.333 70.667 68 129.334 68 176.001c0 35.333 -13 53 -39 53c-35.333 0 -75 -40.667 -119 -122c-40.667 -75.333 -61 -133 -61 -173z" />
    <glyph glyph-name="p" unicode="p" horiz-adv-x="445" 
d="M-152 -216l365.999 613.002l-201 -250l-13 9c34.667 46.667 104.667 134 210 262c22 25.333 41.333 48.666 58 69.999l58 97h53l-258 -452l155 164c37.333 34 68.333 51 93 51c20.667 0 31 -12.667 31 -38c0 -16 -4.16699 -39.333 -12.5 -70
s-17.833 -55.334 -28.5 -74.001c-12.667 -22.667 -32.667 -53 -60 -91c-22 -30 -33 -48.667 -33 -56c0 -6.66699 5 -10 15 -10c27.333 0 59.333 20 96 60c10 11.333 34.333 42.333 73 93l13 -9c-51.333 -74 -95.666 -122.667 -132.999 -146
c-17.333 -10 -35.666 -15 -54.999 -15c-12 0 -22.167 4.83301 -30.5 14.5s-12.5 20.167 -12.5 31.5c0 17.333 4.5 40.333 13.5 69s19.167 52.667 30.5 72c12.667 20.667 33.667 49 63 85c22 28 33 47 33 57c0 4 -3 6 -9 6c-18.667 0 -44.334 -15.333 -77.001 -46
c-30 -28 -85.333 -86 -166 -174l-38 -42l-160 -281h-74z" />
    <glyph glyph-name="q" unicode="q" horiz-adv-x="389" 
d="M0 155c44 62 86.3311 109.499 126.998 142.499s74.667 49.5 102 49.5c46.667 0 72.667 -21.667 78 -65l29 51l80 11l-184 -322c43.333 8.66699 97.333 55 162 139l14 -9c-62 -80 -117.667 -128.333 -167 -145c10 -27.333 15 -54.666 15 -81.999
c0 -41.333 -10.667 -75.166 -32 -101.499s-50.666 -39.5 -87.999 -39.5c-20 0 -32.833 3.5 -38.5 10.5s-8.5 17.167 -8.5 30.5c0 40.667 28.333 113.667 85 219c-40 -35.333 -76 -53 -108 -53c-19.333 0 -32.166 8.83301 -38.499 26.5s-9.5 43.167 -9.5 76.5
c0 25.333 5.66699 52.666 17 81.999l-22 -30zM57.998 23.999c0 -11.333 5.66699 -17 17 -17c21.333 0 46.666 12.333 75.999 37c26.667 22.667 51.334 53 74.001 91c43.333 73.333 65 122.333 65 147c0 12.667 -3.66699 23.667 -11 33s-17 14 -29 14
c-30 0 -70.333 -42.333 -121 -127c-47.333 -80 -71 -139.333 -71 -178zM136.998 -186.001c0 -8.66699 4.33301 -13 13 -13c28 0 50 12.833 66 38.5s24 55.5 24 89.5c0 27.333 -5 54 -15 80c-58.667 -109.333 -88 -174.333 -88 -195z" />
    <glyph glyph-name="r" unicode="r" horiz-adv-x="336" 
d="M0 157c11.333 16 38.666 50.3359 81.999 103.003l86 92c-7.33301 8.66699 -11 17 -11 25c0 9.33301 4.16699 18.333 12.5 27s16.833 13 25.5 13c12 0 18 -6 18 -18c0 -8.66699 -7 -23.334 -21 -44.001c23.333 -10.667 40.333 -19 51 -25
c0.666992 -0.666992 3.66699 -2.33398 9 -5.00098s8.5 -4.33398 9.5 -5.00098l7.5 -5c4 -2.66699 6.66699 -5 8 -7l5 -7.5c2 -3 3.33301 -6.33301 4 -10s1 -7.5 1 -11.5c0 -16 -4.33301 -33 -13 -51l-31 -61c-47.333 -90.667 -71 -139.334 -71 -146.001c0 -6 3 -9 9 -9
c32 0 85.333 50.333 160 151l14 -9l-7 -9c-50 -65.333 -85.667 -106.333 -107 -123c-25.333 -19.333 -51 -29 -77 -29c-11.333 0 -20.5 4.66699 -27.5 14s-10.5 21 -10.5 35c0 18.667 5.33301 44.834 16 78.501s24.334 64.167 41.001 91.5c35.333 58.667 53 91 53 97
c0 3.33301 -18 14.666 -54 33.999l-95 -101c-16 -19.333 -40.333 -50.666 -73 -93.999z" />
    <glyph glyph-name="s" unicode="s" horiz-adv-x="291" 
d="M-1 91c0 34 15.3359 51 46.0029 51c12 0 22.667 -4 32 -12s14 -18 14 -30c0 -15.333 -8.66699 -28 -26 -38c-16.667 -10 -25 -16.667 -25 -20c0 -5.33301 3.33301 -10.166 10 -14.499s13.667 -6.5 21 -6.5c23.333 0 49.666 28 78.999 84c24.667 48 37 98.333 37 151
c0 5.33301 -1 19.833 -3 43.5s-3 38.5 -3 44.5c-66 -70.667 -121.667 -136 -167 -196l-14 9c41.333 54 101.666 124.667 180.999 212c6 37.333 22 56 48 56c8 0 12 -3.33301 12 -10c0 -5.33301 -14 -23 -42 -53l-1 -8c0 -10 8.66699 -37.333 26 -82
c9.33301 -24 14 -53.667 14 -89c0 -12.667 -0.666992 -25 -2 -37c-6.66699 -38 -12.334 -63 -17.001 -75c13.333 11.333 38.666 42 75.999 92l14 -9c-39.333 -52.667 -70.666 -89.334 -93.999 -110.001c-40 -34 -83.667 -51 -131 -51c-31.333 0 -53.333 8.16699 -66 24.5
s-19 40.833 -19 73.5z" />
    <glyph glyph-name="t" unicode="t" horiz-adv-x="257" 
d="M0 157c23.333 32.667 89.999 115.334 199.999 248.001c6.66699 7.33301 29.667 35.333 69 84c2 2.66699 5.5 8.16699 10.5 16.5s9.5 15.5 13.5 21.5l62 91l71 9l-91 -147h94v-17h-106c-159.333 -264.667 -239 -411.334 -239 -440.001c0 -7.33301 5.33301 -11 16 -11
c23.333 0 53.333 20.333 90 61c10.667 12 34.667 42 72 90l13 -8l-81 -101c-38.667 -40.667 -73.667 -61 -105 -61c-13.333 0 -23.166 2.83301 -29.499 8.5s-10 11.167 -11 16.5s-1.5 13.333 -1.5 24c0 14.667 5.5 37.5 16.5 68.5s24.5 60.833 40.5 89.5l113 201l-204 -252z
" />
    <glyph glyph-name="u" unicode="u" horiz-adv-x="455" 
d="M0 156l85.001 106.999c9.33301 10.667 35 36.334 77 77.001l88 8c-32 -52 -76.333 -129 -133 -231c-28 -56 -42 -87.667 -42 -95c0 -6.66699 3.66699 -10 11 -10c17.333 0 49 24.667 95 74c52 56.667 114 141.667 186 255l92 7l-80 -137
c-29.333 -51.333 -53.666 -98.333 -72.999 -141c-12.667 -27.333 -19 -44 -19 -50s3.33301 -9 10 -9c22.667 0 52.667 20.333 90 61c19.333 20.667 43.666 50.667 72.999 90l13 -8c-7.33301 -8 -26.666 -32.667 -57.999 -74c-21.333 -26 -40.333 -45.333 -57 -58
c-25.333 -19.333 -51 -29 -77 -29s-39 13.333 -39 40c0 12.667 3.83301 32.167 11.5 58.5s16.167 49.5 25.5 69.5l48 92c-62.667 -92.667 -116.334 -161 -161.001 -205c-36 -36 -68.667 -54 -98 -54c-9.33301 0 -17.833 4.33301 -25.5 13s-11.5 18 -11.5 28
c0 21.333 11 57.5 33 108.5s51 106.5 87 166.5c-32.667 -30 -78.334 -84 -137.001 -162z" />
    <glyph glyph-name="v" unicode="v" horiz-adv-x="419" 
d="M0 156l29.998 39.501l28.5 37.5c5.66699 7.33301 13.5 16.666 23.5 27.999s19.333 21.333 28 30s18.334 17.334 29.001 26.001c24 20 46.333 30 67 30c16 0 24 -10 24 -30c0 -20.667 -5.66699 -50.5 -17 -89.5s-25 -72.5 -41 -100.5
c-34.667 -59.333 -52 -93.333 -52 -102c0 -10.667 8.33301 -16 25 -16c37.333 0 85.333 28.333 144 85c-23.333 15.333 -35 39.666 -35 72.999c0 50 19 97 57 141c22 26 42.667 39 62 39c24.667 0 37 -15.667 37 -47c0 -33.333 -10.667 -69.333 -32 -108
c-12 -22.667 -33.333 -54 -64 -94c4.66699 -1.33301 10.667 -2 18 -2c18.667 0 36.334 7.33301 53.001 22c7.33301 6 20.333 20.667 39 44l13 -8c-20 -24.667 -35 -41.334 -45 -50.001c-18 -15.333 -38 -23 -60 -23c-12 0 -22 1.66699 -30 5c-62 -62 -115.667 -93 -161 -93
c-35.333 0 -53 32.333 -53 97c0 28.667 9.33301 61.334 28 98.001c13.333 24.667 31 52.667 53 84c19.333 28.667 29 45.667 29 51c0 2 -2.66699 3 -8 3c-27.333 0 -86 -59.333 -176 -178zM271.998 156.001c0 -22 8.66699 -39.001 26 -51.001c26 31.333 46.5 62.333 61.5 93
s22.5 54 22.5 70c0 11.333 -5.66699 17 -17 17c-20 0 -40.5 -15.667 -61.5 -47s-31.5 -58.666 -31.5 -81.999z" />
    <glyph glyph-name="w" unicode="w" horiz-adv-x="580" 
d="M0 156l84.0039 107.003c17.333 19.333 43 45 77 77l92 7c-68.667 -100 -123 -191.333 -163 -274c-12 -26 -18 -42 -18 -48s4 -9 12 -9c45.333 0 137.666 108 276.999 324l93 7c-30 -44 -62.333 -98.333 -97 -163c-46.667 -85.333 -70 -139.333 -70 -162
c0 -8.66699 7.33301 -13 22 -13c40.667 0 89.334 30.333 146.001 91c-17.333 14.667 -26 37.667 -26 69c0 45.333 15.333 89.666 46 132.999c25.333 35.333 49 53 71 53c24.667 0 37 -15 37 -45c0 -52.667 -34.667 -121.667 -104 -207c9.33301 -2.66699 16.333 -4 21 -4
c22.667 0 51 21 85 63l13 -8c-16.667 -21.333 -30.667 -37 -42 -47c-18.667 -15.333 -37.334 -23 -56.001 -23c-10.667 0 -21.334 2 -32.001 6c-58.667 -64.667 -111.667 -97 -159 -97c-26.667 0 -46.167 4.5 -58.5 13.5s-18.5 25.5 -18.5 49.5c0 6.66699 1.5 15 4.5 25
s7.83301 22.167 14.5 36.5s12.667 26.666 18 36.999l23 43.5l21 40l-82 -113c-32.667 -43.333 -64.667 -77.333 -96 -102c-20.667 -16 -42.334 -24 -65.001 -24c-14 0 -24 4.66699 -30 14s-9 19.666 -9 30.999c0 20 11.167 54.5 33.5 103.5s51.166 103.167 86.499 162.5
c-35.333 -32 -81.333 -86 -138 -162zM449.004 154.003c0 -18 5.33301 -32.334 16 -43.001c14 16 31.5 43.333 52.5 82s31.5 66.334 31.5 83.001c0 10.667 -5.33301 16 -16 16c-4.66699 0 -9.66699 -2.5 -15 -7.5s-12 -12.833 -20 -23.5s-13.667 -18 -17 -22
c-21.333 -26.667 -32 -55 -32 -85z" />
    <glyph glyph-name="x" unicode="x" horiz-adv-x="399" 
d="M-12 45c0 30 15.6631 44.9971 46.9961 44.9971c18.667 0 32 -7.66699 40 -23s13.667 -23 17 -23c6.66699 0 18.167 10.833 34.5 32.5s33.833 50.5 52.5 86.5v17c0 29.333 4 65.333 12 108c2.66699 11.333 4 20.666 4 27.999c0 6.66699 -3.66699 10 -11 10
c-24 0 -81 -59.333 -171 -178l-13 8c42.667 56.667 73 95 91 115c46.667 50.667 85 76 115 76c19.333 0 31 -41.667 35 -125c22 39.333 44.667 70 68 92s44.666 33 63.999 33c14.667 0 27 -4.66699 37 -14s15 -21 15 -35c0 -28 -14.333 -42 -43 -42
c-19.333 0 -32.333 7.66699 -39 23c-3.33301 20.667 -6.66602 31 -9.99902 31c-8 0 -23.167 -16.5 -45.5 -49.5s-37.166 -57.833 -44.499 -74.5v-18c0 -33.333 -4.33301 -68.666 -13 -105.999c-3.33301 -13.333 -5 -23.666 -5 -30.999c0 -13.333 5.66699 -20 17 -20
c23.333 0 53.333 20.333 90 61c12 13.333 36 43.333 72 90l13 -8l-7 -9c-44 -59.333 -80 -100.666 -108 -123.999c-23.333 -18.667 -47.333 -28 -72 -28c-6.66699 0 -12.667 1.33301 -18 4s-9.66602 6.83398 -12.999 12.501s-6 11.5 -8 17.5s-3.5 13.833 -4.5 23.5
s-1.83301 18.167 -2.5 25.5s-1.16699 17 -1.5 29s-0.833008 21.333 -1.5 28c-23.333 -43.333 -47.166 -77.5 -71.499 -102.5s-46.166 -37.5 -65.499 -37.5c-14.667 0 -27.667 5.16699 -39 15.5s-17 22.5 -17 36.5z" />
    <glyph glyph-name="y" unicode="y" horiz-adv-x="466" 
d="M-5 -166c0 30.667 27.667 61.3311 83 91.998c22.667 11.333 64.334 29.333 125.001 54l109 222c-42 -58 -73.667 -99.333 -95 -124c-50 -58 -91 -87 -123 -87c-12.667 0 -22.5 4.5 -29.5 13.5s-10.5 18.5 -10.5 28.5c0 36 11.667 76 35 120s49.666 83.667 78.999 119
c23.333 28.667 35 44.334 35 47.001c0 5.33301 -3.33301 8 -10 8c-28.667 0 -88.334 -60.333 -179.001 -181l-14 9c96 128 163 192 201 192c20 0 30 -13.333 30 -40c0 -15.333 -4.33301 -37.5 -13 -66.5s-18.667 -53.5 -30 -73.5c-15.333 -26 -36.666 -57.667 -63.999 -95
c-23.333 -32.667 -35 -51.667 -35 -57s3.66699 -8 11 -8c36 0 107 74.333 213 223c13.333 18.667 34.666 53.667 63.999 105l85 10l-95 -169l-85 -169c1.33301 0.666992 6 2.33398 14 5.00098l21 7c42.667 17.333 94 64.666 154 141.999l13 -9
c-38 -49.333 -72.167 -85.666 -102.5 -108.999s-66.5 -41.666 -108.5 -54.999c-40.667 -76.667 -74.667 -129.834 -102 -159.501s-62.666 -44.5 -105.999 -44.5c-18.667 0 -35 4.5 -49 13.5s-21 21.167 -21 36.5zM26 -174.003c0 -8 3.5 -14.667 10.5 -20s14.833 -8 23.5 -8
c40.667 0 85.667 54.333 135 163c-112.667 -52 -169 -97 -169 -135z" />
    <glyph glyph-name="z" unicode="z" horiz-adv-x="388" 
d="M0 155l28.9961 38.4971c14.667 19.667 24.334 32.334 29.001 38.001l23 28c10.667 13 20.334 23.5 29.001 31.5s18.334 16.333 29.001 25c26 20.667 49 31 69 31c12.667 0 19 -3.33301 19 -10c0 -2 -1.33301 -7.66699 -4 -17s-4 -17.666 -4 -24.999
c0 -16.667 -7 -36 -21 -58c-14.667 -23.333 -22 -35.333 -22 -36c0 -6 8.66699 -9 26 -9c14.667 0 37 3.33301 67 10c60 96.667 102.333 145 127 145c12 0 18 -6 18 -18c0 -12.667 -8 -29.667 -24 -51c-24 -32 -59.333 -60.333 -106 -85
c-31.333 -50.667 -63.333 -88.334 -96 -113.001c32 -13.333 52 -29.666 60 -48.999c38.667 12 87 55.333 145 130l13 -9c-60 -76.667 -110.667 -121.667 -152 -135c6 -18 9 -35.667 9 -53c0 -52.667 -23.333 -96.334 -70 -131.001c-44 -32.667 -92.667 -49 -146 -49
c-11.333 0 -21.166 5.33301 -29.499 16s-12.5 22 -12.5 34c0 22 14.667 46.833 44 74.5s59.833 50.667 91.5 69s60.5 32.833 86.5 43.5c0.666992 2 1 4.66699 1 8c0 8 -3 14.5 -9 19.5s-13.667 9.5 -23 13.5s-15.333 7 -18 9c-27.333 -19.333 -44 -30.666 -50 -33.999
c-18.667 -10 -38 -15 -58 -15c-19.333 0 -29 7.66699 -29 23c0 13.333 9.83301 23.833 29.5 31.5s39.834 11.5 60.501 11.5c15.333 0 29.666 -1.33301 42.999 -4c30.667 24.667 59.667 59.334 87 104.001c-28 -7.33301 -50.667 -11 -68 -11c-16 0 -26.333 3 -31 9
s-7 16.667 -7 32v21c0 15.333 5.33301 32.666 16 51.999c11.333 20.667 17 31.334 17 32.001c0 2 -1 3 -3 3c-24.667 0 -82 -60 -172 -180zM28.9961 -166.003c0 -21.333 5.99902 -31.998 17.999 -31.998c25.333 0 49.333 8.16699 72 24.5s41.334 36.166 56.001 59.499
s26.5 45.666 35.5 66.999s14.5 39 16.5 53c-132 -74 -198 -131.333 -198 -172z" />
    <glyph glyph-name="braceleft" unicode="{" 
d="M128 248c0 4.66699 1.66895 8.00293 5.00195 10.0029s9.66602 3.5 18.999 4.5s17 2.5 23 4.5c24 6 46.833 17.667 68.5 35s37.5 37.666 47.5 60.999c4.66699 10 19.167 56.667 43.5 140s39.833 130.666 46.5 141.999c18.667 34.667 48.167 60.834 88.5 78.501
s78.833 26.5 115.5 26.5c11.333 0 17 -3.66699 17 -11c0 -5.33301 -2 -8.66602 -6 -9.99902s-11.833 -2.66602 -23.5 -3.99902s-23.167 -4 -34.5 -8c-55.333 -20 -91.666 -59 -108.999 -117c-48.667 -160 -74.334 -242.667 -77.001 -248
c-22.667 -48 -69.667 -82.333 -141 -103c52.667 -18.667 79 -49.667 79 -93c0 -14.667 -13.833 -66 -41.5 -154s-41.5 -138.667 -41.5 -152c0 -8.66699 1.33301 -16.834 4 -24.501s6 -14.167 10 -19.5s8.83301 -10 14.5 -14s11.167 -7.16699 16.5 -9.5s11 -4.33301 17 -6
s11 -2.83398 15 -3.50098s7.66699 -1 11 -1l5 -1c7.33301 -4 8.33301 -9.33301 3 -16c-3.33301 -3.33301 -9 -5 -17 -5c-12.667 0 -26.334 1.66699 -41.001 5s-30 8.5 -46 15.5s-29.333 17.667 -40 32s-16 30.833 -16 49.5c0 16 13.833 67.333 41.5 154
s41.5 137.667 41.5 153c0 20 -6.5 37.167 -19.5 51.5s-30.5 23.166 -52.5 26.499c-1.33301 0 -3.5 0.166992 -6.5 0.5s-5.33301 0.666016 -7 0.999023s-3.66699 0.833008 -6 1.5s-4 1.66699 -5 3s-1.5 3 -1.5 5z" />
    <glyph glyph-name="bar" unicode="|" horiz-adv-x="227" 
d="M24 -229c0 2 0.166992 4.16992 0.5 6.50293s1 4.66602 2 6.99902s1.5 4.16602 1.5 5.49902l282 930c4 19.333 12 29 24 29s18 -6.66699 18 -20c0 -4.66699 -16 -59.667 -48 -165l-236 -782l-2 -6c-2 -4.66699 -3.33301 -7.83398 -4 -9.50098s-2 -4 -4 -7
s-4.33301 -5.16699 -7 -6.5s-5.66699 -2 -9 -2c-12 0 -18 6.66699 -18 20z" />
    <glyph glyph-name="braceright" unicode="}" 
d="M-21 -240c0 5.33301 2.00488 8.66602 6.00488 9.99902s11.833 2.83301 23.5 4.5s23.167 4.5 34.5 8.5c12.667 4.66699 24.167 10.167 34.5 16.5s19.166 13 26.499 20s13.666 13.833 18.999 20.5s9.83301 13.5 13.5 20.5s6.33398 12.833 8.00098 17.5
s3.5 9.33398 5.5 14.001l2 8c48.667 160 74.334 242.667 77.001 248c22 47.333 69 81.666 141 102.999c-21.333 7.33301 -39.833 18.5 -55.5 33.5s-23.5 34.833 -23.5 59.5c0 15.333 13.833 66.5 41.5 153.5s41.5 137.5 41.5 151.5c0 10.667 -1.66699 20.167 -5 28.5
s-7.66602 15.166 -12.999 20.499s-11.333 10 -18 14s-13.334 7 -20.001 9s-12.667 3.66699 -18 5s-10 2 -14 2l-5 1c-8.66699 4 -9.66699 9.33301 -3 16c3.33301 3.33301 8.66602 5 15.999 5c18 0 37.167 -2.66699 57.5 -8s39.833 -16.166 58.5 -32.499
s28 -37.166 28 -62.499c0 -14.667 -13.833 -65.667 -41.5 -153s-41.5 -138.333 -41.5 -153c0 -22 7.16699 -39.667 21.5 -53s31.166 -21.666 50.499 -24.999l9 -1c6.66699 -0.666992 11.167 -1.83398 13.5 -3.50098s3.5 -4.16699 3.5 -7.5
c0 -4.66699 -1.83301 -7.83398 -5.5 -9.50098s-10.334 -3.16699 -20.001 -4.5s-17.167 -2.66602 -22.5 -3.99902c-55.333 -14.667 -93.666 -46.334 -114.999 -95.001c-0.666992 -2 -25.334 -82.667 -74.001 -242c-4 -13.333 -7.33301 -23.666 -10 -30.999
s-10.334 -18.833 -23.001 -34.5s-28.334 -29.167 -47.001 -40.5c-43.333 -26.667 -90 -40 -140 -40c-11.333 0 -17 3.33301 -17 10z" />
    <glyph glyph-name="asciitilde" unicode="~" horiz-adv-x="533" 
d="M238 577c0 9.33301 17.502 26.834 52.502 52.501s66.5 38.5 94.5 38.5c22.667 0 49 -11 79 -33s53.333 -33 70 -33c16 0 32.333 4.5 49 13.5s32 19.167 46 30.5s21.333 17.333 22 18c3.33301 2 6.66602 2.33301 9.99902 1s5 -4 5 -8c0 -2 -4 -8 -12 -18
c-52.667 -48.667 -97.334 -73 -134.001 -73c-22.667 0 -49 11 -79 33s-54 33 -72 33c-16 0 -33 -5.33301 -51 -16s-33.333 -21.334 -46 -32.001s-21 -16 -25 -16c-6 0 -9 3 -9 9z" />
    <glyph glyph-name="dieresis" unicode="&#xa8;" 
d="M266 605c0 17.333 7.16797 33.001 21.501 47.001s30.166 21 47.499 21c14 0 25.5 -4.83301 34.5 -14.5s13.5 -21.834 13.5 -36.501c0 -19.333 -6.5 -35.5 -19.5 -48.5s-28.833 -19.5 -47.5 -19.5c-14 0 -25.833 5 -35.5 15s-14.5 22 -14.5 36zM421.001 605.001
c0 17.333 7.16797 33 21.501 47s30.166 21 47.499 21c14 0 25.667 -5 35 -15s14 -22 14 -36c0 -18.667 -6.66699 -34.667 -20 -48s-29.333 -20 -48 -20c-14 0 -25.833 5 -35.5 15s-14.5 22 -14.5 36z" />
    <glyph glyph-name="guillemotleft" unicode="&#xab;" horiz-adv-x="482" 
d="M154 214c0 2.66699 0.5 4.83105 1.5 6.49805s3.33301 3.83398 7 6.50098s7.66699 5.33398 12 8.00098s11.5 7.33398 21.5 14.001l30 20c44.667 30.667 84.667 60 120 88l71 57c12 10 20 15 24 15c6 0 9 -2.66699 9 -8c-0.666992 -8.66699 -31.167 -39.334 -91.5 -92.001
s-106.5 -91 -138.5 -115v-1c22 -30 43.5 -65.5 64.5 -106.5s34.167 -69.5 39.5 -85.5c1.33301 -4 2 -7 2 -9c0 -6.66699 -3 -10 -9 -10c-4.66699 0 -9.66699 4 -15 12c-39.333 64 -85.333 125.333 -138 184c-6.66699 6.66699 -10 12 -10 16zM314 214.997
c0 1.33301 0.170898 2.66699 0.503906 4s1.16602 2.66602 2.49902 3.99902s2.66602 2.5 3.99902 3.5l6.5 5c3 2.33301 6.16699 4.66602 9.5 6.99902l13.5 9.5l16.5 12c31.333 23.333 60 46.333 86 69l53 46.5c9.33301 8.33301 16 12.5 20 12.5c6 0 9 -2.66699 9 -8
c-0.666992 -7.33301 -22.834 -31.833 -66.501 -73.5s-78.167 -72.5 -103.5 -92.5v-1c12 -19.333 26.833 -48.333 44.5 -87s26.5 -63.667 26.5 -75c0 -5.33301 -3.33301 -8 -10 -8c-4.66699 0 -8.83398 3.33301 -12.501 10l-23.5 44c-12 22.667 -27.667 47.334 -47 74.001
c-3.33301 5.33301 -7.83301 11.5 -13.5 18.5s-9.66699 12.333 -12 16s-3.5 6.83398 -3.5 9.50098z" />
    <glyph glyph-name="acute" unicode="&#xb4;" 
d="M333 513c0 6 7 14.332 21 24.999c90.667 71.333 139.334 108.333 146.001 111c2.66699 1.33301 6.33398 2 11.001 2c7.33301 0 13.666 -2.66699 18.999 -8s8 -11.666 8 -18.999v-1c-0.666992 -14 -11.334 -26.333 -32.001 -37c-102 -58 -155.333 -87 -160 -87
c-8.66699 0 -13 4.66699 -13 14z" />
    <glyph glyph-name="guillemotright" unicode="&#xbb;" horiz-adv-x="482" 
d="M76 51c0 7.33301 21.833 31.833 65.5 73.5s78.167 72.5 103.5 92.5c-18 30 -33.833 61.333 -47.5 94s-21.167 53.667 -22.5 63v2c0 8 3 12 9 12c4 0 7.66699 -2 11 -6c1.33301 -2 4.83301 -9 10.5 -21s14.334 -27.667 26.001 -47s25.167 -39.666 40.5 -60.999
c16 -21.333 24 -33.333 24 -36v-1c0 -4 -4.66699 -9.66699 -14 -17c-41.333 -30.667 -78.333 -59.834 -111 -87.501l-65 -55c-10.667 -9 -18.334 -13.5 -23.001 -13.5s-7 2.66699 -7 8zM161 10c0 1.33301 3.33398 7.00098 10.001 17.001
c71.333 71.333 144.333 134.666 219 189.999c-49.333 74 -84 138.333 -104 193c-4.66699 12.667 -2 19 8 19c4.66699 0 9.66699 -4.33301 15 -13l35.5 -55c18.333 -28 41.5 -58.333 69.5 -91c5.33301 -6.66699 10.666 -13 15.999 -19s9.5 -10.5 12.5 -13.5
s5.5 -5.83301 7.5 -8.5s3.5 -4.83398 4.5 -6.50098s1.5 -3.5 1.5 -5.5v-1c0 -1.33301 -0.333008 -2.66602 -1 -3.99902s-1.83398 -2.83301 -3.50098 -4.5s-3.5 -3.16699 -5.5 -4.5s-5 -3.5 -9 -6.5s-8.16699 -5.83301 -12.5 -8.5l-17.5 -11
c-7.33301 -4.66699 -14.666 -9.66699 -21.999 -15c-45.333 -30.667 -85.5 -60 -120.5 -88l-71 -57c-12.333 -10 -20.5 -15 -24.5 -15c-5.33301 0 -8 2.66699 -8 8z" />
    <glyph glyph-name="dotlessi" unicode="&#x131;" horiz-adv-x="238" 
d="M0 157c58 76 112 137.667 162 185l88 6c-120.667 -194 -181 -303 -181 -327c0 -6 4 -9 12 -9c32.667 0 84.334 47.333 155.001 142l7 9l13 -9l-58 -73c-16.667 -20 -29.334 -34.667 -38.001 -44s-22 -19 -40 -29s-36.333 -15 -55 -15c-31.333 0 -47 13.333 -47 40
c0 31.333 26.667 93.333 80 186l53 92c-39.333 -37.333 -85 -91.333 -137 -162z" />
    <glyph glyph-name="acutecomb" unicode="&#x301;" horiz-adv-x="0" 
d="M-138 643c0 6 7 14.332 21 24.999c90.667 71.333 139.334 108.333 146.001 111c2.66699 1.33301 6.33398 2 11.001 2c7.33301 0 13.666 -2.66699 18.999 -8s8 -11.666 8 -18.999v-1c-0.666992 -14 -11.334 -26.333 -32.001 -37c-102 -58 -155.333 -87 -160 -87
c-8.66699 0 -13 4.66699 -13 14z" />
    <glyph glyph-name="Io" unicode="&#x401;" horiz-adv-x="586" 
d="M478 796c0 17.333 7.16797 33.001 21.501 47.001s30.166 21 47.499 21c14 0 25.5 -4.83301 34.5 -14.5s13.5 -21.834 13.5 -36.501c0 -19.333 -6.5 -35.5 -19.5 -48.5s-28.833 -19.5 -47.5 -19.5c-14 0 -25.833 5 -35.5 15s-14.5 22 -14.5 36zM633.001 796.001
c0 17.333 7.16797 33 21.501 47s30.166 21 47.499 21c14 0 25.667 -5 35 -15s14 -22 14 -36c0 -18.667 -6.66699 -34.667 -20 -48s-29.333 -20 -48 -20c-14 0 -25.833 5 -35.5 15s-14.5 22 -14.5 36zM86.002 192.001c0 42 14.1729 79.666 42.5059 112.999
s62.166 58.833 101.499 76.5s82.666 30.5 129.999 38.5c-39.333 35.333 -59 74.333 -59 117c0 51.333 23.5 92 70.5 122s101.5 45 163.5 45c49.333 0 88.833 -11.167 118.5 -33.5s44.5 -55.166 44.5 -98.499c0 -33.333 -10.667 -63.333 -32 -90s-47.333 -40 -78 -40
c-20.667 0 -37.334 7.33301 -50.001 22s-19 32.667 -19 54c0 38.667 25.667 73.667 77 105l9 -11c-39.333 -33.333 -59 -69.333 -59 -108c0 -13.333 4.16699 -24.666 12.5 -33.999s18.833 -14 31.5 -14c25.333 0 47 12.167 65 36.5s27 51.166 27 80.499
c0 31.333 -10 57.666 -30 78.999s-45.333 32 -76 32c-26 0 -55.5 -5.66699 -88.5 -17s-58.167 -26.333 -75.5 -45c-32.667 -36 -49 -76 -49 -120c0 -6.66699 1.16699 -13.167 3.5 -19.5s5.66602 -12.5 9.99902 -18.5l11 -15c3 -4 7.16699 -8.5 12.5 -13.5
s8.66602 -8.16699 9.99902 -9.5h26c22.667 0 45.5 -3.5 68.5 -10.5s34.5 -16.833 34.5 -29.5c0 -16 -13 -24 -39 -24c-32 0 -69.667 12.667 -113 38c-90 -29.333 -148.667 -64.666 -176 -105.999c-34 -50.667 -51 -105.667 -51 -165c0 -38.667 16.5 -68.834 49.5 -90.501
s72.5 -32.5 118.5 -32.5c54 0 100.167 14 138.5 42s64.5 64.667 78.5 110c5.33301 18 8 32 8 42c0 20.667 -5.83301 37.834 -17.5 51.501s-27.167 20.5 -46.5 20.5c-26 0 -50.333 -12 -73 -36c-38.667 -39.333 -58.334 -90.333 -59.001 -153h-15c-8 20 -12 40 -12 60
c0 41.333 14.167 76.333 42.5 105s62.833 43 103.5 43c26.667 0 49 -8.33301 67 -25s27 -38 27 -64c0 -49.333 -19.333 -94.333 -58 -135c-48 -50.667 -110 -76 -186 -76c-64 0 -118.333 17.333 -163 52c-51.333 40 -77 89.667 -77 149zM426.008 409
c22.667 -21.333 45 -32 67 -32c12.667 0 19 4 19 12c0 6 -7.33301 11.167 -22 15.5s-27.667 6.5 -39 6.5c-4.66699 0 -13 -0.666992 -25 -2z" />
    <glyph glyph-name="Ecyril" unicode="&#x404;" horiz-adv-x="586" 
d="M86 192c0 54.667 11.834 108.999 35.501 162.999s53.667 101.333 90 142s75 77 116 109s80 56.333 117 73s67.167 25 90.5 25c49.333 0 88.833 -11.167 118.5 -33.5s44.5 -55.166 44.5 -98.499c0 -33.333 -10.667 -63.333 -32 -90s-47.333 -40 -78 -40
c-20.667 0 -37.334 7.33301 -50.001 22s-19 32.667 -19 54c0 38.667 25.667 73.667 77 105l9 -11c-39.333 -33.333 -59 -69.333 -59 -108c0 -13.333 4.16699 -24.666 12.5 -33.999s18.833 -14 31.5 -14c25.333 0 47 12.167 65 36.5s27 51.166 27 80.499
c0 31.333 -10 57.666 -30 78.999s-45.333 32 -76 32c-24.667 0 -53.5 -5.83301 -86.5 -17.5s-58.833 -26.5 -77.5 -44.5c-56 -55.333 -116.667 -140.333 -182 -255c14.667 8.66699 41.667 20.334 81 35.001c12 4.66699 29.5 9 52.5 13s39.167 6 48.5 6
c12 0 22.667 -4.33301 32 -13s14 -19 14 -31c0 -8.66699 -3 -20.667 -9 -36c-1.33301 -2.66699 -3.16602 -6 -5.49902 -10s-4.5 -7.33301 -6.5 -10l-3 -4c0 -6 4.33301 -9 13 -9c16 0 38.833 5.83301 68.5 17.5s54.5 27.167 74.5 46.5l11 -9
c-22.667 -22 -50.834 -39.333 -84.501 -52s-60.167 -19 -79.5 -19c-14 0 -25.833 4.5 -35.5 13.5s-14.5 20.5 -14.5 34.5c0 9.33301 2 20.666 6 33.999c0.666992 2.66699 2.16699 6 4.5 10s4.5 7.33301 6.5 10l2 5c0 3.33301 -2.33301 5 -7 5
c-13.333 0 -40.666 -6.66699 -81.999 -20s-76 -29.666 -104 -48.999l-9 -17c-29.333 -60 -44 -123 -44 -189c0 -39.333 15 -69.833 45 -91.5s67.667 -32.5 113 -32.5c55.333 0 115.166 14.333 179.499 43s114.5 67 150.5 115l14 -9c-38.667 -50 -90.167 -89.667 -154.5 -119
s-124.833 -44 -181.5 -44c-64 0 -118.333 17.333 -163 52c-51.333 40 -77 89.667 -77 149z" />
    <glyph glyph-name="Icyril" unicode="&#x406;" horiz-adv-x="577" 
d="M-26 120c0 26 8.33398 48.1641 25.001 66.4971s37.667 27.5 63 27.5c16.667 0 31 -5.33301 43 -16s18 -24 18 -40c0 -21.333 -9.33301 -36.333 -28 -45l-52 -15c-18.667 -6 -28 -16.333 -28 -31c0 -19.333 15 -35 45 -47c24 -10 47 -15 69 -15
c30 0 62.5 5.83301 97.5 17.5s61.167 27.834 78.5 48.501c12.667 14.667 39.334 59.334 80.001 134.001c-43.333 4 -85.833 22.667 -127.5 56s-62.5 71 -62.5 113c0 35.333 9.66699 68.833 29 100.5s45.166 59.167 77.499 82.5s65.666 43.333 99.999 60s70.5 31 108.5 43
c83.333 26.667 166 40.334 248 41.001v-15c-45.333 0 -82 -18.667 -110 -56c-23.333 -30 -45.333 -76.333 -66 -139c-10 -30.667 -24.667 -81.334 -44 -152.001c-6.66699 -24.667 -19 -59.667 -37 -105c36.667 16 67.5 38 92.5 66s37.5 61.333 37.5 100
c0 12.667 -2 30 -6 52l16 1c4 -23.333 6 -41 6 -53c0 -43.333 -15.167 -81.666 -45.5 -114.999s-66.833 -57 -109.5 -71c-50 -100.667 -124.667 -168.667 -224 -204c-41.333 -14.667 -83.333 -22 -126 -22c-43.333 0 -81.333 10.667 -114 32c-36 24 -54 57.333 -54 100z
M252.001 310.997c0 -22.667 13.8311 -42.168 41.498 -58.501s60.5 -27.833 98.5 -34.5l85 177c8 14.667 19.833 38.334 35.5 71.001s27.334 55.834 35.001 69.501s18.667 31.167 33 52.5s30 39.166 47 53.499s36.833 27.833 59.5 40.5
c-70.667 -10 -127.667 -23.667 -171 -41s-85.666 -45 -126.999 -83c-54 -49.333 -94 -106.333 -120 -171c-11.333 -28 -17 -53.333 -17 -76z" />
    <glyph glyph-name="Yi" unicode="&#x407;" horiz-adv-x="577" 
d="M478 796c0 17.333 7.16797 33.001 21.501 47.001s30.166 21 47.499 21c14 0 25.5 -4.83301 34.5 -14.5s13.5 -21.834 13.5 -36.501c0 -19.333 -6.5 -35.5 -19.5 -48.5s-28.833 -19.5 -47.5 -19.5c-14 0 -25.833 5 -35.5 15s-14.5 22 -14.5 36zM633.001 796.001
c0 17.333 7.16797 33 21.501 47s30.166 21 47.499 21c14 0 25.667 -5 35 -15s14 -22 14 -36c0 -18.667 -6.66699 -34.667 -20 -48s-29.333 -20 -48 -20c-14 0 -25.833 5 -35.5 15s-14.5 22 -14.5 36zM-25.998 120.001c0 26 8.33398 48.1641 25.001 66.4971
s37.667 27.5 63 27.5c16.667 0 31 -5.33301 43 -16s18 -24 18 -40c0 -21.333 -9.33301 -36.333 -28 -45l-52 -15c-18.667 -6 -28 -16.333 -28 -31c0 -19.333 15 -35 45 -47c24 -10 47 -15 69 -15c30 0 62.5 5.83301 97.5 17.5s61.167 27.834 78.5 48.501
c12.667 14.667 39.334 59.334 80.001 134.001c-43.333 4 -85.833 22.667 -127.5 56s-62.5 71 -62.5 113c0 35.333 9.66699 68.833 29 100.5s45.166 59.167 77.499 82.5s65.666 43.333 99.999 60s70.5 31 108.5 43c83.333 26.667 166 40.334 248 41.001v-15
c-45.333 0 -82 -18.667 -110 -56c-23.333 -30 -45.333 -76.333 -66 -139c-10 -30.667 -24.667 -81.334 -44 -152.001c-6.66699 -24.667 -19 -59.667 -37 -105c36.667 16 67.5 38 92.5 66s37.5 61.333 37.5 100c0 12.667 -2 30 -6 52l16 1c4 -23.333 6 -41 6 -53
c0 -43.333 -15.167 -81.666 -45.5 -114.999s-66.833 -57 -109.5 -71c-50 -100.667 -124.667 -168.667 -224 -204c-41.333 -14.667 -83.333 -22 -126 -22c-43.333 0 -81.333 10.667 -114 32c-36 24 -54 57.333 -54 100zM252.003 310.998
c0 -22.667 13.8311 -42.168 41.498 -58.501s60.5 -27.833 98.5 -34.5l85 177c8 14.667 19.833 38.334 35.5 71.001s27.334 55.834 35.001 69.501s18.667 31.167 33 52.5s30 39.166 47 53.499s36.833 27.833 59.5 40.5c-70.667 -10 -127.667 -23.667 -171 -41
s-85.666 -45 -126.999 -83c-54 -49.333 -94 -106.333 -120 -171c-11.333 -28 -17 -53.333 -17 -76z" />
    <glyph glyph-name="Ucyrilbreve" unicode="&#x40e;" horiz-adv-x="706" 
d="M573 750c0 14 4.50098 25.832 13.501 35.499s20.5 14.5 34.5 14.5c12 0 22.667 -4.16699 32 -12.5s14 -18.166 14 -29.499c0 -20 -9 -34 -27 -42c-10 -4 -15 -7.33301 -15 -10c0 -8.66699 8 -13 24 -13c77.333 0 145.666 30.667 204.999 92l14 -13
c-65.333 -64 -130.333 -96 -195 -96c-28 0 -51.667 6.5 -71 19.5s-29 31.167 -29 54.5zM105.001 410.999c0 48 19.668 96.1689 59.001 144.502s81.666 85.166 126.999 110.499c40.667 22.667 83.667 34 129 34c78.667 0 118 -44.333 118 -133
c0 -27.333 -6.66699 -54.333 -20 -81c-73.333 -116.667 -110 -184 -110 -202c0 -8.66699 5.66699 -16.167 17 -22.5s21.333 -9.5 30 -9.5c46.667 0 111.334 54.333 194.001 163l77 100.5c14 17.667 34 40.667 60 69s54 54.833 84 79.5l11 -10
c-29.333 -34 -52.666 -67.833 -69.999 -101.5s-33.333 -77.167 -48 -130.5l-42 -153c-34.667 -105.333 -94.334 -182.666 -179.001 -231.999c-54.667 -32.667 -115.334 -49 -182.001 -49c-50.667 0 -93.667 11.5 -129 34.5s-53 55.5 -53 97.5c0 26 8.5 47.833 25.5 65.5
s38.5 26.5 64.5 26.5c17.333 0 32.166 -5.16699 44.499 -15.5s18.5 -23.833 18.5 -40.5c0 -21.333 -9.33301 -36.333 -28 -45l-53 -16c-18 -6.66699 -27 -17.334 -27 -32.001c0 -11.333 9 -22.666 27 -33.999c25.333 -16 56.333 -24 93 -24c30.667 0 63.5 5.66699 98.5 17
s60.833 26.666 77.5 45.999c26.667 29.333 52.667 74 78 134l109 258c-19.333 -25.333 -44.833 -57 -76.5 -95s-52.834 -62 -63.501 -72c-41.333 -37.333 -79.666 -56 -114.999 -56c-22.667 0 -42.167 9.16699 -58.5 27.5s-24.5 39.5 -24.5 63.5c0 32.667 12 72 36 118
c0.666992 1.33301 23.667 38 69 110c24 38 36 65 36 81c0 32 -29.333 48 -88 48c-72.667 0 -141 -31.333 -205 -94c-24.667 -24.667 -46.667 -53.334 -66 -86.001s-29 -64 -29 -94c0 -39.333 17 -59 51 -59c27.333 0 54.333 15.5 81 46.5s48.667 64.5 66 100.5
c16.667 34 26.334 68.667 29.001 104h13c2 -20 3 -33.333 3 -40c0 -53.333 -16.667 -103.333 -50 -150c-36 -51.333 -79.667 -77 -131 -77c-52 0 -78 25 -78 75z" />
    <glyph glyph-name="Acyril" unicode="&#x410;" horiz-adv-x="859" 
d="M-30 117c0 25.333 8.33301 46.834 25 64.501s37.667 26.5 63 26.5c15.333 0 29 -5.16699 41 -15.5s18 -22.833 18 -37.5c0 -20.667 -9 -35.334 -27 -44.001c-11.333 -4 -28.333 -9.33301 -51 -16c-18 -7.33301 -27 -18 -27 -32c0 -17.333 10.833 -31.166 32.5 -41.499
s44.167 -15.5 67.5 -15.5c83.333 0 170 50.667 260 152c-35.333 50.667 -53 97.667 -53 141c0 31.333 8.5 56.833 25.5 76.5s40.167 29.5 69.5 29.5c46.667 0 85.667 -21.667 117 -65c82.667 94 153.667 166.333 213 217c89.333 74.667 176.666 123.334 261.999 146.001
c-31.333 -42.667 -55.666 -78.334 -72.999 -107.001c-33.333 -54 -76 -142 -128 -264c-53.333 -123.333 -101 -221.333 -143 -294c84 8 151.333 49.667 202 125l12 -8c-59.333 -82.667 -134 -127.334 -224 -134.001l-12 -21c-5.33301 -0 -36 -1.66699 -92 -5
c14 24 22.667 40.333 26 49c-100.667 34 -164.667 68 -192 102c-92.667 -102.667 -182.667 -154 -270 -154c-39.333 0 -72.833 11.833 -100.5 35.5s-41.5 53.5 -41.5 89.5zM356 245.001c0 -22 9.00098 -47 27.001 -75l137 158c-18 20 -39.667 30 -65 30
c-26.667 0 -49.834 -11.667 -69.501 -35s-29.5 -49.333 -29.5 -78zM392.001 158.001c23.333 -28.667 85.333 -62 186 -100c14.667 46 22 89.333 22 130c0 15.333 -4 30.5 -12 45.5s-18.833 30.667 -32.5 47s-22.167 27.5 -25.5 33.5zM541.001 327.001
c3.33301 -5.33301 12.5 -17.834 27.5 -37.501s26.667 -37.667 35 -54s12.5 -32.833 12.5 -49.5c0 -24.667 -2.33301 -50 -7 -76l118 188l78 130c3.33301 5.33301 21 37.833 53 97.5s65 108.834 99 147.501c-76 -32 -152 -82 -228 -150c-41.333 -36.667 -104 -102 -188 -196z
" />
    <glyph glyph-name="Be" unicode="&#x411;" horiz-adv-x="876" 
d="M43 122c0 26 7.99902 48 23.999 66s36.667 27 62 27c16.667 0 31.5 -5.5 44.5 -16.5s19.5 -23.833 19.5 -38.5c0 -21.333 -9.33301 -36.333 -28 -45l-52 -17c-18.667 -6 -28 -15.667 -28 -29c0 -19.333 15.333 -35.333 46 -48c24.667 -10 48.667 -15 72 -15
c49.333 0 92 19.667 128 59c22.667 24.667 48.334 66 77.001 124c19.333 42 53.333 107.667 102 197c58 91.333 120.667 157 188 197l8 -12c-0.666992 -0.666992 -4.5 -3.83398 -11.5 -9.50098l-16 -13c-3.66699 -3 -9 -7.66699 -16 -14s-13 -12 -18 -17
s-10.167 -10.667 -15.5 -17s-10 -12.5 -14 -18.5s-7 -12 -9 -18c-1.33301 -2.66699 -4.5 -9.83398 -9.5 -21.501s-10.333 -25 -16 -40s-10.5 -30.5 -14.5 -46.5c-17.333 -65.333 -35 -119.666 -53 -162.999c-38 -90.667 -86.333 -148 -145 -172
c-50 -20.667 -101.667 -31 -155 -31c-47.333 0 -87.5 11.833 -120.5 35.5s-49.5 55.834 -49.5 96.501zM159.999 405c0 41.333 16.6689 83.668 50.002 127.001c86 112 208.333 168 367 168c39.333 0 86.666 -6 141.999 -18c49.333 -10.667 88 -16 116 -16
c34.667 0 60.334 9.33301 77.001 28l12 -8c-26.667 -62 -72.334 -93 -137.001 -93c-30 0 -72.667 12.333 -128 37c-65.333 28.667 -119 43 -161 43c-48 0 -96.833 -14.167 -146.5 -42.5s-89.834 -60.833 -120.501 -97.5c-37.333 -44.667 -56 -87.667 -56 -129
c0 -23.333 7.5 -43.5 22.5 -60.5s33.5 -25.5 55.5 -25.5c42 0 82.333 29.333 121 88c36.667 56 55 105.333 55 148c0 7.33301 -2.66699 22.666 -8 45.999l13 4c20.667 -41.333 31 -81 31 -119c0 -51.333 -18.667 -95 -56 -131c-36 -35.333 -80.667 -53 -134 -53
c-34.667 0 -62.5 9.16699 -83.5 27.5s-31.5 43.833 -31.5 76.5zM538.001 61.002c0 58 35.001 106 105.001 144l8 -14c-25.333 -13.333 -47.833 -31.833 -67.5 -55.5s-29.5 -48.834 -29.5 -75.501c0 -13.333 4.33301 -25 13 -35s19 -15 31 -15
c16.667 0 38.834 7.5 66.501 22.5s49.5 34.5 65.5 58.5c42 64 63 125.667 63 185c0 16 -8.33301 31.333 -25 46s-34.334 25.334 -53.001 32.001c-16 5.33301 -31.667 8 -47 8c-12.667 0 -22 -3.33301 -28 -10l-10 11c4.66699 8.66699 17 13 37 13
c19.333 0 42.333 -4.66699 69 -14c27.333 -9.33301 54.666 -28.5 81.999 -57.5s41 -58.167 41 -87.5c0 -54.667 -27.333 -106 -82 -154c-52.667 -46.667 -107.334 -70 -164.001 -70c-21.333 0 -39.166 6.33301 -53.499 19s-21.5 29 -21.5 49z" />
    <glyph glyph-name="Ve" unicode="&#x412;" horiz-adv-x="845" 
d="M17 125c0 26.667 7.99902 48.6621 23.999 65.9951s37 26 63 26c16.667 0 31.167 -5.16699 43.5 -15.5s18.5 -23.166 18.5 -38.499c0 -20 -9.33301 -35 -28 -45c-8.66699 -2.66699 -17.334 -5.66699 -26.001 -9l-26 -10c-18 -6.66699 -27 -16 -27 -28
c0 -18.667 13.167 -34 39.5 -46s52.833 -18 79.5 -18c51.333 0 96 21.667 134 65c23.333 26 49.666 70 78.999 132l63 132c49.333 102 102 179.667 158 233c38.667 36.667 84 68.667 136 96c-38 14 -83 21 -135 21c-80 0 -157 -13.333 -231 -40
c-82 -29.333 -146.667 -71.666 -194 -126.999c-34 -40 -51 -79.667 -51 -119c0 -21.333 6.66699 -39.333 20 -54s30.333 -22 51 -22c24 0 52.333 10.333 85 31c38.667 26 71.334 60.5 98.001 103.5s42 90.5 46 142.5l13 3c4.66699 -28 7 -52.333 7 -73
c0 -67.333 -19.833 -122.5 -59.5 -165.5s-90.5 -64.5 -152.5 -64.5c-36 0 -65.5 8.5 -88.5 25.5s-34.5 41.5 -34.5 73.5c0 41.333 18 83.666 54 126.999c44.667 52.667 106 94.834 184 126.501s163.333 47.5 256 47.5c55.333 0 108.333 -7.33301 159 -22c18 8 42 16 72 24
l4 -15c-23.333 -6 -42 -12 -56 -18c65.333 -29.333 98 -70.666 98 -123.999c0 -40.667 -21.667 -78.667 -65 -114c-22.667 -18 -62.667 -41.333 -120 -70c82 -33.333 123 -81.666 123 -144.999c0 -54.667 -27.333 -106 -82 -154c-52.667 -46.667 -107.334 -70 -164.001 -70
c-21.333 0 -39.166 6.33301 -53.499 19s-21.5 29 -21.5 49c0 58 35 106 105 144l8 -14c-25.333 -13.333 -47.833 -31.833 -67.5 -55.5s-29.5 -48.834 -29.5 -75.501c0 -13.333 4.33301 -25 13 -35s19 -15 31 -15c16.667 0 38.834 7.5 66.501 22.5s49.5 34.5 65.5 58.5
c42 64 63 125.667 63 185c0 4.66699 -0.833008 9.33398 -2.5 14.001s-4.5 9.33398 -8.5 14.001s-7.66699 8.66699 -11 12s-8.16602 7.16602 -14.499 11.499l-14 9.5c-3 2 -8 5.16699 -15 9.5s-11.167 6.83301 -12.5 7.5c-27.333 -10 -49.666 -15 -66.999 -15
c-13.333 0 -20 5 -20 15c0 14.667 13 22 39 22c15.333 0 31 -2.33301 47 -7c64.667 24 105.334 53.333 122.001 88c20.667 41.333 31 81.333 31 120c0 6 -1.5 12.167 -4.5 18.5s-6.16699 11.666 -9.5 15.999s-8.33301 9.16602 -15 14.499s-11.834 9.33301 -15.501 12
s-9.33398 6.33398 -17.001 11.001s-12.167 7.33398 -13.5 8.00098c-88.667 -49.333 -142.667 -92.333 -162 -129c-13.333 -24.667 -30 -73 -50 -145l-20 -72c-13.333 -47.333 -28.5 -88.666 -45.5 -123.999s-38.667 -68.5 -65 -99.5s-58.833 -54.667 -97.5 -71
s-82.667 -24.5 -132 -24.5c-50.667 0 -92.5 11.5 -125.5 34.5s-49.5 55.833 -49.5 98.5z" />
    <glyph glyph-name="Ge" unicode="&#x413;" horiz-adv-x="632" 
d="M43 122c0 26 8.00098 48 24.001 66s36.667 27 62 27c16.667 0 31.5 -5.5 44.5 -16.5s19.5 -23.833 19.5 -38.5c0 -21.333 -9.33301 -36.333 -28 -45l-52 -17c-18.667 -6 -28 -15.667 -28 -29c0 -19.333 15.333 -35.333 46 -48c24.667 -10 48.667 -15 72 -15
c49.333 0 92 19.667 128 59c22.667 24.667 48.334 66 77.001 124c19.333 42 53.333 107.667 102 197c58 91.333 120.667 157 188 197l8 -12l-14 -11c-8.66699 -7.33301 -14.834 -12.666 -18.501 -15.999l-18.5 -16.5c-8.66699 -7.66699 -15.334 -14.334 -20.001 -20.001
s-9.66699 -12.334 -15 -20.001s-9.33301 -14.834 -12 -21.501c-17.333 -49.333 -27.666 -80.333 -30.999 -93c-22 -82 -43.333 -142 -64 -180c-22.667 -41.333 -47 -77.166 -73 -107.499s-50 -51.833 -72 -64.5c-36.667 -20.667 -88.334 -31 -155.001 -31
c-47.333 0 -87.5 11.833 -120.5 35.5s-49.5 55.834 -49.5 96.501zM160.001 405c0 41.333 16.6689 83.668 50.002 127.001c86 112 208.333 168 367 168c39.333 0 86.666 -6 141.999 -18c49.333 -10.667 88 -16 116 -16c34.667 0 60.334 9.33301 77.001 28l12 -8
c-26.667 -62 -72.334 -93 -137.001 -93c-30 0 -72.667 12.333 -128 37c-65.333 28.667 -119 43 -161 43c-48 0 -96.833 -14.167 -146.5 -42.5s-89.834 -60.833 -120.501 -97.5c-37.333 -44.667 -56 -87.667 -56 -129c0 -23.333 7.5 -43.5 22.5 -60.5s33.5 -25.5 55.5 -25.5
c42 0 82.333 29.333 121 88c36.667 56 55 105.333 55 148c0 7.33301 -2.66699 22.666 -8 45.999l13 4c20.667 -41.333 31 -81 31 -119c0 -51.333 -18.667 -95 -56 -131c-36 -35.333 -80.667 -53 -134 -53c-34.667 0 -62.5 9.16699 -83.5 27.5s-31.5 43.833 -31.5 76.5z" />
    <glyph glyph-name="De" unicode="&#x414;" horiz-adv-x="836" 
d="M132 59c0 33.333 31.667 49.998 95 49.998c50.667 0 110.667 -13.333 180 -40c23.333 25.333 46.333 61.666 69 108.999l62 126c63.333 128.667 134 227 212 295c-32 30 -63.667 51.667 -95 65c-32.667 13.333 -70.334 20 -113.001 20c-127.333 0 -224 -57 -290 -171
c-34 -57.333 -51 -112 -51 -164c0 -64.667 31.667 -97 95 -97c64 0 118 33.667 162 101c39.333 59.333 59 123 59 191c0 10.667 -1 25.667 -3 45h16c2 -19.333 3 -33.666 3 -42.999c0 -72 -21 -139.667 -63 -203c-46.667 -70.667 -104.667 -106 -174 -106
c-46 0 -84 15.833 -114 47.5s-45 70.834 -45 117.501c0 76 44.333 145.333 133 208c82 58.667 172.667 88 272 88c88 0 161.667 -29.333 221 -88c26.667 22.667 56.334 40.667 89.001 54l6 -14c-35.333 -14.667 -62 -32.334 -80 -53.001
c28 -35.333 47.667 -65.666 59 -90.999c13.333 -29.333 20 -64.666 20 -105.999c0 -65.333 -13.667 -132.333 -41 -201c-55.333 -137.333 -144 -206 -266 -206c-38 0 -79.667 9.66699 -125 29c-60 -19.333 -110.333 -29 -151 -29c-35.333 0 -67.833 5.5 -97.5 16.5
s-44.5 27.5 -44.5 49.5zM148 58.998c0 -16.667 12.832 -29.333 38.499 -38s52.834 -13 81.501 -13c38.667 0 74.667 11.333 108 34c-81.333 34 -140.333 51 -177 51c-34 0 -51 -11.333 -51 -34zM468.999 43.999c46 -21.333 83 -32.002 111 -32.002
c37.333 0 76.666 15.333 117.999 46c42 30.667 76 77.334 102 140.001c23.333 56.667 35 114 35 172c0 81.333 -23 152 -69 212c-3.33301 -4.66699 -12.333 -14.334 -27 -29.001s-28.167 -30 -40.5 -46s-21.166 -32 -26.499 -48l-50 -139l-21 -62
c-9.33301 -27.333 -17.333 -49.666 -24 -66.999s-13.667 -33 -21 -47c-21.333 -41.333 -50.333 -74.666 -87 -99.999z" />
    <glyph glyph-name="Ie" unicode="&#x415;" horiz-adv-x="586" 
d="M86 192c0 42 14.1729 79.666 42.5059 112.999s62.166 58.833 101.499 76.5s82.666 30.5 129.999 38.5c-39.333 35.333 -59 74.333 -59 117c0 51.333 23.5 92 70.5 122s101.5 45 163.5 45c49.333 0 88.833 -11.167 118.5 -33.5s44.5 -55.166 44.5 -98.499
c0 -33.333 -10.667 -63.333 -32 -90s-47.333 -40 -78 -40c-20.667 0 -37.334 7.33301 -50.001 22s-19 32.667 -19 54c0 38.667 25.667 73.667 77 105l9 -11c-39.333 -33.333 -59 -69.333 -59 -108c0 -13.333 4.16699 -24.666 12.5 -33.999s18.833 -14 31.5 -14
c25.333 0 47 12.167 65 36.5s27 51.166 27 80.499c0 31.333 -10 57.666 -30 78.999s-45.333 32 -76 32c-26 0 -55.5 -5.66699 -88.5 -17s-58.167 -26.333 -75.5 -45c-32.667 -36 -49 -76 -49 -120c0 -6.66699 1.16699 -13.167 3.5 -19.5s5.66602 -12.5 9.99902 -18.5l11 -15
c3 -4 7.16699 -8.5 12.5 -13.5s8.66602 -8.16699 9.99902 -9.5h26c22.667 0 45.5 -3.5 68.5 -10.5s34.5 -16.833 34.5 -29.5c0 -16 -13 -24 -39 -24c-32 0 -69.667 12.667 -113 38c-90 -29.333 -148.667 -64.666 -176 -105.999c-34 -50.667 -51 -105.667 -51 -165
c0 -38.667 16.5 -68.834 49.5 -90.501s72.5 -32.5 118.5 -32.5c54 0 100.167 14 138.5 42s64.5 64.667 78.5 110c5.33301 18 8 32 8 42c0 20.667 -5.83301 37.834 -17.5 51.501s-27.167 20.5 -46.5 20.5c-26 0 -50.333 -12 -73 -36
c-38.667 -39.333 -58.334 -90.333 -59.001 -153h-15c-8 20 -12 40 -12 60c0 41.333 14.167 76.333 42.5 105s62.833 43 103.5 43c26.667 0 49 -8.33301 67 -25s27 -38 27 -64c0 -49.333 -19.333 -94.333 -58 -135c-48 -50.667 -110 -76 -186 -76
c-64 0 -118.333 17.333 -163 52c-51.333 40 -77 89.667 -77 149zM426.006 408.999c22.667 -21.333 45 -32 67 -32c12.667 0 19 4 19 12c0 6 -7.33301 11.167 -22 15.5s-27.667 6.5 -39 6.5c-4.66699 0 -13 -0.666992 -25 -2z" />
    <glyph glyph-name="Zhe" unicode="&#x416;" horiz-adv-x="1295" 
d="M47 95c0 25.333 8.49805 46.502 25.498 63.502s37.833 25.5 62.5 25.5c16.667 0 31.334 -5 44.001 -15s19 -22.667 19 -38s-5 -27.5 -15 -36.5s-23 -13.5 -39 -13.5s-30.333 6.33301 -43 19s-20.334 19 -23.001 19c-10 0 -15 -9 -15 -27c0 -26 11.833 -46.833 35.5 -62.5
s51.5 -23.5 83.5 -23.5c28.667 0 56.334 6.66699 83.001 20c4 2 15.333 6.83301 34 14.5s35.667 15.5 51 23.5s27 16.333 35 25c58.667 61.333 115 140.333 169 237s81 183 81 259c0 31.333 -14.5 55.833 -43.5 73.5s-62.5 26.5 -100.5 26.5
c-58.667 0 -113.667 -18.5 -165 -55.5s-93.333 -80.5 -126 -130.5c-34.667 -53.333 -52 -102 -52 -146c0 -25.333 7.83301 -47 23.5 -65s35.167 -27 58.5 -27c17.333 0 32.333 3.33301 45 10c31.333 16.667 64.666 54 99.999 112c38 63.333 57 120.666 57 171.999
c0 12.667 -2 28.667 -6 48l15 3c16.667 -52 25 -96.333 25 -133c0 -61.333 -21.333 -115 -64 -161c-43.333 -46.667 -95.666 -70 -156.999 -70c-32.667 0 -59.5 10.333 -80.5 31s-31.5 47.667 -31.5 81c0 44 18.333 95 55 153c34 52.667 77.5 98 130.5 136
s110.167 57 171.5 57c65.333 0 116.333 -23 153 -69c30 -36.667 45 -78 45 -124c0 -19.333 -3 -42.666 -9 -69.999c-11.333 -36.667 -25.666 -73.334 -42.999 -110.001l127 32l178 309l77 5l-169 -296l127 30c30 39.333 74 84.666 132 135.999
c28.667 25.333 55.167 45 79.5 59s56.5 29 96.5 45c32.667 13.333 77 20 133 20c22 0 41.333 -6.33301 58 -19s25 -28.667 25 -48c0 -15.333 -5.5 -28.5 -16.5 -39.5s-24.167 -16.5 -39.5 -16.5c-12 0 -23 4.16699 -33 12.5s-15 18.5 -15 30.5
c0 15.333 5.66699 27.666 17 36.999s17 15.333 17 18c0 7.33301 -6 11 -18 11c-40.667 0 -104.5 -34.167 -191.5 -102.5s-149.833 -136.5 -188.5 -204.5c-20 -36 -37.667 -74.333 -53 -115c-17.333 -44.667 -26 -85.667 -26 -123c0 -30 16.167 -54.5 48.5 -73.5
s72.166 -28.5 119.499 -28.5c19.333 0 44.833 13.667 76.5 41s66.167 66 103.5 116l13 -9c-83.333 -108 -145 -162 -185 -162c-48.667 0 -85.667 4 -111 12s-48.666 21.667 -69.999 41c-41.333 36.667 -62 82.667 -62 138c0 56.667 17 112.334 51 167.001l23 35l-123 -28
l-204 -359l-85 -5c26.667 42 94.667 157.667 204 347l-125 -31c-13.333 -26 -26.333 -47 -39 -63c-49.333 -61.333 -97.5 -110.5 -144.5 -147.5s-97.5 -65.167 -151.5 -84.5c-42.667 -15.333 -80.667 -23 -114 -23c-36 0 -66.833 9.5 -92.5 28.5s-38.5 44.167 -38.5 75.5z
" />
    <glyph glyph-name="Ze" unicode="&#x417;" horiz-adv-x="586" 
d="M48 122c0 39.333 14.165 77.332 42.498 113.999s61.5 60.667 99.5 72c14 4.66699 28.667 7 44 7c25.333 0 46.333 -6.66699 63 -20s25 -31 25 -53c0 -32 -17.667 -66.333 -53 -103c-17.333 -17.333 -37.666 -33.333 -60.999 -48l-14 4c53.333 56.667 80 106.667 80 150
c0 18 -4.83301 31.833 -14.5 41.5s-22.5 14.5 -38.5 14.5c-11.333 0 -24.333 -2.66699 -39 -8c-29.333 -12 -55.833 -33.833 -79.5 -65.5s-35.5 -64.834 -35.5 -99.501c0 -13.333 1.66699 -24.666 5 -33.999c8 -23.333 25 -43.166 51 -59.499s55.667 -24.5 89 -24.5
c30 0 64.667 7.16699 104 21.5s71 33.833 95 58.5c48.667 50 80.334 102.667 95.001 158c4 17.333 6 33.333 6 48c0 15.333 -7.66699 30.5 -23 45.5s-32 27.5 -50 37.5c-28 -4.66699 -54.333 -7 -79 -7c-48.667 0 -73 8.33301 -73 25c0 4 2.66699 8.66699 8 14
c10.667 10.667 27.667 16 51 16c28.667 0 58.667 -6 90 -18c45.333 24.667 85.666 54 120.999 88s53 70 53 108c0 24.667 -13.833 45.167 -41.5 61.5s-57.167 24.5 -88.5 24.5c-17.333 0 -36.333 -3.66699 -57 -11c-30.667 -10.667 -59.5 -28.334 -86.5 -53.001
s-44.167 -51.667 -51.5 -81c-1.33301 -6.66699 -2 -11.667 -2 -15c0 -12.667 3.66699 -22.667 11 -30s17.333 -11 30 -11c10 0 18.667 1.66699 26 5c23.333 8.66699 42.5 24.5 57.5 47.5s22.5 47.167 22.5 72.5c0 7.33301 -0.333008 12.666 -1 15.999l18 7
c6 -14 9 -28 9 -42c0 -25.333 -10.667 -49.333 -32 -72c-31.333 -32.667 -64.333 -49 -99 -49c-17.333 0 -31.5 4.66699 -42.5 14s-16.5 21.333 -16.5 36c0 6 0.333008 10.667 1 14c6 36.667 27.5 70.5 64.5 101.5s74.833 50.5 113.5 58.5c18 3.33301 33.667 5 47 5
c27.333 0 53 -4.33301 77 -13c60 -20 95 -52 105 -96c2 -7.33301 3 -14.666 3 -21.999c0 -34.667 -16 -68 -48 -100c-36.667 -38 -86.667 -66.333 -150 -85c70 -41.333 105 -91.666 105 -150.999c0 -42.667 -20.333 -84.667 -61 -126c-50 -51.333 -114.333 -87 -193 -107
c-36 -8.66699 -67.667 -13 -95 -13c-31.333 0 -61.666 5 -90.999 15c-64 21.333 -96 60 -96 116zM316.998 398.999c0 -8.66699 11.332 -13 33.999 -13c16.667 0 37 4 61 12c-19.333 10.667 -40.666 16 -63.999 16c-20.667 0 -31 -5 -31 -15z" />
    <glyph glyph-name="Ii" unicode="&#x418;" horiz-adv-x="870" 
d="M80 343c0 56.667 22.5 113.332 67.5 169.999s93.833 101 146.5 133c55.333 33.333 111.333 50 168 50c54.667 0 94.834 -11.833 120.501 -35.5s38.5 -61.834 38.5 -114.501c0 -20.667 -3.83301 -45.167 -11.5 -73.5s-17.834 -53.5 -30.501 -75.5l-38 -57l-68 -98
c-44 -64 -66 -129.333 -66 -196v-16c0 -16.667 9 -25 27 -25c12 0 27.667 5 47 15c33.333 17.333 69.833 42.333 109.5 75s74.167 71.667 103.5 117l132 217c36.667 61.333 77.334 123.333 122.001 186c42.667 4.66699 69 7.33398 79 8.00098
c-52 -75.333 -104 -159 -156 -251l-107 -191l-56 -100c-14 -30 -21 -50.667 -21 -62c0 -6 3.33301 -9 10 -9c14.667 0 36 10 64 30c40.667 30 78.667 71 114 123l14 -8c-78.667 -108.667 -145.667 -163 -201 -163c-13.333 0 -23.333 4.16699 -30 12.5s-10.5 17 -11.5 26
s-1.5 22.833 -1.5 41.5c0 14.667 5 33.667 15 57c-12 -15.333 -21.833 -27.333 -29.5 -36s-15.667 -16.667 -24 -24s-13.833 -12.333 -16.5 -15c-20 -19.333 -45.833 -34.833 -77.5 -46.5s-57.834 -17.5 -78.501 -17.5c-28.667 0 -51.167 12.667 -67.5 38s-24.5 55 -24.5 89
c0 40.667 12.667 84 38 130c8 15.333 33 52 75 110c40 56.667 69 100.667 87 132c27.333 48 41 86.667 41 116c0 25.333 -11.333 44.333 -34 57s-50.667 19 -84 19c-86 0 -169.333 -38.667 -250 -116c-79.333 -76.667 -119 -150.667 -119 -222c0 -24 7.33301 -44 22 -60
s33.667 -24 57 -24c46 0 92 38.667 138 116c42 71.333 63 131 63 179c0 10.667 -1.33301 25.334 -4 44.001l15 2c14.667 -44.667 22 -86.667 22 -126c0 -68 -24.667 -125 -74 -171c-42.667 -40.667 -91 -61 -145 -61c-33.333 0 -60 9 -80 27s-30 42.667 -30 74z" />
    <glyph glyph-name="Iibreve" unicode="&#x419;" horiz-adv-x="870" 
d="M708 750c0 14 4.50098 25.832 13.501 35.499s20.5 14.5 34.5 14.5c12 0 22.667 -4.16699 32 -12.5s14 -18.166 14 -29.499c0 -20 -9 -34 -27 -42c-10 -4 -15 -7.33301 -15 -10c0 -8.66699 8 -13 24 -13c77.333 0 145.666 30.667 204.999 92l14 -13
c-65.333 -64 -130.333 -96 -195 -96c-28 0 -51.667 6.5 -71 19.5s-29 31.167 -29 54.5zM80.001 342.999c0 56.667 22.5 113.332 67.5 169.999s93.833 101 146.5 133c55.333 33.333 111.333 50 168 50c54.667 0 94.834 -11.833 120.501 -35.5s38.5 -61.834 38.5 -114.501
c0 -20.667 -3.83301 -45.167 -11.5 -73.5s-17.834 -53.5 -30.501 -75.5l-38 -57l-68 -98c-44 -64 -66 -129.333 -66 -196v-16c0 -16.667 9 -25 27 -25c12 0 27.667 5 47 15c33.333 17.333 69.833 42.333 109.5 75s74.167 71.667 103.5 117l132 217
c36.667 61.333 77.334 123.333 122.001 186c42.667 4.66699 69 7.33398 79 8.00098c-52 -75.333 -104 -159 -156 -251l-107 -191l-56 -100c-14 -30 -21 -50.667 -21 -62c0 -6 3.33301 -9 10 -9c14.667 0 36 10 64 30c40.667 30 78.667 71 114 123l14 -8
c-78.667 -108.667 -145.667 -163 -201 -163c-13.333 0 -23.333 4.16699 -30 12.5s-10.5 17 -11.5 26s-1.5 22.833 -1.5 41.5c0 14.667 5 33.667 15 57c-12 -15.333 -21.833 -27.333 -29.5 -36s-15.667 -16.667 -24 -24s-13.833 -12.333 -16.5 -15
c-20 -19.333 -45.833 -34.833 -77.5 -46.5s-57.834 -17.5 -78.501 -17.5c-28.667 0 -51.167 12.667 -67.5 38s-24.5 55 -24.5 89c0 40.667 12.667 84 38 130c8 15.333 33 52 75 110c40 56.667 69 100.667 87 132c27.333 48 41 86.667 41 116c0 25.333 -11.333 44.333 -34 57
s-50.667 19 -84 19c-86 0 -169.333 -38.667 -250 -116c-79.333 -76.667 -119 -150.667 -119 -222c0 -24 7.33301 -44 22 -60s33.667 -24 57 -24c46 0 92 38.667 138 116c42 71.333 63 131 63 179c0 10.667 -1.33301 25.334 -4 44.001l15 2
c14.667 -44.667 22 -86.667 22 -126c0 -68 -24.667 -125 -74 -171c-42.667 -40.667 -91 -61 -145 -61c-33.333 0 -60 9 -80 27s-30 42.667 -30 74z" />
    <glyph glyph-name="Ka" unicode="&#x41a;" horiz-adv-x="816" 
d="M-31 118c0 27.333 8.16602 50.0039 24.499 68.0039s37.833 27 64.5 27c16 0 29.833 -5.16699 41.5 -15.5s17.5 -23.5 17.5 -39.5c0 -20.667 -9.33301 -35.334 -28 -44.001l-52 -15c-18.667 -6 -28 -16.667 -28 -32c0 -20.667 16.333 -36.334 49 -47.001
c26 -8.66699 51 -13 75 -13c47.333 0 87.333 16.333 120 49c28.667 28.667 63 87.334 103 176.001c56.667 124 120 229 190 315c-58 -49.333 -108.667 -86.333 -152 -111c-23.333 -12.667 -42.666 -19 -57.999 -19c-12 0 -22.667 4.33301 -32 13s-14 19 -14 31
c0 20 10.333 44.333 31 73c21.333 29.333 32 44.333 32 45c0 6 -4.33301 9 -13 9c-41.333 0 -107 -57 -197 -171l-13 9c96.667 118.667 170 178 220 178c14 0 25.833 -4.5 35.5 -13.5s14.5 -20.5 14.5 -34.5c0 -22.667 -9.66699 -47.667 -29 -75s-29 -41.333 -29 -42
c0 -3.33301 2.33301 -5 7 -5c18 0 60.667 25.667 128 77c74 56 134 110 180 162l12 -9c-2 -2.66699 -14 -15.834 -36 -39.501s-37.667 -41.334 -47 -53.001s-21 -28.667 -35 -51s-24 -43.833 -30 -64.5l-67 -217c-15.333 -37.333 -31.333 -69.5 -48 -96.5
s-37 -52.5 -61 -76.5s-53 -42.333 -87 -55s-72.333 -19 -115 -19c-50 0 -91.5 10.667 -124.5 32s-49.5 52.666 -49.5 93.999zM533.999 339.004c0 16 11.668 24.002 35.001 24.002c7.33301 0 20.666 -3 39.999 -9c39.333 16 65.333 32.333 78 49
c10.667 16 23.334 39.667 38.001 71c66.667 139.333 162.667 214.666 288 225.999v-14c-32 -2 -59.333 -9.66699 -82 -23c-28.667 -16.667 -55 -47.334 -79 -92.001c-37.333 -66 -62 -106.333 -74 -121c-31.333 -40.667 -82.666 -76 -153.999 -106
c45.333 -35.333 68 -76 68 -122c0 -22 -4.33301 -71 -13 -147c-1.33301 -14.667 -2 -23 -2 -25c0 -13.333 3.66699 -20 11 -20c26 0 70.333 44.333 133 133l12 -8c-78 -106.667 -143.333 -160 -196 -160c-28 0 -42 29.333 -42 88c0 23.333 11.667 61 35 113
c6.66699 15.333 10 30.333 10 45c0 6.66699 -0.833008 13.834 -2.5 21.501s-3.16699 13.667 -4.5 18s-3.33301 9.83301 -6 16.5s-4.33398 10.667 -5.00098 12c-0.666992 2 -3.83398 5.66699 -9.50098 11s-9.5 9.66602 -11.5 12.999c-16.667 -7.33301 -32 -11 -46 -11
s-21 5.66699 -21 17z" />
    <glyph glyph-name="El" unicode="&#x41b;" horiz-adv-x="873" 
d="M-30 117c0 25.333 8.33398 46.833 25.001 64.5s37.667 26.5 63 26.5c15.333 0 29 -5.16699 41 -15.5s18 -22.833 18 -37.5c0 -20.667 -9 -35.334 -27 -44.001c-11.333 -4 -28.333 -9.33301 -51 -16c-18 -7.33301 -27 -18 -27 -32c0 -17.333 10.833 -31.166 32.5 -41.499
s44.167 -15.5 67.5 -15.5c83.333 0 170 50.667 260 152c63.333 75.333 116.333 136 159 182c106.667 114.667 177.667 187 213 217c89.333 74.667 176.666 123.334 261.999 146.001c9.33301 0 14 -3.66699 14 -11c0 -5.33301 -6 -16.666 -18 -33.999
c-24 -34 -45.333 -67.667 -64 -101c-26 -45.333 -47.667 -86.333 -65 -123c-113.333 -236.667 -170 -371.667 -170 -405c0 -10 4.66699 -15 14 -15c13.333 0 32 11.167 56 33.5s43.833 43.166 59.5 62.499s30.834 39 45.501 59l14 -8c-82 -110 -144.333 -165 -187 -165
c-15.333 0 -25.666 5.33301 -30.999 16s-8 26 -8 46c0 4.66699 0.166992 12.5 0.5 23.5s0.5 19.167 0.5 24.5c0 38.667 12.667 87.5 38 146.5s58.333 119.833 99 182.5l19.5 30.5l22.5 35c3.33301 5 11.166 16.167 23.499 33.5l32 43.5l36 45
c15 18.333 31.167 36.833 48.5 55.5c-26.667 -4.66699 -66.834 -23.334 -120.501 -56.001s-99.167 -65.667 -136.5 -99c-44 -39.333 -110.333 -109 -199 -209l-148 -168c-92.667 -102.667 -182.667 -154 -270 -154c-39.333 0 -72.833 11.833 -100.5 35.5
s-41.5 53.5 -41.5 89.5z" />
    <glyph glyph-name="Em" unicode="&#x41c;" horiz-adv-x="1020" 
d="M-38 110c0 27.333 8.49902 50.8291 25.499 70.4961s38.167 29.5 63.5 29.5c16 0 30 -5.16699 42 -15.5s18 -23.166 18 -38.499c0 -20.667 -11.333 -37 -34 -49l-49 -12c-19.333 -4.66699 -29 -15 -29 -31c0 -18.667 11.333 -33 34 -43s47.334 -15 74.001 -15
c54 0 104.333 20 151 60c24.667 21.333 58 57.333 100 108l285 352c67.333 74.667 122.333 127.667 165 159c10.667 8 18.667 12 24 12c9.33301 0 14 -3.66699 14 -11c0 -3.33301 -2.33301 -9 -7 -17c-54 -95.333 -111 -221.333 -171 -378
c-42.667 -113.333 -73.667 -201.666 -93 -264.999c22 23.333 66 85.333 132 186c134 204 258.667 351.667 374 443c35.333 28 59.333 42 72 42c9.33301 0 14 -3.66699 14 -11c0 -5.33301 -6 -16.666 -18 -33.999c-24 -34 -45.333 -67.667 -64 -101
c-26 -45.333 -47.667 -86.333 -65 -123c-113.333 -236.667 -170 -371.667 -170 -405c0 -10 4.66699 -15 14 -15c18.667 0 44.334 17.667 77.001 53s60.667 69.333 84 102l14 -8c-82 -110 -144.333 -165 -187 -165c-28.667 0 -43 20.333 -43 61c0 14.667 1.66699 31 5 49
c6.66699 40.667 20 84 40 130s51.667 104.667 95 176l28.5 49l39 65.5c9.66699 15.667 25.334 38 47.001 67s44.834 57.167 69.501 84.5c-122.667 -79.333 -260.334 -235.333 -413.001 -468l-80 -119c-7.33301 -11.333 -22 -31.333 -44 -60c-20.667 -22.667 -37 -34 -49 -34
c-8.66699 0 -14.334 5.66699 -17.001 17c-3.33301 12 -5 25.333 -5 40c0 57.333 40.667 170.666 122 339.999c2 4.66699 9.33301 20.834 22 48.501s23.167 49.667 31.5 66s21.833 39.5 40.5 69.5s38.667 59.333 60 88c-90.667 -77.333 -198.334 -199.666 -323.001 -366.999
l-68 -91c-24 -32 -48.333 -61 -73 -87c-76.667 -82.667 -154 -124 -232 -124c-41.333 0 -75.5 10.667 -102.5 32s-40.5 50.333 -40.5 87z" />
    <glyph glyph-name="En" unicode="&#x41d;" horiz-adv-x="823" 
d="M-33 122c0 26 7.8291 48.1689 23.4961 66.502s35.834 27.5 60.501 27.5c16 0 30.833 -5 44.5 -15s20.5 -22.333 20.5 -37c0 -18 -7.33301 -33 -22 -45c-5.33301 -4 -23 -9.33301 -53 -16c-22.667 -6 -34 -16.667 -34 -32c0 -20.667 16 -37.334 48 -50.001
c24.667 -10 49 -15 73 -15c67.333 0 122.333 37.333 165 112c18 30.667 41.333 75.334 70 134.001c-61.333 -24.667 -119.666 -59.667 -174.999 -105l-9 11c57.333 49.333 121.333 86.666 192 111.999c54.667 112.667 113.334 206.334 176.001 281.001
c-55.333 -43.333 -89.333 -69.333 -102 -78c-52.667 -36.667 -90.334 -55 -113.001 -55c-12.667 0 -23.334 4.5 -32.001 13.5s-13 19.833 -13 32.5c0 21.333 10.333 45.666 31 72.999c21.333 28.667 32 43.667 32 45c0 6 -4 9 -12 9c-41.333 0 -109 -57.667 -203 -173l-12 7
c92.667 120 166.334 180 221.001 180c14.667 0 27.334 -5.16699 38.001 -15.5s16 -22.833 16 -37.5c0 -24 -9.66699 -48 -29 -72c-20 -25.333 -30 -38.666 -30 -39.999c0 -2.66699 2.33301 -4 7 -4c10 0 26.667 7.33301 50 22l64 47l193 146l8 -10
c-1.33301 -1.33301 -14.833 -13.5 -40.5 -36.5s-45.667 -43.5 -60 -61.5s-25.5 -37 -33.5 -57l-59 -172l-4 -15l200 64c30.667 51.333 62 96.333 94 135c68 84 113.667 136.667 137 158c33.333 29.333 66 44 98 44c20 0 36.5 -7 49.5 -21s19.5 -31.333 19.5 -52
c0 -23.333 -8 -47 -24 -71s-37.167 -45.833 -63.5 -65.5s-52.166 -36.834 -77.499 -51.501s-51.333 -27.667 -78 -39l-81 -33c-83.333 -188.667 -125 -304 -125 -346c0 -10 6.33301 -15 19 -15c29.333 0 63.333 17.5 102 52.5s70 69.833 94 104.5l13 -8
c-30.667 -41.333 -65 -79 -103 -113s-74.333 -51 -109 -51c-20 0 -33.167 6.16699 -39.5 18.5s-9.5 30.5 -9.5 54.5c0 5.33301 0.166992 13.833 0.5 25.5s0.5 20.834 0.5 27.501c0 36 6.33301 72 19 108c6 18 23.667 57 53 117c-51.333 -14.667 -116 -35 -194 -61
c-26 -78.667 -51.5 -137.334 -76.5 -176.001s-63.167 -68.334 -114.5 -89.001c-41.333 -16.667 -85.333 -25 -132 -25c-47.333 0 -87.333 11.667 -120 35s-49 55.333 -49 96zM747.996 385.002c65.333 26.667 117.668 54.999 157.001 84.999c47.333 36 84.333 82.333 111 139
c9.33301 20.667 14 36.334 14 47.001c0 8 -3.83301 15 -11.5 21s-15.834 9 -24.501 9c-49.333 0 -96.666 -34.333 -141.999 -103c-26.667 -40 -61.334 -106 -104.001 -198z" />
    <glyph glyph-name="Ocyril" unicode="&#x41e;" horiz-adv-x="581" 
d="M92 189c0 102 44.001 201.332 132.001 297.999c52.667 57.333 114.167 108 184.5 152s139.833 66 208.5 66c29.333 0 55.166 -8.16699 77.499 -24.5s33.5 -37.166 33.5 -62.499c0 -16 -5 -35.333 -15 -58l-16 5c8.66699 19.333 13 36.666 13 51.999
c0 22 -9.33301 39.833 -28 53.5s-40.667 20.5 -66 20.5c-32.667 0 -70.834 -8.33301 -114.501 -25s-80.834 -39.667 -111.501 -69c-68 -65.333 -120 -133 -156 -203c-40 -77.333 -68 -145.333 -84 -204c-5.33301 -19.333 -8 -37.333 -8 -54c0 -5.33301 0.333008 -12 1 -20
s1 -14 1 -18c0 -21.333 11.833 -42.333 35.5 -63s46.834 -31 69.501 -31c111.333 0 215.333 94 312 282c51.333 100.667 77 178 77 232c0 34.667 -16 52 -48 52s-70 -23.333 -114 -70c-36 -39.333 -70.333 -92 -103 -158c-32.667 -65.333 -54 -124.666 -64 -177.999
c-4 -22 -7.33301 -44 -10 -66h-15c6.66699 94 40.334 194 101.001 300c70.667 124.667 139 187 205 187c24.667 0 43.667 -9.5 57 -28.5s20 -42.833 20 -71.5c0 -80 -41 -174.667 -123 -284c-106 -141.333 -204 -212 -294 -212c-49.333 0 -88 19.167 -116 57.5
s-42 85.833 -42 142.5z" />
    <glyph glyph-name="Pecyril" unicode="&#x41f;" horiz-adv-x="858" 
d="M43 122c0 26 7.99805 47.998 23.998 65.998s36.667 27 62 27c16.667 0 31.5 -5.5 44.5 -16.5s19.5 -23.833 19.5 -38.5c0 -21.333 -9.33301 -36.333 -28 -45l-52 -17c-18.667 -6 -28 -15.667 -28 -29c0 -19.333 15.333 -35.333 46 -48c24.667 -10 48.667 -15 72 -15
c49.333 0 92 19.667 128 59c22.667 24.667 48.334 66 77.001 124c19.333 42 53.333 107.667 102 197c58 91.333 120.667 157 188 197l8 -12c-2 -2 -7.66699 -6.5 -17 -13.5s-17.333 -13.333 -24 -19s-14.334 -12.667 -23.001 -21s-16 -16.666 -22 -24.999
s-10.667 -16.5 -14 -24.5c-1.33301 -3.33301 -4.66602 -10.833 -9.99902 -22.5s-11 -25.334 -17 -41.001s-11 -31.5 -15 -47.5c-21.333 -79.333 -38.333 -134 -51 -164c-20.667 -47.333 -41.167 -84.166 -61.5 -110.499s-48.166 -46.833 -83.499 -61.5
c-50 -20.667 -101.667 -31 -155 -31c-47.333 0 -87.5 11.833 -120.5 35.5s-49.5 55.834 -49.5 96.501zM159.998 404.998c0 41.333 16.668 83.668 50.001 127.001c86 112 208.333 168 367 168c79.333 0 165 -6 257 -18c79.333 -10 138.666 -15 177.999 -15
c34.667 0 60.334 9.33301 77.001 28l12 -8c-27.333 -62 -73 -93 -137 -93h-3c-57.333 0 -119.666 12 -186.999 36c-34 12 -81.333 22.167 -142 30.5s-105.334 12.5 -134.001 12.5c-48 0 -96.833 -14.167 -146.5 -42.5s-89.834 -60.833 -120.501 -97.5
c-37.333 -44.667 -56 -87.667 -56 -129c0 -23.333 7.5 -43.5 22.5 -60.5s33.5 -25.5 55.5 -25.5c42 0 82.333 29.333 121 88c36.667 56 55 105.333 55 148c0 7.33301 -2.66699 22.666 -8 45.999l13 4c20.667 -41.333 31 -81 31 -119c0 -51.333 -18.667 -95 -56 -131
c-36 -35.333 -80.667 -53 -134 -53c-34.667 0 -62.5 9.16699 -83.5 27.5s-31.5 43.833 -31.5 76.5zM650.999 52c0 4.66699 0.165039 12.499 0.498047 23.499s0.5 19.167 0.5 24.5c0 80 42.667 178.667 128 296l41 54.5l45 56.5l42 53l15 -9
c-6.66699 -9.33301 -15.667 -20.166 -27 -32.499s-20.833 -23.5 -28.5 -33.5s-14.167 -20.333 -19.5 -31c-50.667 -106 -90 -199 -118 -279s-42 -130.667 -42 -152c0 -10 4.66699 -15 14 -15c18.667 0 44.334 17.667 77.001 53s60.667 69.333 84 102l14 -8
c-82 -110 -144.333 -165 -187 -165c-15.333 0 -25.666 5.33301 -30.999 16s-8 26 -8 46z" />
    <glyph glyph-name="Er" unicode="&#x420;" horiz-adv-x="709" 
d="M59 121c0 26.667 8.33301 48.9932 25 66.9932s38 27 64 27c16.667 0 31.334 -5.33301 44.001 -16s19 -23.667 19 -39c0 -22 -9.33301 -37.333 -28 -46c-22.667 -6.66699 -40 -12 -52 -16c-18.667 -6 -28 -16.333 -28 -31c0 -17.333 12.167 -31.666 36.5 -42.999
s48.833 -17 73.5 -17c47.333 0 89.333 18.333 126 55c32 32 77 111.333 135 238c-42 -4 -82.667 -19.667 -122 -47l-9 11c39.333 30 85.333 47 138 51c76 164.667 169 277.334 279 338.001c-34.667 23.333 -84 35 -148 35c-68.667 0 -140.334 -15.667 -215.001 -47
c-78 -33.333 -137 -75.666 -177 -126.999c-28.667 -38 -43 -73.667 -43 -107c0 -23.333 7 -42.166 21 -56.499s32.667 -21.5 56 -21.5c50 0 103 36 159 108c42 54 63.333 112.333 64 175h13c5.33301 -32 8 -58.667 8 -80c0 -62 -19.667 -115.333 -59 -160
c-40 -44.667 -91 -67 -153 -67c-37.333 0 -67.5 8.83301 -90.5 26.5s-34.5 42.834 -34.5 75.501c0 38 15.667 76.667 47 116c43.333 54 104.666 98 183.999 132c73.333 31.333 147.333 47 222 47c60 0 116 -12 168 -36c23.333 12.667 49.666 22.667 78.999 30l3 -13
c-23.333 -6.66699 -45.666 -15.667 -66.999 -27c56.667 -42.667 85 -89.334 85 -140.001c0 -47.333 -20 -88.166 -60 -122.499s-86.333 -58.166 -139 -71.499c-6 -1.33301 -23.5 -3.5 -52.5 -6.5s-48.5 -5.16699 -58.5 -6.5c-30 -94.667 -67.667 -164 -113 -208
c-42 -41.333 -78.167 -70.166 -108.5 -86.499s-69.166 -24.5 -116.499 -24.5c-50 0 -91.667 11.5 -125 34.5s-50 55.167 -50 96.5zM577 324.993c111.333 24 175.668 46.667 193.001 68c44 54 66 112 66 174c0 8 -4 17.167 -12 27.5s-15.167 18 -21.5 23l-31.5 25.5
c-1.33301 -0.666992 -9.83301 -6.16699 -25.5 -16.5s-26.667 -17.833 -33 -22.5s-15.5 -11.834 -27.5 -21.501s-21.667 -19 -29 -28s-13 -18.167 -17 -27.5c-8.66699 -19.333 -29.334 -86.666 -62.001 -201.999z" />
    <glyph glyph-name="Es" unicode="&#x421;" horiz-adv-x="747" 
d="M144 505c0 39.333 14.002 75.333 42.002 108c51.333 61.333 128.333 92 231 92c22.667 0 49 -2 79 -6l-2 -15c-16.667 2.66699 -38 4 -64 4c-54 0 -102 -17.667 -144 -53c-61.333 -51.333 -92 -107.666 -92 -168.999s42.333 -100 127 -116c46 68.667 104 134 174 196
s140.333 107.667 211 137c38 15.333 68 23 90 23c24 0 43.833 -8.33301 59.5 -25s23.5 -37 23.5 -61c0 -57.333 -39 -113.666 -117 -168.999c-60 -42.667 -127 -74.334 -201 -95.001c-48 -13.333 -96.333 -20.333 -145 -21c-26.667 -52.667 -44.334 -91 -53.001 -115
c-17.333 -44.667 -26 -85.667 -26 -123c0 -28.667 14 -51 42 -67s60 -24 96 -24c44 0 85 12.167 123 36.5s66.333 53.833 85 88.5c14 26 21 51.667 21 77c0 20.667 -6 38.5 -18 53.5s-27.333 22.5 -46 22.5c-26.667 0 -52.667 -13.667 -78 -41
c-28.667 -30.667 -47 -78.667 -55 -144h-14c-6.66699 26 -10 48.333 -10 67c0 37.333 14.167 69.333 42.5 96s61.5 40 99.5 40c27.333 0 50.166 -8.83301 68.499 -26.5s27.5 -39.834 27.5 -66.501c0 -50.667 -23.333 -98.667 -70 -144c-49.333 -48.667 -108 -73 -176 -73
c-56 0 -103.667 17.667 -143 53c-41.333 36.667 -62 82.667 -62 138c0 46 14.667 97 44 153c-48 8 -88.333 26.833 -121 56.5s-49 67.167 -49 112.5zM425.002 351c41.333 0.666992 81.667 6.66699 121 18c97.333 28 178.666 84.333 243.999 169
c36 46.667 54 83.334 54 110.001c0 12 -4.66699 22 -14 30s-20.666 12 -33.999 12c-42.667 0 -98.5 -29.833 -167.5 -89.5s-136.833 -142.834 -203.5 -249.501z" />
    <glyph glyph-name="Te" unicode="&#x422;" horiz-adv-x="1039" 
d="M43 122c0 26 7.99805 47.999 23.998 65.999s36.667 27 62 27c16.667 0 31.5 -5.5 44.5 -16.5s19.5 -23.833 19.5 -38.5c0 -21.333 -9.33301 -36.333 -28 -45l-52 -17c-18.667 -6 -28 -15.667 -28 -29c0 -19.333 15.333 -35.333 46 -48c24.667 -10 48.667 -15 72 -15
c49.333 0 92 19.667 128 59c22.667 24.667 48.334 66 77.001 124c19.333 42 53.333 107.667 102 197c58 91.333 120.667 157 188 197l8 -12c-1.33301 -1.33301 -4.83301 -4.16602 -10.5 -8.49902s-9.66699 -7.5 -12 -9.5s-6 -5.33301 -11 -10
s-9.16699 -8.83398 -12.5 -12.501s-7 -8 -11 -13s-7.5 -10.167 -10.5 -15.5s-5.83301 -10.666 -8.5 -15.999c-2 -4 -7.16699 -13.833 -15.5 -29.5s-16.666 -32.334 -24.999 -50.001s-14.833 -34.167 -19.5 -49.5c-12.667 -44.667 -37.667 -100.667 -75 -168
c-54 -97.333 -96.333 -153.333 -127 -168c-43.333 -20.667 -95 -31 -155 -31c-47.333 0 -87.5 11.833 -120.5 35.5s-49.5 55.834 -49.5 96.501zM159.998 404.999c0 41.333 16.665 83.667 49.998 127c86 112 208.333 168 367 168c52.667 0 95.334 -0.5 128.001 -1.5
s54.834 -2.16699 66.501 -3.5s27.834 -3.66602 48.501 -6.99902s38 -6 52 -8c64.667 -8.66699 159.334 -13 284.001 -13h6c34.667 0 60.334 9.33301 77.001 28l12 -8c-27.333 -62 -72 -93 -134 -93c-142.667 0 -244.334 11.333 -305.001 34
c-80.667 30 -185.334 45 -314.001 45c-48 0 -96.833 -14.167 -146.5 -42.5s-89.834 -60.833 -120.501 -97.5c-37.333 -44.667 -56 -87.667 -56 -129c0 -23.333 7.5 -43.5 22.5 -60.5s33.5 -25.5 55.5 -25.5c42 0 82.333 29.333 121 88c36.667 56 55 105.333 55 148
c0 7.33301 -2.66699 22.666 -8 45.999l13 4c20.667 -41.333 31 -81 31 -119c0 -51.333 -18.667 -95 -56 -131c-36 -35.333 -80.667 -53 -134 -53c-34.667 0 -62.5 9.16699 -83.5 27.5s-31.5 43.833 -31.5 76.5zM557.996 -9c0 0.666992 7.6709 13.6689 23.0039 39.002
c28.667 48.667 49 97.667 61 147c4 17.333 11.333 41 22 71c1.33301 2.66699 4.66602 11.667 9.99902 27s8.66602 24.666 9.99902 27.999l9.5 24.5c5 13 9.16699 22.333 12.5 28s8 14.167 14 25.5s11.833 20.833 17.5 28.5s12.667 16.667 21 27s17.166 20.5 26.499 30.5
l29 32.5l32 35.5c9.33301 10 21 21 35 33l10 -9l-45 -65c-6.66699 -11.333 -14.334 -26 -23.001 -44s-19.667 -42.167 -33 -72.5l-30 -67.5c-9.33301 -20 -21.333 -47.833 -36 -83.5s-26.167 -62.834 -34.5 -81.501s-20.5 -40.5 -36.5 -65.5s-33.667 -47.167 -53 -66.5
c-2.66699 -2.66699 -6.5 -7 -11.5 -13s-9.16699 -10.5 -12.5 -13.5s-6 -4.5 -8 -4.5c-6.66699 0 -10 3 -10 9zM832 52.002c0 4.66699 0.165039 12.499 0.498047 23.499s0.5 19.167 0.5 24.5c0 80 42.667 178.667 128 296l41 54.5l45 56.5l42 53l15 -9
c-6.66699 -9.33301 -15.667 -20.166 -27 -32.499s-20.833 -23.5 -28.5 -33.5s-14.167 -20.333 -19.5 -31c-50.667 -106 -90 -199 -118 -279s-42 -130.667 -42 -152c0 -10 4.66699 -15 14 -15c18.667 0 44.334 17.667 77.001 53s60.667 69.333 84 102l14 -8
c-82 -110 -144.333 -165 -187 -165c-15.333 0 -25.666 5.33301 -30.999 16s-8 26 -8 46z" />
    </font>
</defs>
</svg>
